{"glyphs":{"0":{"ha":694,"x_min":23,"x_max":675,"o":"m 180 1366 l 675 1366 l 675 439 l 518 22 l 23 22 l 23 948 l 180 1366 m 419 945 l 236 458 l 278 442 l 461 929 l 419 945 z "},"1":{"ha":694,"x_min":23,"x_max":675,"o":"m 237 1366 l 620 1366 l 620 471 l 675 471 l 675 22 l 23 22 l 23 471 l 228 471 l 228 651 l 309 736 l 277 768 l 60 540 l 60 1180 l 237 1366 z "},"2":{"ha":694,"x_min":23,"x_max":675,"o":"m 123 1366 l 675 1366 l 675 806 l 513 438 l 553 419 l 675 693 l 675 22 l 23 22 l 431 948 l 262 948 l 262 903 l 362 903 l 195 528 l 23 528 l 23 1139 l 123 1366 z "},"3":{"ha":694,"x_min":23,"x_max":675,"o":"m 171 1366 l 675 1366 l 675 960 l 601 849 l 675 849 l 675 240 l 530 22 l 121 22 l 517 616 l 479 640 l 125 110 l 125 646 l 380 1028 l 343 1053 l 23 574 l 23 1143 l 171 1366 z "},"4":{"ha":694,"x_min":23,"x_max":675,"o":"m 187 1366 l 627 1366 l 627 800 l 675 800 l 675 159 l 627 159 l 627 22 l 256 22 l 324 159 l 23 159 l 23 951 l 187 1366 m 391 952 l 228 541 l 270 525 l 433 936 l 391 952 z "},"5":{"ha":694,"x_min":23,"x_max":675,"o":"m 23 1366 l 247 1366 l 247 1255 l 675 1255 l 675 834 l 236 834 l 236 605 l 281 605 l 281 789 l 675 789 l 675 22 l 334 22 l 518 393 l 479 414 l 283 22 l 23 22 l 23 1366 z "},"6":{"ha":694,"x_min":23,"x_max":675,"o":"m 262 1366 l 583 1366 l 583 941 l 358 941 l 358 897 l 675 897 l 675 22 l 23 22 l 23 1035 l 262 1366 m 437 594 l 252 340 l 289 313 l 473 568 l 437 594 z "},"7":{"ha":694,"x_min":23,"x_max":675,"o":"m 23 1366 l 675 1366 l 675 741 l 563 355 l 563 22 l 134 22 l 357 791 l 313 803 l 184 359 l 23 359 l 23 1366 z "},"8":{"ha":694,"x_min":23,"x_max":675,"o":"m 180 1366 l 675 1366 l 675 716 l 602 716 l 602 671 l 675 671 l 675 231 l 518 22 l 23 22 l 23 671 l 95 671 l 95 716 l 23 716 l 23 1157 l 180 1366 m 416 1118 l 244 888 l 281 861 l 453 1090 l 416 1118 m 416 526 l 244 297 l 281 270 l 453 499 l 416 526 z "},"9":{"ha":694,"x_min":23,"x_max":675,"o":"m 23 1366 l 675 1366 l 675 334 l 450 22 l 23 22 l 23 189 l 212 450 l 340 450 l 340 495 l 23 495 l 23 1366 m 418 1073 l 233 818 l 270 792 l 454 1047 l 418 1073 z "}," ":{"ha":694,"x_min":0,"x_max":0,"o":""},"!":{"ha":694,"x_min":23,"x_max":675,"o":"m 349 1366 l 675 1366 l 675 670 l 426 382 l 426 605 l 129 605 l 349 1366 m 23 560 l 380 560 l 380 22 l 23 22 l 23 560 z "},"\"":{"ha":694,"x_min":23,"x_max":671,"o":"m 23 1366 l 327 1366 l 327 921 l 236 694 l 23 694 l 23 696 l 121 940 l 23 940 l 23 1366 m 372 1366 l 671 1366 l 671 921 l 582 694 l 368 694 l 465 940 l 372 940 l 372 1366 z "},"#":{"ha":694,"x_min":23,"x_max":675,"o":"m 134 1366 l 439 1366 l 420 1255 l 465 1255 l 484 1366 l 637 1366 l 632 1255 l 675 1255 l 675 716 l 602 716 l 600 671 l 675 671 l 675 133 l 570 133 l 563 22 l 259 22 l 277 133 l 232 133 l 213 22 l 60 22 l 65 133 l 23 133 l 23 671 l 96 671 l 98 716 l 23 716 l 23 1255 l 127 1255 l 134 1366 m 365 924 l 289 472 l 332 465 l 408 916 l 365 924 z "},"$":{"ha":694,"x_min":23,"x_max":675,"o":"m 237 1366 l 460 1366 l 460 1255 l 675 1255 l 675 730 l 476 933 l 444 902 l 675 666 l 675 345 l 521 133 l 460 133 l 460 22 l 237 22 l 237 133 l 23 133 l 23 656 l 221 453 l 252 484 l 23 722 l 23 1043 l 176 1255 l 237 1255 l 237 1366 z "},"%":{"ha":694,"x_min":23,"x_max":675,"o":"m 23 1366 l 269 1366 l 269 600 l 23 600 l 23 1366 m 396 1366 l 675 1366 l 675 1096 l 583 833 l 384 833 l 384 256 l 301 22 l 23 22 l 23 292 l 114 555 l 313 555 l 313 1130 l 396 1366 m 183 1156 l 69 830 l 111 815 l 225 1141 l 183 1156 m 429 788 l 675 788 l 675 22 l 429 22 l 429 788 m 586 572 l 472 245 l 514 232 l 628 557 l 586 572 z "},"&":{"ha":694,"x_min":23,"x_max":675,"o":"m 136 1366 l 524 1366 l 637 1139 l 637 936 l 490 642 l 530 621 l 675 910 l 675 509 l 610 382 l 675 255 l 675 22 l 513 22 l 475 102 l 434 22 l 133 22 l 23 239 l 23 528 l 106 694 l 23 860 l 23 1145 l 136 1366 m 324 1118 l 285 1099 l 376 916 l 416 936 l 324 1118 m 263 488 l 222 468 l 313 286 l 354 307 l 263 488 z "},"'":{"ha":694,"x_min":23,"x_max":674,"o":"m 23 1366 l 674 1366 l 674 921 l 549 692 l 244 692 l 378 937 l 23 937 l 23 1366 z "},"(":{"ha":694,"x_min":23,"x_max":675,"o":"m 675 1366 l 675 1242 l 536 1039 l 536 350 l 675 146 l 675 23 l 151 23 l 23 217 l 24 1175 l 151 1366 l 675 1366 z "},")":{"ha":694,"x_min":23,"x_max":675,"o":"m 23 1366 l 547 1366 l 673 1175 l 675 217 l 547 23 l 23 23 l 23 146 l 161 350 l 161 1039 l 23 1242 l 23 1366 z "},"*":{"ha":694,"x_min":23,"x_max":671,"o":"m 235 1255 l 460 1255 l 460 1082 l 559 1196 l 671 808 l 572 694 l 671 581 l 559 193 l 460 307 l 460 134 l 235 134 l 235 307 l 136 193 l 23 581 l 122 694 l 23 808 l 136 1196 l 235 1082 l 235 1255 z "},"+":{"ha":694,"x_min":24,"x_max":673,"o":"m 153 1255 l 544 1255 l 544 1031 l 673 1031 l 673 358 l 544 358 l 544 134 l 153 134 l 153 358 l 24 358 l 24 1031 l 153 1031 l 153 1255 z "},",":{"ha":694,"x_min":24,"x_max":673,"o":"m 250 671 l 673 671 l 673 247 l 548 22 l 252 22 l 315 134 l 24 134 l 24 507 l 250 671 z "},"-":{"ha":694,"x_min":24,"x_max":673,"o":"m 24 358 l 24 1031 l 673 1031 l 673 358 l 24 358 z "},".":{"ha":694,"x_min":24,"x_max":673,"o":"m 248 560 l 673 560 l 673 190 l 445 22 l 24 22 l 24 396 l 248 560 z "},"/":{"ha":694,"x_min":23,"x_max":675,"o":"m 351 1366 l 675 1366 l 675 1092 l 346 22 l 23 22 l 23 296 l 351 1366 z "},":":{"ha":694,"x_min":24,"x_max":673,"o":"m 250 1255 l 673 1255 l 673 883 l 448 718 l 24 718 l 24 1089 l 250 1255 m 248 671 l 673 671 l 673 301 l 445 134 l 24 134 l 24 509 l 248 671 z "},";":{"ha":694,"x_min":23,"x_max":675,"o":"m 250 1260 l 675 1260 l 675 886 l 448 720 l 23 720 l 23 1093 l 250 1260 m 231 675 l 675 675 l 675 247 l 549 22 l 252 22 l 315 134 l 23 134 l 23 522 l 231 675 z "},"<":{"ha":694,"x_min":23,"x_max":675,"o":"m 283 1256 l 675 1253 l 675 1017 l 525 693 l 675 370 l 675 133 l 283 133 l 23 693 l 283 1256 z "},"=":{"ha":694,"x_min":24,"x_max":673,"o":"m 24 1142 l 673 1142 l 673 718 l 24 718 l 24 1142 m 24 671 l 673 671 l 673 247 l 24 247 l 24 671 z "},">":{"ha":694,"x_min":23,"x_max":675,"o":"m 414 1256 l 675 693 l 414 133 l 23 133 l 23 370 l 172 693 l 23 1017 l 23 1253 l 414 1256 z "},"?":{"ha":694,"x_min":23,"x_max":675,"o":"m 123 1366 l 572 1366 l 675 1165 l 675 678 l 538 414 l 538 316 l 156 316 l 156 522 l 430 522 l 430 941 l 182 941 l 182 897 l 384 897 l 384 567 l 23 567 l 23 1168 l 123 1366 m 122 271 l 574 271 l 574 22 l 122 22 l 122 271 z "},"@":{"ha":694,"x_min":23,"x_max":675,"o":"m 109 1366 l 555 1366 l 675 1127 l 675 761 l 463 312 l 161 312 l 161 713 l 263 1070 l 477 1070 l 477 628 l 522 628 l 522 1115 l 229 1115 l 117 719 l 117 267 l 491 267 l 675 656 l 675 22 l 107 22 l 23 193 l 23 1195 l 109 1366 m 357 859 l 258 543 l 301 529 l 400 845 l 357 859 z "},"A":{"ha":694,"x_min":23,"x_max":675,"o":"m 216 1366 l 675 1366 l 675 22 l 401 22 l 401 141 l 221 141 l 191 22 l 23 22 l 23 597 l 216 1366 m 414 916 l 300 463 l 345 452 l 457 905 l 414 916 z "},"B":{"ha":694,"x_min":23,"x_max":675,"o":"m 23 1366 l 675 1366 l 675 962 l 526 779 l 675 779 l 675 243 l 496 22 l 23 22 l 23 1366 m 374 1028 l 201 814 l 236 785 l 410 1000 l 374 1028 m 374 567 l 201 354 l 236 326 l 410 540 l 374 567 z "},"C":{"ha":694,"x_min":23,"x_max":689,"o":"m 23 1366 l 510 1366 l 689 1164 l 689 602 l 391 602 l 391 735 l 345 735 l 345 425 l 391 425 l 391 557 l 689 557 l 689 22 l 220 22 l 23 247 l 23 1366 z "},"D":{"ha":694,"x_min":23,"x_max":675,"o":"m 23 1366 l 511 1366 l 675 924 l 675 465 l 511 22 l 23 22 l 23 1366 m 378 925 l 212 472 l 254 456 l 420 910 l 378 925 z "},"E":{"ha":694,"x_min":23,"x_max":675,"o":"m 23 1366 l 675 1366 l 675 1053 l 300 1053 l 300 1008 l 601 1008 l 601 572 l 300 572 l 300 528 l 675 528 l 675 22 l 23 22 l 23 1366 z "},"F":{"ha":694,"x_min":23,"x_max":675,"o":"m 23 1366 l 675 1366 l 675 791 l 338 791 l 338 746 l 589 746 l 589 319 l 316 319 l 316 22 l 23 22 l 23 1366 z "},"G":{"ha":694,"x_min":23,"x_max":675,"o":"m 191 1366 l 673 1366 l 673 829 l 270 829 l 270 328 l 518 328 l 518 373 l 315 373 l 315 784 l 673 784 l 675 22 l 190 22 l 23 359 l 23 1025 l 191 1366 m 193 1366 l 675 1366 l 675 829 l 270 829 l 270 328 l 519 328 l 519 373 l 316 373 l 316 784 l 675 784 l 675 22 l 190 22 l 23 359 l 23 1025 l 193 1366 z "},"H":{"ha":694,"x_min":23,"x_max":675,"o":"m 23 1366 l 326 1366 l 326 827 l 292 827 l 292 783 l 406 783 l 406 827 l 372 827 l 372 1366 l 675 1366 l 675 22 l 372 22 l 372 336 l 406 336 l 406 381 l 292 381 l 292 336 l 326 336 l 326 22 l 23 22 l 23 1366 z "},"I":{"ha":694,"x_min":23,"x_max":675,"o":"m 23 1366 l 675 1366 l 675 810 l 517 810 l 517 357 l 675 357 l 675 22 l 23 22 l 23 357 l 180 357 l 180 810 l 23 810 l 23 1366 z "},"J":{"ha":694,"x_min":23,"x_max":675,"o":"m 144 1366 l 673 1366 l 675 363 l 506 22 l 23 22 l 23 785 l 267 785 l 267 467 l 313 467 l 313 1057 l 144 1057 l 144 1366 m 144 1366 l 675 1366 l 675 359 l 507 22 l 23 22 l 23 785 l 269 785 l 269 467 l 313 467 l 313 1057 l 144 1057 l 144 1366 z "},"K":{"ha":694,"x_min":23,"x_max":675,"o":"m 23 1366 l 315 1366 l 315 1152 l 357 1142 l 468 1366 l 675 1366 l 675 1053 l 488 678 l 529 658 l 571 743 l 675 743 l 675 22 l 468 22 l 357 247 l 315 237 l 315 22 l 23 22 l 23 1366 z "},"L":{"ha":694,"x_min":23,"x_max":675,"o":"m 23 1366 l 574 1366 l 574 1025 l 461 1025 l 461 689 l 549 689 l 549 981 l 675 981 l 675 22 l 23 22 l 23 689 l 83 689 l 83 1025 l 23 1025 l 23 1366 z "},"M":{"ha":694,"x_min":23,"x_max":675,"o":"m 23 1366 l 321 1366 l 321 1029 l 365 1024 l 461 1366 l 675 1366 l 675 22 l 420 22 l 513 362 l 469 373 l 374 22 l 258 22 l 258 361 l 213 361 l 213 22 l 23 22 l 23 1366 z "},"N":{"ha":694,"x_min":23,"x_max":675,"o":"m 23 1366 l 305 1366 l 457 905 l 499 918 l 425 1147 l 425 1366 l 673 1366 l 675 22 l 389 22 l 237 484 l 195 471 l 270 241 l 270 22 l 23 22 l 23 1366 m 23 1366 l 307 1366 l 458 905 l 502 920 l 426 1147 l 426 1366 l 675 1366 l 675 22 l 391 22 l 239 484 l 195 469 l 271 241 l 271 22 l 23 22 l 23 1366 z "},"O":{"ha":694,"x_min":23,"x_max":675,"o":"m 23 1366 l 575 1366 l 675 1061 l 675 22 l 122 22 l 23 328 l 23 1366 m 292 941 l 250 928 l 406 448 l 448 461 l 292 941 z "},"P":{"ha":694,"x_min":23,"x_max":675,"o":"m 23 1366 l 530 1366 l 675 1175 l 675 495 l 498 260 l 315 260 l 315 216 l 377 216 l 377 22 l 23 22 l 23 1366 m 445 922 l 212 612 l 248 585 l 481 895 l 445 922 z "},"Q":{"ha":694,"x_min":23,"x_max":675,"o":"m 133 1366 l 564 1366 l 675 1143 l 675 463 l 617 345 l 675 228 l 675 22 l 133 22 l 23 245 l 23 1143 l 133 1366 m 346 975 l 179 637 l 323 347 l 363 368 l 229 637 l 346 873 l 442 678 l 483 699 l 346 975 z "},"R":{"ha":694,"x_min":23,"x_max":675,"o":"m 23 1366 l 495 1366 l 675 1116 l 675 662 l 543 479 l 675 296 l 675 22 l 456 22 l 286 256 l 250 231 l 327 125 l 327 22 l 23 22 l 23 1366 m 423 879 l 250 637 l 286 612 l 460 852 l 423 879 z "},"S":{"ha":694,"x_min":23,"x_max":675,"o":"m 193 1366 l 675 1366 l 675 627 l 426 947 l 391 920 l 675 553 l 675 243 l 505 22 l 23 22 l 23 643 l 271 323 l 307 350 l 23 716 l 23 1147 l 193 1366 z "},"T":{"ha":694,"x_min":23,"x_max":675,"o":"m 23 1366 l 675 1366 l 675 593 l 529 593 l 552 803 l 507 808 l 481 576 l 481 374 l 602 374 l 602 22 l 95 22 l 95 374 l 216 374 l 216 576 l 190 808 l 145 803 l 168 593 l 23 593 l 23 1366 z "},"U":{"ha":694,"x_min":23,"x_max":675,"o":"m 133 1366 l 326 1366 l 326 472 l 372 472 l 372 1366 l 675 1366 l 675 22 l 23 22 l 23 921 l 133 1366 z "},"V":{"ha":694,"x_min":23,"x_max":675,"o":"m 23 1366 l 326 1366 l 326 591 l 372 591 l 372 1366 l 675 1366 l 675 811 l 395 22 l 23 22 l 23 1366 z "},"W":{"ha":694,"x_min":23,"x_max":675,"o":"m 23 1366 l 266 1366 l 153 700 l 198 692 l 311 1366 l 515 1366 l 404 700 l 448 692 l 562 1366 l 675 1366 l 675 552 l 585 22 l 339 22 l 339 297 l 294 301 l 245 22 l 23 22 l 23 1366 z "},"X":{"ha":694,"x_min":23,"x_max":675,"o":"m 23 1366 l 255 1366 l 326 1078 l 292 939 l 335 928 l 442 1366 l 675 1366 l 675 859 l 617 624 l 675 388 l 675 22 l 407 22 l 372 168 l 406 309 l 362 319 l 290 22 l 23 22 l 23 388 l 80 624 l 23 859 l 23 1366 z "},"Y":{"ha":694,"x_min":23,"x_max":675,"o":"m 23 1366 l 224 1366 l 336 990 l 282 811 l 326 799 l 495 1366 l 675 1366 l 675 614 l 499 22 l 58 22 l 114 247 l 23 524 l 23 1366 z "},"Z":{"ha":694,"x_min":23,"x_max":675,"o":"m 23 1366 l 675 1366 l 675 1065 l 496 518 l 540 503 l 600 689 l 675 689 l 675 22 l 23 22 l 23 323 l 201 869 l 157 883 l 98 699 l 23 699 l 23 1366 z "},"[":{"ha":694,"x_min":23,"x_max":675,"o":"m 675 1366 l 675 1031 l 396 1031 l 396 358 l 675 358 l 675 22 l 23 22 l 23 1366 l 675 1366 z "},"\\":{"ha":694,"x_min":23,"x_max":675,"o":"m 23 1366 l 248 1366 l 323 1217 l 264 1100 l 305 1080 l 449 1366 l 675 1366 l 675 1122 l 557 887 l 484 887 l 484 842 l 675 842 l 675 547 l 484 547 l 484 502 l 675 502 l 675 206 l 473 206 l 473 22 l 224 22 l 224 206 l 23 206 l 23 502 l 213 502 l 213 547 l 23 547 l 23 842 l 213 842 l 213 887 l 140 887 l 23 1122 l 23 1366 z "},"]":{"ha":694,"x_min":23,"x_max":675,"o":"m 23 1366 l 675 1366 l 675 22 l 23 22 l 23 358 l 301 358 l 301 1031 l 23 1031 l 23 1366 z "},"^":{"ha":694,"x_min":23,"x_max":675,"o":"m 349 1366 l 675 1040 l 675 692 l 484 692 l 349 827 l 213 692 l 23 692 l 23 1040 l 349 1366 z "},"_":{"ha":694,"x_min":23,"x_max":675,"o":"m 23 472 l 675 472 l 675 22 l 23 22 l 23 472 z "},"`":{"ha":694,"x_min":23,"x_max":674,"o":"m 674 1366 l 674 937 l 319 937 l 453 692 l 148 692 l 23 921 l 23 1366 l 674 1366 z "},"a":{"ha":694,"x_min":23,"x_max":675,"o":"m 217 1097 l 675 1097 l 675 22 l 401 22 l 401 123 l 222 123 l 191 22 l 23 22 l 23 481 l 217 1097 m 414 739 l 301 377 l 345 363 l 457 726 l 414 739 z "},"b":{"ha":694,"x_min":23,"x_max":675,"o":"m 23 1097 l 675 1097 l 675 777 l 518 623 l 675 623 l 675 202 l 494 22 l 23 22 l 23 1097 m 376 831 l 203 661 l 235 628 l 408 800 l 376 831 m 376 463 l 203 292 l 235 260 l 408 431 l 376 463 z "},"c":{"ha":694,"x_min":23,"x_max":675,"o":"m 23 22 l 23 916 l 218 1097 l 675 1097 l 675 674 l 382 674 l 382 776 l 338 776 l 338 528 l 382 528 l 382 629 l 675 629 l 675 187 l 496 22 l 23 22 z "},"d":{"ha":694,"x_min":23,"x_max":675,"o":"m 23 1097 l 511 1097 l 675 742 l 675 378 l 511 22 l 23 22 l 23 1097 m 380 747 l 213 385 l 254 366 l 420 730 l 380 747 z "},"e":{"ha":694,"x_min":23,"x_max":675,"o":"m 23 1097 l 675 1097 l 675 852 l 300 852 l 300 807 l 601 807 l 601 467 l 300 467 l 300 422 l 675 422 l 675 22 l 23 22 l 23 1097 z "},"f":{"ha":694,"x_min":23,"x_max":675,"o":"m 23 1097 l 675 1097 l 675 642 l 338 642 l 338 597 l 589 597 l 589 263 l 316 263 l 316 22 l 23 22 l 23 1097 z "},"g":{"ha":694,"x_min":23,"x_max":675,"o":"m 194 1097 l 675 1097 l 675 673 l 271 673 l 271 264 l 521 264 l 521 309 l 316 309 l 316 628 l 675 628 l 675 22 l 193 22 l 23 296 l 23 823 l 194 1097 z "},"h":{"ha":694,"x_min":23,"x_max":675,"o":"m 23 1097 l 326 1097 l 326 671 l 292 671 l 292 627 l 406 627 l 406 671 l 372 671 l 372 1097 l 675 1097 l 675 22 l 372 22 l 372 270 l 406 270 l 406 315 l 292 315 l 292 270 l 326 270 l 326 22 l 23 22 l 23 1097 z "},"i":{"ha":694,"x_min":23,"x_max":675,"o":"m 23 1097 l 675 1097 l 675 652 l 517 652 l 517 290 l 675 290 l 675 22 l 23 22 l 23 290 l 180 290 l 180 652 l 23 652 l 23 1097 z "},"j":{"ha":694,"x_min":23,"x_max":675,"o":"m 144 1097 l 675 1097 l 675 294 l 506 22 l 23 22 l 23 629 l 269 629 l 269 378 l 313 378 l 313 854 l 144 854 l 144 1097 z "},"k":{"ha":694,"x_min":23,"x_max":675,"o":"m 23 1097 l 315 1097 l 315 926 l 355 914 l 469 1097 l 675 1097 l 675 849 l 490 551 l 528 528 l 570 594 l 675 594 l 675 22 l 469 22 l 355 206 l 315 194 l 315 22 l 23 22 l 23 1097 z "},"l":{"ha":694,"x_min":23,"x_max":675,"o":"m 23 1097 l 574 1097 l 574 829 l 461 829 l 461 552 l 549 552 l 549 784 l 675 784 l 675 22 l 23 22 l 23 552 l 83 552 l 83 829 l 23 829 l 23 1097 z "},"m":{"ha":694,"x_min":23,"x_max":675,"o":"m 23 1097 l 321 1097 l 321 829 l 365 821 l 463 1097 l 675 1097 l 675 22 l 422 22 l 513 292 l 469 305 l 374 22 l 258 22 l 258 293 l 213 293 l 213 22 l 23 22 l 23 1097 z "},"n":{"ha":694,"x_min":23,"x_max":675,"o":"m 23 1097 l 307 1097 l 460 726 l 500 743 l 426 925 l 426 1097 l 675 1097 l 675 22 l 391 22 l 237 395 l 197 377 l 271 195 l 271 22 l 23 22 l 23 1097 z "},"o":{"ha":694,"x_min":23,"x_max":675,"o":"m 23 1097 l 575 1097 l 675 853 l 675 22 l 122 22 l 23 267 l 23 1097 m 292 761 l 250 745 l 406 359 l 448 376 l 292 761 z "},"p":{"ha":694,"x_min":23,"x_max":675,"o":"m 23 1097 l 519 1097 l 675 930 l 675 415 l 492 218 l 309 218 l 309 174 l 370 174 l 370 22 l 23 22 l 23 1097 m 439 747 l 210 499 l 243 468 l 473 716 l 439 747 z "},"q":{"ha":694,"x_min":23,"x_max":675,"o":"m 134 1097 l 564 1097 l 675 920 l 675 373 l 617 281 l 675 189 l 675 22 l 134 22 l 23 203 l 23 917 l 134 1097 m 346 787 l 178 514 l 324 278 l 362 302 l 231 514 l 346 701 l 444 544 l 483 567 l 346 787 z "},"r":{"ha":694,"x_min":23,"x_max":675,"o":"m 23 1097 l 492 1097 l 675 895 l 675 537 l 540 388 l 675 239 l 675 22 l 458 22 l 285 216 l 251 186 l 327 102 l 327 22 l 23 22 l 23 1097 m 425 712 l 251 519 l 285 490 l 458 682 l 425 712 z "},"s":{"ha":694,"x_min":23,"x_max":675,"o":"m 195 1097 l 675 1097 l 675 510 l 425 768 l 393 736 l 675 445 l 675 201 l 502 22 l 23 22 l 23 517 l 273 258 l 305 289 l 23 581 l 23 920 l 195 1097 z "},"t":{"ha":694,"x_min":23,"x_max":675,"o":"m 23 1097 l 675 1097 l 675 483 l 530 483 l 552 647 l 507 652 l 481 467 l 481 300 l 602 300 l 602 22 l 95 22 l 95 300 l 216 300 l 216 467 l 190 652 l 145 647 l 167 483 l 23 483 l 23 1097 z "},"u":{"ha":694,"x_min":23,"x_max":675,"o":"m 133 1097 l 326 1097 l 326 382 l 372 382 l 372 1097 l 675 1097 l 675 22 l 23 22 l 23 742 l 133 1097 z "},"v":{"ha":694,"x_min":23,"x_max":675,"o":"m 23 1097 l 326 1097 l 326 477 l 372 477 l 372 1097 l 675 1097 l 675 654 l 395 22 l 23 22 l 23 1097 z "},"w":{"ha":694,"x_min":23,"x_max":675,"o":"m 23 1097 l 266 1097 l 153 567 l 198 557 l 312 1097 l 515 1097 l 404 567 l 448 557 l 562 1097 l 675 1097 l 675 448 l 585 22 l 339 22 l 339 243 l 294 247 l 245 22 l 23 22 l 23 1097 z "},"x":{"ha":694,"x_min":23,"x_max":675,"o":"m 23 1097 l 255 1097 l 326 868 l 292 757 l 335 745 l 442 1097 l 675 1097 l 675 692 l 617 503 l 675 315 l 675 22 l 408 22 l 372 140 l 406 250 l 362 262 l 289 22 l 23 22 l 23 315 l 80 503 l 23 692 l 23 1097 z "},"y":{"ha":694,"x_min":23,"x_max":675,"o":"m 23 1097 l 222 1097 l 335 798 l 282 656 l 324 640 l 495 1097 l 673 1097 l 675 500 l 498 22 l 58 22 l 114 202 l 23 423 l 23 1097 z "},"z":{"ha":694,"x_min":23,"x_max":675,"o":"m 23 1097 l 675 1097 l 675 857 l 498 422 l 540 404 l 601 555 l 675 555 l 675 22 l 23 22 l 23 262 l 199 697 l 157 715 l 96 564 l 23 564 l 23 1097 z "},"{":{"ha":694,"x_min":23,"x_max":675,"o":"m 675 1366 l 675 1032 l 586 1032 l 586 808 l 472 694 l 586 582 l 586 357 l 675 357 l 675 22 l 247 22 l 136 133 l 136 582 l 23 694 l 136 807 l 136 1256 l 247 1366 l 675 1366 z "},"|":{"ha":694,"x_min":153,"x_max":544,"o":"m 153 1366 l 544 1366 l 544 22 l 153 22 l 153 1366 z "},"}":{"ha":694,"x_min":23,"x_max":675,"o":"m 23 1366 l 450 1366 l 562 1256 l 562 807 l 675 694 l 562 582 l 562 133 l 450 22 l 23 22 l 23 357 l 111 357 l 111 582 l 225 694 l 111 808 l 111 1032 l 23 1032 l 23 1366 z "},"~":{"ha":694,"x_min":23,"x_max":675,"o":"m 122 1366 l 294 1366 l 498 1122 l 578 1218 l 675 1218 l 675 811 l 575 692 l 403 692 l 199 936 l 119 840 l 23 840 l 23 1246 l 122 1366 z "}," ":{"ha":694,"x_min":0,"x_max":0,"o":""},"¡":{"ha":694,"x_min":0,"x_max":0,"o":""},"¢":{"ha":694,"x_min":0,"x_max":0,"o":""},"£":{"ha":694,"x_min":0,"x_max":0,"o":""},"¤":{"ha":694,"x_min":0,"x_max":0,"o":""},"¥":{"ha":694,"x_min":0,"x_max":0,"o":""},"¦":{"ha":694,"x_min":0,"x_max":0,"o":""},"§":{"ha":1389,"x_min":0,"x_max":0,"o":""},"¨":{"ha":1389,"x_min":0,"x_max":0,"o":""},"©":{"ha":694,"x_min":0,"x_max":0,"o":""},"ª":{"ha":694,"x_min":0,"x_max":0,"o":""},"«":{"ha":694,"x_min":0,"x_max":0,"o":""},"¬":{"ha":694,"x_min":0,"x_max":0,"o":""},"­":{"ha":694,"x_min":0,"x_max":0,"o":""},"®":{"ha":694,"x_min":0,"x_max":0,"o":""},"¯":{"ha":694,"x_min":0,"x_max":0,"o":""},"°":{"ha":1389,"x_min":0,"x_max":0,"o":""},"±":{"ha":1389,"x_min":0,"x_max":0,"o":""},"²":{"ha":694,"x_min":0,"x_max":0,"o":""},"³":{"ha":694,"x_min":0,"x_max":0,"o":""},"´":{"ha":1389,"x_min":0,"x_max":0,"o":""},"µ":{"ha":694,"x_min":0,"x_max":0,"o":""},"¶":{"ha":1389,"x_min":0,"x_max":0,"o":""},"·":{"ha":694,"x_min":0,"x_max":0,"o":""},"¸":{"ha":694,"x_min":0,"x_max":0,"o":""},"¹":{"ha":694,"x_min":0,"x_max":0,"o":""},"º":{"ha":694,"x_min":0,"x_max":0,"o":""},"»":{"ha":694,"x_min":0,"x_max":0,"o":""},"¼":{"ha":694,"x_min":0,"x_max":0,"o":""},"½":{"ha":694,"x_min":0,"x_max":0,"o":""},"¾":{"ha":694,"x_min":0,"x_max":0,"o":""},"¿":{"ha":694,"x_min":0,"x_max":0,"o":""},"À":{"ha":694,"x_min":0,"x_max":0,"o":""},"Á":{"ha":694,"x_min":0,"x_max":0,"o":""},"Â":{"ha":694,"x_min":0,"x_max":0,"o":""},"Ã":{"ha":694,"x_min":0,"x_max":0,"o":""},"Ä":{"ha":694,"x_min":0,"x_max":0,"o":""},"Å":{"ha":694,"x_min":0,"x_max":0,"o":""},"Æ":{"ha":694,"x_min":0,"x_max":0,"o":""},"Ç":{"ha":694,"x_min":0,"x_max":0,"o":""},"È":{"ha":694,"x_min":0,"x_max":0,"o":""},"É":{"ha":694,"x_min":0,"x_max":0,"o":""},"Ê":{"ha":694,"x_min":0,"x_max":0,"o":""},"Ë":{"ha":694,"x_min":0,"x_max":0,"o":""},"Ì":{"ha":694,"x_min":0,"x_max":0,"o":""},"Í":{"ha":694,"x_min":0,"x_max":0,"o":""},"Î":{"ha":694,"x_min":0,"x_max":0,"o":""},"Ï":{"ha":694,"x_min":0,"x_max":0,"o":""},"Ð":{"ha":694,"x_min":0,"x_max":0,"o":""},"Ñ":{"ha":694,"x_min":0,"x_max":0,"o":""},"Ò":{"ha":694,"x_min":0,"x_max":0,"o":""},"Ó":{"ha":694,"x_min":0,"x_max":0,"o":""},"Ô":{"ha":694,"x_min":0,"x_max":0,"o":""},"Õ":{"ha":694,"x_min":0,"x_max":0,"o":""},"Ö":{"ha":694,"x_min":0,"x_max":0,"o":""},"×":{"ha":1389,"x_min":0,"x_max":0,"o":""},"Ø":{"ha":694,"x_min":0,"x_max":0,"o":""},"Ù":{"ha":694,"x_min":0,"x_max":0,"o":""},"Ú":{"ha":694,"x_min":0,"x_max":0,"o":""},"Û":{"ha":694,"x_min":0,"x_max":0,"o":""},"Ü":{"ha":694,"x_min":0,"x_max":0,"o":""},"Ý":{"ha":694,"x_min":0,"x_max":0,"o":""},"Þ":{"ha":694,"x_min":0,"x_max":0,"o":""},"ß":{"ha":694,"x_min":0,"x_max":0,"o":""},"à":{"ha":694,"x_min":0,"x_max":0,"o":""},"á":{"ha":694,"x_min":0,"x_max":0,"o":""},"â":{"ha":694,"x_min":0,"x_max":0,"o":""},"ã":{"ha":694,"x_min":0,"x_max":0,"o":""},"ä":{"ha":694,"x_min":0,"x_max":0,"o":""},"å":{"ha":694,"x_min":0,"x_max":0,"o":""},"æ":{"ha":694,"x_min":0,"x_max":0,"o":""},"ç":{"ha":694,"x_min":0,"x_max":0,"o":""},"è":{"ha":694,"x_min":0,"x_max":0,"o":""},"é":{"ha":694,"x_min":0,"x_max":0,"o":""},"ê":{"ha":694,"x_min":0,"x_max":0,"o":""},"ë":{"ha":694,"x_min":0,"x_max":0,"o":""},"ì":{"ha":694,"x_min":0,"x_max":0,"o":""},"í":{"ha":694,"x_min":0,"x_max":0,"o":""},"î":{"ha":694,"x_min":0,"x_max":0,"o":""},"ï":{"ha":694,"x_min":0,"x_max":0,"o":""},"ð":{"ha":694,"x_min":0,"x_max":0,"o":""},"ñ":{"ha":694,"x_min":0,"x_max":0,"o":""},"ò":{"ha":694,"x_min":0,"x_max":0,"o":""},"ó":{"ha":694,"x_min":0,"x_max":0,"o":""},"ô":{"ha":694,"x_min":0,"x_max":0,"o":""},"õ":{"ha":694,"x_min":0,"x_max":0,"o":""},"ö":{"ha":694,"x_min":0,"x_max":0,"o":""},"÷":{"ha":1389,"x_min":0,"x_max":0,"o":""},"ø":{"ha":694,"x_min":0,"x_max":0,"o":""},"ù":{"ha":694,"x_min":0,"x_max":0,"o":""},"ú":{"ha":694,"x_min":0,"x_max":0,"o":""},"û":{"ha":694,"x_min":0,"x_max":0,"o":""},"ü":{"ha":694,"x_min":0,"x_max":0,"o":""},"ý":{"ha":694,"x_min":0,"x_max":0,"o":""},"þ":{"ha":694,"x_min":0,"x_max":0,"o":""},"ÿ":{"ha":694,"x_min":0,"x_max":0,"o":""},"Ā":{"ha":694,"x_min":0,"x_max":0,"o":""},"ā":{"ha":694,"x_min":0,"x_max":0,"o":""},"Ă":{"ha":694,"x_min":0,"x_max":0,"o":""},"ă":{"ha":694,"x_min":0,"x_max":0,"o":""},"Ą":{"ha":694,"x_min":0,"x_max":0,"o":""},"ą":{"ha":694,"x_min":0,"x_max":0,"o":""},"Ć":{"ha":694,"x_min":0,"x_max":0,"o":""},"ć":{"ha":694,"x_min":0,"x_max":0,"o":""},"Ĉ":{"ha":694,"x_min":0,"x_max":0,"o":""},"ĉ":{"ha":694,"x_min":0,"x_max":0,"o":""},"Ċ":{"ha":694,"x_min":0,"x_max":0,"o":""},"ċ":{"ha":694,"x_min":0,"x_max":0,"o":""},"Č":{"ha":694,"x_min":0,"x_max":0,"o":""},"č":{"ha":694,"x_min":0,"x_max":0,"o":""},"Ď":{"ha":694,"x_min":0,"x_max":0,"o":""},"ď":{"ha":694,"x_min":0,"x_max":0,"o":""},"Đ":{"ha":694,"x_min":0,"x_max":0,"o":""},"đ":{"ha":694,"x_min":0,"x_max":0,"o":""},"Ē":{"ha":694,"x_min":0,"x_max":0,"o":""},"ē":{"ha":694,"x_min":0,"x_max":0,"o":""},"Ĕ":{"ha":694,"x_min":0,"x_max":0,"o":""},"ĕ":{"ha":694,"x_min":0,"x_max":0,"o":""},"Ė":{"ha":694,"x_min":0,"x_max":0,"o":""},"ė":{"ha":694,"x_min":0,"x_max":0,"o":""},"Ę":{"ha":694,"x_min":0,"x_max":0,"o":""},"ę":{"ha":694,"x_min":0,"x_max":0,"o":""},"Ě":{"ha":694,"x_min":0,"x_max":0,"o":""},"ě":{"ha":694,"x_min":0,"x_max":0,"o":""},"Ĝ":{"ha":694,"x_min":0,"x_max":0,"o":""},"ĝ":{"ha":694,"x_min":0,"x_max":0,"o":""},"Ğ":{"ha":694,"x_min":0,"x_max":0,"o":""},"ğ":{"ha":694,"x_min":0,"x_max":0,"o":""},"Ġ":{"ha":694,"x_min":0,"x_max":0,"o":""},"ġ":{"ha":694,"x_min":0,"x_max":0,"o":""},"Ģ":{"ha":694,"x_min":0,"x_max":0,"o":""},"ģ":{"ha":694,"x_min":0,"x_max":0,"o":""},"Ĥ":{"ha":694,"x_min":0,"x_max":0,"o":""},"ĥ":{"ha":694,"x_min":0,"x_max":0,"o":""},"Ħ":{"ha":694,"x_min":0,"x_max":0,"o":""},"ħ":{"ha":694,"x_min":0,"x_max":0,"o":""},"Ĩ":{"ha":694,"x_min":0,"x_max":0,"o":""},"ĩ":{"ha":694,"x_min":0,"x_max":0,"o":""},"Ī":{"ha":694,"x_min":0,"x_max":0,"o":""},"ī":{"ha":694,"x_min":0,"x_max":0,"o":""},"Ĭ":{"ha":694,"x_min":0,"x_max":0,"o":""},"ĭ":{"ha":694,"x_min":0,"x_max":0,"o":""},"Į":{"ha":694,"x_min":0,"x_max":0,"o":""},"į":{"ha":694,"x_min":0,"x_max":0,"o":""},"İ":{"ha":694,"x_min":0,"x_max":0,"o":""},"ı":{"ha":694,"x_min":0,"x_max":0,"o":""},"Ĳ":{"ha":694,"x_min":0,"x_max":0,"o":""},"ĳ":{"ha":694,"x_min":0,"x_max":0,"o":""},"Ĵ":{"ha":694,"x_min":0,"x_max":0,"o":""},"ĵ":{"ha":694,"x_min":0,"x_max":0,"o":""},"Ķ":{"ha":694,"x_min":0,"x_max":0,"o":""},"ķ":{"ha":694,"x_min":0,"x_max":0,"o":""},"ĸ":{"ha":694,"x_min":0,"x_max":0,"o":""},"Ĺ":{"ha":694,"x_min":0,"x_max":0,"o":""},"ĺ":{"ha":694,"x_min":0,"x_max":0,"o":""},"Ļ":{"ha":694,"x_min":0,"x_max":0,"o":""},"ļ":{"ha":694,"x_min":0,"x_max":0,"o":""},"Ľ":{"ha":694,"x_min":0,"x_max":0,"o":""},"ľ":{"ha":694,"x_min":0,"x_max":0,"o":""},"Ŀ":{"ha":694,"x_min":0,"x_max":0,"o":""},"ŀ":{"ha":694,"x_min":0,"x_max":0,"o":""},"Ł":{"ha":694,"x_min":0,"x_max":0,"o":""},"ł":{"ha":694,"x_min":0,"x_max":0,"o":""},"Ń":{"ha":694,"x_min":0,"x_max":0,"o":""},"ń":{"ha":694,"x_min":0,"x_max":0,"o":""},"Ņ":{"ha":694,"x_min":0,"x_max":0,"o":""},"ņ":{"ha":694,"x_min":0,"x_max":0,"o":""},"Ň":{"ha":694,"x_min":0,"x_max":0,"o":""},"ň":{"ha":694,"x_min":0,"x_max":0,"o":""},"ŉ":{"ha":694,"x_min":0,"x_max":0,"o":""},"Ŋ":{"ha":694,"x_min":0,"x_max":0,"o":""},"ŋ":{"ha":694,"x_min":0,"x_max":0,"o":""},"Ō":{"ha":694,"x_min":0,"x_max":0,"o":""},"ō":{"ha":694,"x_min":0,"x_max":0,"o":""},"Ŏ":{"ha":694,"x_min":0,"x_max":0,"o":""},"ŏ":{"ha":694,"x_min":0,"x_max":0,"o":""},"Ő":{"ha":694,"x_min":0,"x_max":0,"o":""},"ő":{"ha":694,"x_min":0,"x_max":0,"o":""},"Œ":{"ha":694,"x_min":0,"x_max":0,"o":""},"œ":{"ha":694,"x_min":0,"x_max":0,"o":""},"Ŕ":{"ha":694,"x_min":0,"x_max":0,"o":""},"ŕ":{"ha":694,"x_min":0,"x_max":0,"o":""},"Ŗ":{"ha":694,"x_min":0,"x_max":0,"o":""},"ŗ":{"ha":694,"x_min":0,"x_max":0,"o":""},"Ř":{"ha":694,"x_min":0,"x_max":0,"o":""},"ř":{"ha":694,"x_min":0,"x_max":0,"o":""},"Ś":{"ha":694,"x_min":0,"x_max":0,"o":""},"ś":{"ha":694,"x_min":0,"x_max":0,"o":""},"Ŝ":{"ha":694,"x_min":0,"x_max":0,"o":""},"ŝ":{"ha":694,"x_min":0,"x_max":0,"o":""},"Ş":{"ha":694,"x_min":0,"x_max":0,"o":""},"ş":{"ha":694,"x_min":0,"x_max":0,"o":""},"Š":{"ha":694,"x_min":0,"x_max":0,"o":""},"š":{"ha":694,"x_min":0,"x_max":0,"o":""},"Ţ":{"ha":694,"x_min":0,"x_max":0,"o":""},"ţ":{"ha":694,"x_min":0,"x_max":0,"o":""},"Ť":{"ha":694,"x_min":0,"x_max":0,"o":""},"ť":{"ha":694,"x_min":0,"x_max":0,"o":""},"Ŧ":{"ha":694,"x_min":0,"x_max":0,"o":""},"ŧ":{"ha":694,"x_min":0,"x_max":0,"o":""},"Ũ":{"ha":694,"x_min":0,"x_max":0,"o":""},"ũ":{"ha":694,"x_min":0,"x_max":0,"o":""},"Ū":{"ha":694,"x_min":0,"x_max":0,"o":""},"ū":{"ha":694,"x_min":0,"x_max":0,"o":""},"Ŭ":{"ha":694,"x_min":0,"x_max":0,"o":""},"ŭ":{"ha":694,"x_min":0,"x_max":0,"o":""},"Ů":{"ha":694,"x_min":0,"x_max":0,"o":""},"ů":{"ha":694,"x_min":0,"x_max":0,"o":""},"Ű":{"ha":694,"x_min":0,"x_max":0,"o":""},"ű":{"ha":694,"x_min":0,"x_max":0,"o":""},"Ų":{"ha":694,"x_min":0,"x_max":0,"o":""},"ų":{"ha":694,"x_min":0,"x_max":0,"o":""},"Ŵ":{"ha":694,"x_min":0,"x_max":0,"o":""},"ŵ":{"ha":694,"x_min":0,"x_max":0,"o":""},"Ŷ":{"ha":694,"x_min":0,"x_max":0,"o":""},"ŷ":{"ha":694,"x_min":0,"x_max":0,"o":""},"Ÿ":{"ha":694,"x_min":0,"x_max":0,"o":""},"Ź":{"ha":694,"x_min":0,"x_max":0,"o":""},"ź":{"ha":694,"x_min":0,"x_max":0,"o":""},"Ż":{"ha":694,"x_min":0,"x_max":0,"o":""},"ż":{"ha":694,"x_min":0,"x_max":0,"o":""},"Ž":{"ha":694,"x_min":0,"x_max":0,"o":""},"ž":{"ha":694,"x_min":0,"x_max":0,"o":""},"ſ":{"ha":694,"x_min":0,"x_max":0,"o":""},"ƒ":{"ha":694,"x_min":0,"x_max":0,"o":""},"Ɠ":{"ha":694,"x_min":0,"x_max":0,"o":""},"ǂ":{"ha":694,"x_min":0,"x_max":0,"o":""},"Ǎ":{"ha":1389,"x_min":0,"x_max":0,"o":""},"ǎ":{"ha":1389,"x_min":0,"x_max":0,"o":""},"Ǐ":{"ha":1389,"x_min":0,"x_max":0,"o":""},"ǐ":{"ha":1389,"x_min":0,"x_max":0,"o":""},"Ǒ":{"ha":1389,"x_min":0,"x_max":0,"o":""},"ǒ":{"ha":1389,"x_min":0,"x_max":0,"o":""},"Ǔ":{"ha":1389,"x_min":0,"x_max":0,"o":""},"ǔ":{"ha":1389,"x_min":0,"x_max":0,"o":""},"Ǖ":{"ha":1389,"x_min":0,"x_max":0,"o":""},"ǖ":{"ha":1389,"x_min":0,"x_max":0,"o":""},"Ǘ":{"ha":1389,"x_min":0,"x_max":0,"o":""},"ǘ":{"ha":1389,"x_min":0,"x_max":0,"o":""},"Ǚ":{"ha":1389,"x_min":0,"x_max":0,"o":""},"ǚ":{"ha":1389,"x_min":0,"x_max":0,"o":""},"Ǜ":{"ha":1389,"x_min":0,"x_max":0,"o":""},"ǜ":{"ha":1389,"x_min":0,"x_max":0,"o":""},"ǵ":{"ha":1389,"x_min":0,"x_max":0,"o":""},"Ǹ":{"ha":694,"x_min":0,"x_max":0,"o":""},"ǹ":{"ha":694,"x_min":0,"x_max":0,"o":""},"Ǻ":{"ha":694,"x_min":0,"x_max":0,"o":""},"ǻ":{"ha":694,"x_min":0,"x_max":0,"o":""},"Ǽ":{"ha":694,"x_min":0,"x_max":0,"o":""},"ǽ":{"ha":694,"x_min":0,"x_max":0,"o":""},"Ǿ":{"ha":694,"x_min":0,"x_max":0,"o":""},"ǿ":{"ha":694,"x_min":0,"x_max":0,"o":""},"ɐ":{"ha":694,"x_min":0,"x_max":0,"o":""},"ɑ":{"ha":694,"x_min":0,"x_max":0,"o":""},"ɒ":{"ha":694,"x_min":0,"x_max":0,"o":""},"ɓ":{"ha":694,"x_min":0,"x_max":0,"o":""},"ɔ":{"ha":694,"x_min":0,"x_max":0,"o":""},"ɕ":{"ha":694,"x_min":0,"x_max":0,"o":""},"ɖ":{"ha":694,"x_min":0,"x_max":0,"o":""},"ɗ":{"ha":694,"x_min":0,"x_max":0,"o":""},"ɘ":{"ha":694,"x_min":0,"x_max":0,"o":""},"ə":{"ha":694,"x_min":0,"x_max":0,"o":""},"ɚ":{"ha":694,"x_min":0,"x_max":0,"o":""},"ɛ":{"ha":694,"x_min":0,"x_max":0,"o":""},"ɜ":{"ha":694,"x_min":0,"x_max":0,"o":""},"ɝ":{"ha":694,"x_min":0,"x_max":0,"o":""},"ɞ":{"ha":694,"x_min":0,"x_max":0,"o":""},"ɟ":{"ha":694,"x_min":0,"x_max":0,"o":""},"ɠ":{"ha":694,"x_min":0,"x_max":0,"o":""},"ɡ":{"ha":694,"x_min":0,"x_max":0,"o":""},"ɢ":{"ha":694,"x_min":0,"x_max":0,"o":""},"ɣ":{"ha":694,"x_min":0,"x_max":0,"o":""},"ɤ":{"ha":694,"x_min":0,"x_max":0,"o":""},"ɥ":{"ha":694,"x_min":0,"x_max":0,"o":""},"ɦ":{"ha":694,"x_min":0,"x_max":0,"o":""},"ɧ":{"ha":694,"x_min":0,"x_max":0,"o":""},"ɨ":{"ha":694,"x_min":0,"x_max":0,"o":""},"ɩ":{"ha":694,"x_min":0,"x_max":0,"o":""},"ɪ":{"ha":694,"x_min":0,"x_max":0,"o":""},"ɫ":{"ha":694,"x_min":0,"x_max":0,"o":""},"ɬ":{"ha":694,"x_min":0,"x_max":0,"o":""},"ɭ":{"ha":694,"x_min":0,"x_max":0,"o":""},"ɮ":{"ha":694,"x_min":0,"x_max":0,"o":""},"ɯ":{"ha":694,"x_min":0,"x_max":0,"o":""},"ɰ":{"ha":694,"x_min":0,"x_max":0,"o":""},"ɱ":{"ha":694,"x_min":0,"x_max":0,"o":""},"ɲ":{"ha":694,"x_min":0,"x_max":0,"o":""},"ɳ":{"ha":694,"x_min":0,"x_max":0,"o":""},"ɴ":{"ha":694,"x_min":0,"x_max":0,"o":""},"ɵ":{"ha":694,"x_min":0,"x_max":0,"o":""},"ɶ":{"ha":694,"x_min":0,"x_max":0,"o":""},"ɷ":{"ha":694,"x_min":0,"x_max":0,"o":""},"ɸ":{"ha":694,"x_min":0,"x_max":0,"o":""},"ɹ":{"ha":694,"x_min":0,"x_max":0,"o":""},"ɺ":{"ha":694,"x_min":0,"x_max":0,"o":""},"ɻ":{"ha":694,"x_min":0,"x_max":0,"o":""},"ɼ":{"ha":694,"x_min":0,"x_max":0,"o":""},"ɽ":{"ha":694,"x_min":0,"x_max":0,"o":""},"ɾ":{"ha":694,"x_min":0,"x_max":0,"o":""},"ɿ":{"ha":694,"x_min":0,"x_max":0,"o":""},"ʀ":{"ha":694,"x_min":0,"x_max":0,"o":""},"ʁ":{"ha":694,"x_min":0,"x_max":0,"o":""},"ʂ":{"ha":694,"x_min":0,"x_max":0,"o":""},"ʃ":{"ha":694,"x_min":0,"x_max":0,"o":""},"ʄ":{"ha":694,"x_min":0,"x_max":0,"o":""},"ʅ":{"ha":694,"x_min":0,"x_max":0,"o":""},"ʆ":{"ha":694,"x_min":0,"x_max":0,"o":""},"ʇ":{"ha":694,"x_min":0,"x_max":0,"o":""},"ʈ":{"ha":694,"x_min":0,"x_max":0,"o":""},"ʉ":{"ha":694,"x_min":0,"x_max":0,"o":""},"ʊ":{"ha":694,"x_min":0,"x_max":0,"o":""},"ʋ":{"ha":694,"x_min":0,"x_max":0,"o":""},"ʌ":{"ha":694,"x_min":0,"x_max":0,"o":""},"ʍ":{"ha":694,"x_min":0,"x_max":0,"o":""},"ʎ":{"ha":694,"x_min":0,"x_max":0,"o":""},"ʏ":{"ha":694,"x_min":0,"x_max":0,"o":""},"ʐ":{"ha":694,"x_min":0,"x_max":0,"o":""},"ʑ":{"ha":694,"x_min":0,"x_max":0,"o":""},"ʒ":{"ha":694,"x_min":0,"x_max":0,"o":""},"ʓ":{"ha":694,"x_min":0,"x_max":0,"o":""},"ʔ":{"ha":694,"x_min":0,"x_max":0,"o":""},"ʕ":{"ha":694,"x_min":0,"x_max":0,"o":""},"ʖ":{"ha":694,"x_min":0,"x_max":0,"o":""},"ʗ":{"ha":694,"x_min":0,"x_max":0,"o":""},"ʘ":{"ha":694,"x_min":0,"x_max":0,"o":""},"ʙ":{"ha":694,"x_min":0,"x_max":0,"o":""},"ʚ":{"ha":694,"x_min":0,"x_max":0,"o":""},"ʛ":{"ha":694,"x_min":0,"x_max":0,"o":""},"ʜ":{"ha":694,"x_min":0,"x_max":0,"o":""},"ʝ":{"ha":694,"x_min":0,"x_max":0,"o":""},"ʞ":{"ha":694,"x_min":0,"x_max":0,"o":""},"ʟ":{"ha":694,"x_min":0,"x_max":0,"o":""},"ʠ":{"ha":694,"x_min":0,"x_max":0,"o":""},"ʡ":{"ha":694,"x_min":0,"x_max":0,"o":""},"ʢ":{"ha":694,"x_min":0,"x_max":0,"o":""},"ʣ":{"ha":694,"x_min":0,"x_max":0,"o":""},"ʤ":{"ha":694,"x_min":0,"x_max":0,"o":""},"ʥ":{"ha":694,"x_min":0,"x_max":0,"o":""},"ʦ":{"ha":694,"x_min":0,"x_max":0,"o":""},"ʧ":{"ha":694,"x_min":0,"x_max":0,"o":""},"ʨ":{"ha":694,"x_min":0,"x_max":0,"o":""},"ˆ":{"ha":694,"x_min":0,"x_max":0,"o":""},"ˇ":{"ha":694,"x_min":0,"x_max":0,"o":""},"ˈ":{"ha":694,"x_min":0,"x_max":0,"o":""},"ˉ":{"ha":694,"x_min":0,"x_max":0,"o":""},"ˌ":{"ha":694,"x_min":0,"x_max":0,"o":""},"ː":{"ha":694,"x_min":0,"x_max":0,"o":""},"ˑ":{"ha":694,"x_min":0,"x_max":0,"o":""},"˘":{"ha":694,"x_min":0,"x_max":0,"o":""},"˙":{"ha":694,"x_min":0,"x_max":0,"o":""},"˚":{"ha":694,"x_min":0,"x_max":0,"o":""},"˛":{"ha":694,"x_min":0,"x_max":0,"o":""},"˜":{"ha":694,"x_min":0,"x_max":0,"o":""},"˝":{"ha":694,"x_min":0,"x_max":0,"o":""},"˞":{"ha":694,"x_min":0,"x_max":0,"o":""},"˥":{"ha":694,"x_min":0,"x_max":0,"o":""},"˦":{"ha":694,"x_min":0,"x_max":0,"o":""},"˧":{"ha":694,"x_min":0,"x_max":0,"o":""},"˨":{"ha":694,"x_min":0,"x_max":0,"o":""},"˩":{"ha":694,"x_min":0,"x_max":0,"o":""},"̀":{"ha":694,"x_min":0,"x_max":0,"o":""},"́":{"ha":694,"x_min":0,"x_max":0,"o":""},"̂":{"ha":694,"x_min":0,"x_max":0,"o":""},"̃":{"ha":694,"x_min":0,"x_max":0,"o":""},"̄":{"ha":694,"x_min":0,"x_max":0,"o":""},"̆":{"ha":694,"x_min":0,"x_max":0,"o":""},"̈":{"ha":694,"x_min":0,"x_max":0,"o":""},"̋":{"ha":694,"x_min":0,"x_max":0,"o":""},"̌":{"ha":694,"x_min":0,"x_max":0,"o":""},"̏":{"ha":694,"x_min":0,"x_max":0,"o":""},"̘":{"ha":694,"x_min":0,"x_max":0,"o":""},"̙":{"ha":694,"x_min":0,"x_max":0,"o":""},"̚":{"ha":694,"x_min":0,"x_max":0,"o":""},"̜":{"ha":694,"x_min":0,"x_max":0,"o":""},"̝":{"ha":694,"x_min":0,"x_max":0,"o":""},"̞":{"ha":694,"x_min":0,"x_max":0,"o":""},"̟":{"ha":694,"x_min":0,"x_max":0,"o":""},"̠":{"ha":694,"x_min":0,"x_max":0,"o":""},"̤":{"ha":694,"x_min":0,"x_max":0,"o":""},"̥":{"ha":694,"x_min":0,"x_max":0,"o":""},"̩":{"ha":694,"x_min":0,"x_max":0,"o":""},"̪":{"ha":694,"x_min":0,"x_max":0,"o":""},"̬":{"ha":694,"x_min":0,"x_max":0,"o":""},"̯":{"ha":694,"x_min":0,"x_max":0,"o":""},"̰":{"ha":694,"x_min":0,"x_max":0,"o":""},"̴":{"ha":694,"x_min":0,"x_max":0,"o":""},"̹":{"ha":694,"x_min":0,"x_max":0,"o":""},"̺":{"ha":694,"x_min":0,"x_max":0,"o":""},"̻":{"ha":694,"x_min":0,"x_max":0,"o":""},"̼":{"ha":694,"x_min":0,"x_max":0,"o":""},"̽":{"ha":694,"x_min":0,"x_max":0,"o":""},"͡":{"ha":694,"x_min":0,"x_max":0,"o":""},"ʹ":{"ha":694,"x_min":0,"x_max":0,"o":""},"͵":{"ha":694,"x_min":0,"x_max":0,"o":""},"ͺ":{"ha":694,"x_min":0,"x_max":0,"o":""},";":{"ha":694,"x_min":0,"x_max":0,"o":""},"΄":{"ha":694,"x_min":0,"x_max":0,"o":""},"΅":{"ha":694,"x_min":0,"x_max":0,"o":""},"Ά":{"ha":694,"x_min":0,"x_max":0,"o":""},"·":{"ha":694,"x_min":0,"x_max":0,"o":""},"Έ":{"ha":694,"x_min":0,"x_max":0,"o":""},"Ή":{"ha":694,"x_min":0,"x_max":0,"o":""},"Ί":{"ha":694,"x_min":0,"x_max":0,"o":""},"Ό":{"ha":694,"x_min":0,"x_max":0,"o":""},"Ύ":{"ha":694,"x_min":0,"x_max":0,"o":""},"Ώ":{"ha":694,"x_min":0,"x_max":0,"o":""},"ΐ":{"ha":694,"x_min":0,"x_max":0,"o":""},"Α":{"ha":1389,"x_min":0,"x_max":0,"o":""},"Β":{"ha":1389,"x_min":0,"x_max":0,"o":""},"Γ":{"ha":1389,"x_min":0,"x_max":0,"o":""},"Δ":{"ha":1389,"x_min":0,"x_max":0,"o":""},"Ε":{"ha":1389,"x_min":0,"x_max":0,"o":""},"Ζ":{"ha":1389,"x_min":0,"x_max":0,"o":""},"Η":{"ha":1389,"x_min":0,"x_max":0,"o":""},"Θ":{"ha":1389,"x_min":0,"x_max":0,"o":""},"Ι":{"ha":1389,"x_min":0,"x_max":0,"o":""},"Κ":{"ha":1389,"x_min":0,"x_max":0,"o":""},"Λ":{"ha":1389,"x_min":0,"x_max":0,"o":""},"Μ":{"ha":1389,"x_min":0,"x_max":0,"o":""},"Ν":{"ha":1389,"x_min":0,"x_max":0,"o":""},"Ξ":{"ha":1389,"x_min":0,"x_max":0,"o":""},"Ο":{"ha":1389,"x_min":0,"x_max":0,"o":""},"Π":{"ha":1389,"x_min":0,"x_max":0,"o":""},"Ρ":{"ha":1389,"x_min":0,"x_max":0,"o":""},"Σ":{"ha":1389,"x_min":0,"x_max":0,"o":""},"Τ":{"ha":1389,"x_min":0,"x_max":0,"o":""},"Υ":{"ha":1389,"x_min":0,"x_max":0,"o":""},"Φ":{"ha":1389,"x_min":0,"x_max":0,"o":""},"Χ":{"ha":1389,"x_min":0,"x_max":0,"o":""},"Ψ":{"ha":1389,"x_min":0,"x_max":0,"o":""},"Ω":{"ha":1389,"x_min":0,"x_max":0,"o":""},"Ϊ":{"ha":694,"x_min":0,"x_max":0,"o":""},"Ϋ":{"ha":694,"x_min":0,"x_max":0,"o":""},"ά":{"ha":694,"x_min":0,"x_max":0,"o":""},"έ":{"ha":694,"x_min":0,"x_max":0,"o":""},"ή":{"ha":694,"x_min":0,"x_max":0,"o":""},"ί":{"ha":694,"x_min":0,"x_max":0,"o":""},"ΰ":{"ha":694,"x_min":0,"x_max":0,"o":""},"α":{"ha":1389,"x_min":0,"x_max":0,"o":""},"β":{"ha":1389,"x_min":0,"x_max":0,"o":""},"γ":{"ha":1389,"x_min":0,"x_max":0,"o":""},"δ":{"ha":1389,"x_min":0,"x_max":0,"o":""},"ε":{"ha":1389,"x_min":0,"x_max":0,"o":""},"ζ":{"ha":1389,"x_min":0,"x_max":0,"o":""},"η":{"ha":1389,"x_min":0,"x_max":0,"o":""},"θ":{"ha":1389,"x_min":0,"x_max":0,"o":""},"ι":{"ha":1389,"x_min":0,"x_max":0,"o":""},"κ":{"ha":1389,"x_min":0,"x_max":0,"o":""},"λ":{"ha":1389,"x_min":0,"x_max":0,"o":""},"μ":{"ha":1389,"x_min":0,"x_max":0,"o":""},"ν":{"ha":1389,"x_min":0,"x_max":0,"o":""},"ξ":{"ha":1389,"x_min":0,"x_max":0,"o":""},"ο":{"ha":1389,"x_min":0,"x_max":0,"o":""},"π":{"ha":1389,"x_min":0,"x_max":0,"o":""},"ρ":{"ha":1389,"x_min":0,"x_max":0,"o":""},"ς":{"ha":694,"x_min":0,"x_max":0,"o":""},"σ":{"ha":1389,"x_min":0,"x_max":0,"o":""},"τ":{"ha":1389,"x_min":0,"x_max":0,"o":""},"υ":{"ha":1389,"x_min":0,"x_max":0,"o":""},"φ":{"ha":1389,"x_min":0,"x_max":0,"o":""},"χ":{"ha":1389,"x_min":0,"x_max":0,"o":""},"ψ":{"ha":1389,"x_min":0,"x_max":0,"o":""},"ω":{"ha":1389,"x_min":0,"x_max":0,"o":""},"ϊ":{"ha":694,"x_min":0,"x_max":0,"o":""},"ϋ":{"ha":694,"x_min":0,"x_max":0,"o":""},"ό":{"ha":694,"x_min":0,"x_max":0,"o":""},"ύ":{"ha":694,"x_min":0,"x_max":0,"o":""},"ώ":{"ha":694,"x_min":0,"x_max":0,"o":""},"Ё":{"ha":1389,"x_min":0,"x_max":0,"o":""},"Ђ":{"ha":694,"x_min":0,"x_max":0,"o":""},"Ѓ":{"ha":694,"x_min":0,"x_max":0,"o":""},"Є":{"ha":694,"x_min":0,"x_max":0,"o":""},"Ѕ":{"ha":694,"x_min":0,"x_max":0,"o":""},"І":{"ha":694,"x_min":0,"x_max":0,"o":""},"Ї":{"ha":694,"x_min":0,"x_max":0,"o":""},"Ј":{"ha":694,"x_min":0,"x_max":0,"o":""},"Љ":{"ha":694,"x_min":0,"x_max":0,"o":""},"Њ":{"ha":694,"x_min":0,"x_max":0,"o":""},"Ћ":{"ha":694,"x_min":0,"x_max":0,"o":""},"Ќ":{"ha":694,"x_min":0,"x_max":0,"o":""},"Ў":{"ha":694,"x_min":0,"x_max":0,"o":""},"Џ":{"ha":694,"x_min":0,"x_max":0,"o":""},"А":{"ha":1389,"x_min":0,"x_max":0,"o":""},"Б":{"ha":1389,"x_min":0,"x_max":0,"o":""},"В":{"ha":1389,"x_min":0,"x_max":0,"o":""},"Г":{"ha":1389,"x_min":0,"x_max":0,"o":""},"Д":{"ha":1389,"x_min":0,"x_max":0,"o":""},"Е":{"ha":1389,"x_min":0,"x_max":0,"o":""},"Ж":{"ha":1389,"x_min":0,"x_max":0,"o":""},"З":{"ha":1389,"x_min":0,"x_max":0,"o":""},"И":{"ha":1389,"x_min":0,"x_max":0,"o":""},"Й":{"ha":1389,"x_min":0,"x_max":0,"o":""},"К":{"ha":1389,"x_min":0,"x_max":0,"o":""},"Л":{"ha":1389,"x_min":0,"x_max":0,"o":""},"М":{"ha":1389,"x_min":0,"x_max":0,"o":""},"Н":{"ha":1389,"x_min":0,"x_max":0,"o":""},"О":{"ha":1389,"x_min":0,"x_max":0,"o":""},"П":{"ha":1389,"x_min":0,"x_max":0,"o":""},"Р":{"ha":1389,"x_min":0,"x_max":0,"o":""},"С":{"ha":1389,"x_min":0,"x_max":0,"o":""},"Т":{"ha":1389,"x_min":0,"x_max":0,"o":""},"У":{"ha":1389,"x_min":0,"x_max":0,"o":""},"Ф":{"ha":1389,"x_min":0,"x_max":0,"o":""},"Х":{"ha":1389,"x_min":0,"x_max":0,"o":""},"Ц":{"ha":1389,"x_min":0,"x_max":0,"o":""},"Ч":{"ha":1389,"x_min":0,"x_max":0,"o":""},"Ш":{"ha":1389,"x_min":0,"x_max":0,"o":""},"Щ":{"ha":1389,"x_min":0,"x_max":0,"o":""},"Ъ":{"ha":1389,"x_min":0,"x_max":0,"o":""},"Ы":{"ha":1389,"x_min":0,"x_max":0,"o":""},"Ь":{"ha":1389,"x_min":0,"x_max":0,"o":""},"Э":{"ha":1389,"x_min":0,"x_max":0,"o":""},"Ю":{"ha":1389,"x_min":0,"x_max":0,"o":""},"Я":{"ha":1389,"x_min":0,"x_max":0,"o":""},"а":{"ha":1389,"x_min":0,"x_max":0,"o":""},"б":{"ha":1389,"x_min":0,"x_max":0,"o":""},"в":{"ha":1389,"x_min":0,"x_max":0,"o":""},"г":{"ha":1389,"x_min":0,"x_max":0,"o":""},"д":{"ha":1389,"x_min":0,"x_max":0,"o":""},"е":{"ha":1389,"x_min":0,"x_max":0,"o":""},"ж":{"ha":1389,"x_min":0,"x_max":0,"o":""},"з":{"ha":1389,"x_min":0,"x_max":0,"o":""},"и":{"ha":1389,"x_min":0,"x_max":0,"o":""},"й":{"ha":1389,"x_min":0,"x_max":0,"o":""},"к":{"ha":1389,"x_min":0,"x_max":0,"o":""},"л":{"ha":1389,"x_min":0,"x_max":0,"o":""},"м":{"ha":1389,"x_min":0,"x_max":0,"o":""},"н":{"ha":1389,"x_min":0,"x_max":0,"o":""},"о":{"ha":1389,"x_min":0,"x_max":0,"o":""},"п":{"ha":1389,"x_min":0,"x_max":0,"o":""},"р":{"ha":1389,"x_min":0,"x_max":0,"o":""},"с":{"ha":1389,"x_min":0,"x_max":0,"o":""},"т":{"ha":1389,"x_min":0,"x_max":0,"o":""},"у":{"ha":1389,"x_min":0,"x_max":0,"o":""},"ф":{"ha":1389,"x_min":0,"x_max":0,"o":""},"х":{"ha":1389,"x_min":0,"x_max":0,"o":""},"ц":{"ha":1389,"x_min":0,"x_max":0,"o":""},"ч":{"ha":1389,"x_min":0,"x_max":0,"o":""},"ш":{"ha":1389,"x_min":0,"x_max":0,"o":""},"щ":{"ha":1389,"x_min":0,"x_max":0,"o":""},"ъ":{"ha":1389,"x_min":0,"x_max":0,"o":""},"ы":{"ha":1389,"x_min":0,"x_max":0,"o":""},"ь":{"ha":1389,"x_min":0,"x_max":0,"o":""},"э":{"ha":1389,"x_min":0,"x_max":0,"o":""},"ю":{"ha":1389,"x_min":0,"x_max":0,"o":""},"я":{"ha":1389,"x_min":0,"x_max":0,"o":""},"ё":{"ha":1389,"x_min":0,"x_max":0,"o":""},"ђ":{"ha":694,"x_min":0,"x_max":0,"o":""},"ѓ":{"ha":694,"x_min":0,"x_max":0,"o":""},"є":{"ha":694,"x_min":0,"x_max":0,"o":""},"ѕ":{"ha":694,"x_min":0,"x_max":0,"o":""},"і":{"ha":694,"x_min":0,"x_max":0,"o":""},"ї":{"ha":694,"x_min":0,"x_max":0,"o":""},"ј":{"ha":694,"x_min":0,"x_max":0,"o":""},"љ":{"ha":694,"x_min":0,"x_max":0,"o":""},"њ":{"ha":694,"x_min":0,"x_max":0,"o":""},"ћ":{"ha":694,"x_min":0,"x_max":0,"o":""},"ќ":{"ha":694,"x_min":0,"x_max":0,"o":""},"ў":{"ha":694,"x_min":0,"x_max":0,"o":""},"џ":{"ha":694,"x_min":0,"x_max":0,"o":""},"Ѡ":{"ha":694,"x_min":0,"x_max":0,"o":""},"ѡ":{"ha":694,"x_min":0,"x_max":0,"o":""},"Ѣ":{"ha":694,"x_min":0,"x_max":0,"o":""},"ѣ":{"ha":694,"x_min":0,"x_max":0,"o":""},"Ѥ":{"ha":694,"x_min":0,"x_max":0,"o":""},"ѥ":{"ha":694,"x_min":0,"x_max":0,"o":""},"Ѧ":{"ha":694,"x_min":0,"x_max":0,"o":""},"ѧ":{"ha":694,"x_min":0,"x_max":0,"o":""},"Ѩ":{"ha":694,"x_min":0,"x_max":0,"o":""},"ѩ":{"ha":694,"x_min":0,"x_max":0,"o":""},"Ѫ":{"ha":694,"x_min":0,"x_max":0,"o":""},"ѫ":{"ha":694,"x_min":0,"x_max":0,"o":""},"Ѭ":{"ha":694,"x_min":0,"x_max":0,"o":""},"ѭ":{"ha":694,"x_min":0,"x_max":0,"o":""},"Ѯ":{"ha":694,"x_min":0,"x_max":0,"o":""},"ѯ":{"ha":694,"x_min":0,"x_max":0,"o":""},"Ѱ":{"ha":694,"x_min":0,"x_max":0,"o":""},"ѱ":{"ha":694,"x_min":0,"x_max":0,"o":""},"Ѳ":{"ha":694,"x_min":0,"x_max":0,"o":""},"ѳ":{"ha":694,"x_min":0,"x_max":0,"o":""},"Ѵ":{"ha":694,"x_min":0,"x_max":0,"o":""},"ѵ":{"ha":694,"x_min":0,"x_max":0,"o":""},"Ѷ":{"ha":694,"x_min":0,"x_max":0,"o":""},"ѷ":{"ha":694,"x_min":0,"x_max":0,"o":""},"Ѹ":{"ha":694,"x_min":0,"x_max":0,"o":""},"ѹ":{"ha":694,"x_min":0,"x_max":0,"o":""},"Ѻ":{"ha":694,"x_min":0,"x_max":0,"o":""},"ѻ":{"ha":694,"x_min":0,"x_max":0,"o":""},"Ѽ":{"ha":694,"x_min":0,"x_max":0,"o":""},"ѽ":{"ha":694,"x_min":0,"x_max":0,"o":""},"Ѿ":{"ha":694,"x_min":0,"x_max":0,"o":""},"ѿ":{"ha":694,"x_min":0,"x_max":0,"o":""},"Ҁ":{"ha":694,"x_min":0,"x_max":0,"o":""},"ҁ":{"ha":694,"x_min":0,"x_max":0,"o":""},"҂":{"ha":694,"x_min":0,"x_max":0,"o":""},"҃":{"ha":694,"x_min":0,"x_max":0,"o":""},"҄":{"ha":694,"x_min":0,"x_max":0,"o":""},"҅":{"ha":694,"x_min":0,"x_max":0,"o":""},"҆":{"ha":694,"x_min":0,"x_max":0,"o":""},"Ґ":{"ha":694,"x_min":0,"x_max":0,"o":""},"ґ":{"ha":694,"x_min":0,"x_max":0,"o":""},"Ғ":{"ha":694,"x_min":0,"x_max":0,"o":""},"ғ":{"ha":694,"x_min":0,"x_max":0,"o":""},"Ҕ":{"ha":694,"x_min":0,"x_max":0,"o":""},"ҕ":{"ha":694,"x_min":0,"x_max":0,"o":""},"Җ":{"ha":694,"x_min":0,"x_max":0,"o":""},"җ":{"ha":694,"x_min":0,"x_max":0,"o":""},"Ҙ":{"ha":694,"x_min":0,"x_max":0,"o":""},"ҙ":{"ha":694,"x_min":0,"x_max":0,"o":""},"Қ":{"ha":694,"x_min":0,"x_max":0,"o":""},"қ":{"ha":694,"x_min":0,"x_max":0,"o":""},"Ҝ":{"ha":694,"x_min":0,"x_max":0,"o":""},"ҝ":{"ha":694,"x_min":0,"x_max":0,"o":""},"Ҟ":{"ha":694,"x_min":0,"x_max":0,"o":""},"ҟ":{"ha":694,"x_min":0,"x_max":0,"o":""},"Ҡ":{"ha":694,"x_min":0,"x_max":0,"o":""},"ҡ":{"ha":694,"x_min":0,"x_max":0,"o":""},"Ң":{"ha":694,"x_min":0,"x_max":0,"o":""},"ң":{"ha":694,"x_min":0,"x_max":0,"o":""},"Ҥ":{"ha":694,"x_min":0,"x_max":0,"o":""},"ҥ":{"ha":694,"x_min":0,"x_max":0,"o":""},"Ҧ":{"ha":694,"x_min":0,"x_max":0,"o":""},"ҧ":{"ha":694,"x_min":0,"x_max":0,"o":""},"Ҩ":{"ha":694,"x_min":0,"x_max":0,"o":""},"ҩ":{"ha":694,"x_min":0,"x_max":0,"o":""},"Ҫ":{"ha":694,"x_min":0,"x_max":0,"o":""},"ҫ":{"ha":694,"x_min":0,"x_max":0,"o":""},"Ҭ":{"ha":694,"x_min":0,"x_max":0,"o":""},"ҭ":{"ha":694,"x_min":0,"x_max":0,"o":""},"Ү":{"ha":694,"x_min":0,"x_max":0,"o":""},"ү":{"ha":694,"x_min":0,"x_max":0,"o":""},"Ұ":{"ha":694,"x_min":0,"x_max":0,"o":""},"ұ":{"ha":694,"x_min":0,"x_max":0,"o":""},"Ҳ":{"ha":694,"x_min":0,"x_max":0,"o":""},"ҳ":{"ha":694,"x_min":0,"x_max":0,"o":""},"Ҵ":{"ha":694,"x_min":0,"x_max":0,"o":""},"ҵ":{"ha":694,"x_min":0,"x_max":0,"o":""},"Ҷ":{"ha":694,"x_min":0,"x_max":0,"o":""},"ҷ":{"ha":694,"x_min":0,"x_max":0,"o":""},"Ҹ":{"ha":694,"x_min":0,"x_max":0,"o":""},"ҹ":{"ha":694,"x_min":0,"x_max":0,"o":""},"Һ":{"ha":694,"x_min":0,"x_max":0,"o":""},"һ":{"ha":694,"x_min":0,"x_max":0,"o":""},"Ҽ":{"ha":694,"x_min":0,"x_max":0,"o":""},"ҽ":{"ha":694,"x_min":0,"x_max":0,"o":""},"Ҿ":{"ha":694,"x_min":0,"x_max":0,"o":""},"ҿ":{"ha":694,"x_min":0,"x_max":0,"o":""},"Ӏ":{"ha":694,"x_min":0,"x_max":0,"o":""},"Ӂ":{"ha":694,"x_min":0,"x_max":0,"o":""},"ӂ":{"ha":694,"x_min":0,"x_max":0,"o":""},"Ӄ":{"ha":694,"x_min":0,"x_max":0,"o":""},"ӄ":{"ha":694,"x_min":0,"x_max":0,"o":""},"Ӈ":{"ha":694,"x_min":0,"x_max":0,"o":""},"ӈ":{"ha":694,"x_min":0,"x_max":0,"o":""},"Ӌ":{"ha":694,"x_min":0,"x_max":0,"o":""},"ӌ":{"ha":694,"x_min":0,"x_max":0,"o":""},"Ӑ":{"ha":694,"x_min":0,"x_max":0,"o":""},"ӑ":{"ha":694,"x_min":0,"x_max":0,"o":""},"Ӓ":{"ha":694,"x_min":0,"x_max":0,"o":""},"ӓ":{"ha":694,"x_min":0,"x_max":0,"o":""},"Ӕ":{"ha":694,"x_min":0,"x_max":0,"o":""},"ӕ":{"ha":694,"x_min":0,"x_max":0,"o":""},"Ӗ":{"ha":694,"x_min":0,"x_max":0,"o":""},"ӗ":{"ha":694,"x_min":0,"x_max":0,"o":""},"Ә":{"ha":694,"x_min":0,"x_max":0,"o":""},"ә":{"ha":694,"x_min":0,"x_max":0,"o":""},"Ӛ":{"ha":694,"x_min":0,"x_max":0,"o":""},"ӛ":{"ha":694,"x_min":0,"x_max":0,"o":""},"Ӝ":{"ha":694,"x_min":0,"x_max":0,"o":""},"ӝ":{"ha":694,"x_min":0,"x_max":0,"o":""},"Ӟ":{"ha":694,"x_min":0,"x_max":0,"o":""},"ӟ":{"ha":694,"x_min":0,"x_max":0,"o":""},"Ӡ":{"ha":694,"x_min":0,"x_max":0,"o":""},"ӡ":{"ha":694,"x_min":0,"x_max":0,"o":""},"Ӣ":{"ha":694,"x_min":0,"x_max":0,"o":""},"ӣ":{"ha":694,"x_min":0,"x_max":0,"o":""},"Ӥ":{"ha":694,"x_min":0,"x_max":0,"o":""},"ӥ":{"ha":694,"x_min":0,"x_max":0,"o":""},"Ӧ":{"ha":694,"x_min":0,"x_max":0,"o":""},"ӧ":{"ha":694,"x_min":0,"x_max":0,"o":""},"Ө":{"ha":694,"x_min":0,"x_max":0,"o":""},"ө":{"ha":694,"x_min":0,"x_max":0,"o":""},"Ӫ":{"ha":694,"x_min":0,"x_max":0,"o":""},"ӫ":{"ha":694,"x_min":0,"x_max":0,"o":""},"Ӯ":{"ha":694,"x_min":0,"x_max":0,"o":""},"ӯ":{"ha":694,"x_min":0,"x_max":0,"o":""},"Ӱ":{"ha":694,"x_min":0,"x_max":0,"o":""},"ӱ":{"ha":694,"x_min":0,"x_max":0,"o":""},"Ӳ":{"ha":694,"x_min":0,"x_max":0,"o":""},"ӳ":{"ha":694,"x_min":0,"x_max":0,"o":""},"Ӵ":{"ha":694,"x_min":0,"x_max":0,"o":""},"ӵ":{"ha":694,"x_min":0,"x_max":0,"o":""},"Ӹ":{"ha":694,"x_min":0,"x_max":0,"o":""},"ӹ":{"ha":694,"x_min":0,"x_max":0,"o":""},"৲":{"ha":694,"x_min":0,"x_max":0,"o":""},"৳":{"ha":694,"x_min":0,"x_max":0,"o":""},"฿":{"ha":694,"x_min":0,"x_max":0,"o":""},"៛":{"ha":694,"x_min":0,"x_max":0,"o":""},"Ḿ":{"ha":694,"x_min":0,"x_max":0,"o":""},"ḿ":{"ha":694,"x_min":0,"x_max":0,"o":""},"Ẁ":{"ha":694,"x_min":0,"x_max":0,"o":""},"ẁ":{"ha":694,"x_min":0,"x_max":0,"o":""},"Ẃ":{"ha":694,"x_min":0,"x_max":0,"o":""},"ẃ":{"ha":694,"x_min":0,"x_max":0,"o":""},"Ẅ":{"ha":694,"x_min":0,"x_max":0,"o":""},"ẅ":{"ha":694,"x_min":0,"x_max":0,"o":""},"Ỳ":{"ha":694,"x_min":0,"x_max":0,"o":""},"ỳ":{"ha":694,"x_min":0,"x_max":0,"o":""},"ὰ":{"ha":694,"x_min":0,"x_max":0,"o":""},"ά":{"ha":694,"x_min":0,"x_max":0,"o":""},"ὲ":{"ha":694,"x_min":0,"x_max":0,"o":""},"έ":{"ha":694,"x_min":0,"x_max":0,"o":""}," ":{"ha":694,"x_min":0,"x_max":0,"o":""}," ":{"ha":1389,"x_min":0,"x_max":0,"o":""}," ":{"ha":694,"x_min":0,"x_max":0,"o":""}," ":{"ha":1389,"x_min":0,"x_max":0,"o":""}," ":{"ha":694,"x_min":0,"x_max":0,"o":""}," ":{"ha":694,"x_min":0,"x_max":0,"o":""}," ":{"ha":694,"x_min":0,"x_max":0,"o":""}," ":{"ha":694,"x_min":0,"x_max":0,"o":""}," ":{"ha":694,"x_min":0,"x_max":0,"o":""}," ":{"ha":694,"x_min":0,"x_max":0,"o":""}," ":{"ha":694,"x_min":0,"x_max":0,"o":""},"​":{"ha":694,"x_min":0,"x_max":0,"o":""},"‌":{"ha":694,"x_min":0,"x_max":0,"o":""},"‍":{"ha":694,"x_min":0,"x_max":0,"o":""},"‎":{"ha":694,"x_min":0,"x_max":0,"o":""},"‏":{"ha":694,"x_min":0,"x_max":0,"o":""},"‐":{"ha":1389,"x_min":0,"x_max":0,"o":""},"‑":{"ha":694,"x_min":0,"x_max":0,"o":""},"‒":{"ha":694,"x_min":0,"x_max":0,"o":""},"–":{"ha":694,"x_min":0,"x_max":0,"o":""},"—":{"ha":694,"x_min":0,"x_max":0,"o":""},"―":{"ha":1389,"x_min":23,"x_max":1367,"o":"m 23 358 l 23 1031 l 1367 1031 l 1367 358 l 23 358 z "},"‖":{"ha":1389,"x_min":0,"x_max":0,"o":""},"‗":{"ha":694,"x_min":0,"x_max":0,"o":""},"‘":{"ha":1389,"x_min":807,"x_max":1367,"o":"m 1367 694 l 807 694 l 807 1138 l 932 1366 l 1236 1366 l 1103 1122 l 1367 1122 l 1367 694 z "},"’":{"ha":1389,"x_min":23,"x_max":582,"o":"m 23 1366 l 582 1366 l 582 922 l 457 694 l 153 694 l 286 940 l 23 940 l 23 1366 z "},"‚":{"ha":694,"x_min":0,"x_max":0,"o":""},"‛":{"ha":694,"x_min":0,"x_max":0,"o":""},"“":{"ha":1389,"x_min":472,"x_max":1366,"o":"m 1366 694 l 940 694 l 940 1138 l 1065 1366 l 1366 1366 l 1366 1362 l 1236 1122 l 1366 1122 l 1366 694 m 895 694 l 472 694 l 472 1138 l 595 1366 l 901 1366 l 768 1122 l 895 1122 l 895 694 z "},"”":{"ha":1389,"x_min":23,"x_max":917,"o":"m 23 1366 l 449 1366 l 449 922 l 324 694 l 23 694 l 23 700 l 153 940 l 23 940 l 23 1366 m 494 1366 l 917 1366 l 917 922 l 793 694 l 488 694 l 621 940 l 494 940 l 494 1366 z "},"„":{"ha":694,"x_min":0,"x_max":0,"o":""},"‟":{"ha":694,"x_min":0,"x_max":0,"o":""},"†":{"ha":1389,"x_min":0,"x_max":0,"o":""},"‡":{"ha":1389,"x_min":0,"x_max":0,"o":""},"•":{"ha":694,"x_min":0,"x_max":0,"o":""},"‣":{"ha":694,"x_min":0,"x_max":0,"o":""},"․":{"ha":694,"x_min":0,"x_max":0,"o":""},"‥":{"ha":1389,"x_min":0,"x_max":0,"o":""},"…":{"ha":1389,"x_min":0,"x_max":0,"o":""},"‧":{"ha":694,"x_min":0,"x_max":0,"o":""}," ":{"ha":694,"x_min":0,"x_max":0,"o":""}," ":{"ha":694,"x_min":0,"x_max":0,"o":""},"‪":{"ha":694,"x_min":0,"x_max":0,"o":""},"‫":{"ha":694,"x_min":0,"x_max":0,"o":""},"‬":{"ha":694,"x_min":0,"x_max":0,"o":""},"‭":{"ha":694,"x_min":0,"x_max":0,"o":""},"‮":{"ha":694,"x_min":0,"x_max":0,"o":""},"‰":{"ha":1389,"x_min":0,"x_max":0,"o":""},"‱":{"ha":694,"x_min":0,"x_max":0,"o":""},"′":{"ha":1389,"x_min":0,"x_max":0,"o":""},"″":{"ha":1389,"x_min":0,"x_max":0,"o":""},"‴":{"ha":694,"x_min":0,"x_max":0,"o":""},"‵":{"ha":694,"x_min":0,"x_max":0,"o":""},"‶":{"ha":694,"x_min":0,"x_max":0,"o":""},"‷":{"ha":694,"x_min":0,"x_max":0,"o":""},"‸":{"ha":694,"x_min":0,"x_max":0,"o":""},"‹":{"ha":694,"x_min":0,"x_max":0,"o":""},"›":{"ha":694,"x_min":0,"x_max":0,"o":""},"※":{"ha":1389,"x_min":0,"x_max":0,"o":""},"‼":{"ha":694,"x_min":0,"x_max":0,"o":""},"‽":{"ha":694,"x_min":0,"x_max":0,"o":""},"‾":{"ha":694,"x_min":0,"x_max":0,"o":""},"‿":{"ha":694,"x_min":0,"x_max":0,"o":""},"⁀":{"ha":694,"x_min":0,"x_max":0,"o":""},"⁁":{"ha":694,"x_min":0,"x_max":0,"o":""},"⁂":{"ha":694,"x_min":0,"x_max":0,"o":""},"⁃":{"ha":694,"x_min":0,"x_max":0,"o":""},"⁄":{"ha":694,"x_min":0,"x_max":0,"o":""},"⁅":{"ha":694,"x_min":0,"x_max":0,"o":""},"⁆":{"ha":694,"x_min":0,"x_max":0,"o":""},"⁇":{"ha":694,"x_min":0,"x_max":0,"o":""},"⁈":{"ha":694,"x_min":0,"x_max":0,"o":""},"⁉":{"ha":694,"x_min":0,"x_max":0,"o":""},"⁑":{"ha":1389,"x_min":0,"x_max":0,"o":""},"⁰":{"ha":694,"x_min":0,"x_max":0,"o":""},"⁴":{"ha":694,"x_min":0,"x_max":0,"o":""},"⁵":{"ha":694,"x_min":0,"x_max":0,"o":""},"⁶":{"ha":694,"x_min":0,"x_max":0,"o":""},"⁷":{"ha":694,"x_min":0,"x_max":0,"o":""},"⁸":{"ha":694,"x_min":0,"x_max":0,"o":""},"⁹":{"ha":694,"x_min":0,"x_max":0,"o":""},"⁺":{"ha":694,"x_min":0,"x_max":0,"o":""},"⁻":{"ha":694,"x_min":0,"x_max":0,"o":""},"⁼":{"ha":694,"x_min":0,"x_max":0,"o":""},"⁽":{"ha":694,"x_min":0,"x_max":0,"o":""},"⁾":{"ha":694,"x_min":0,"x_max":0,"o":""},"ⁿ":{"ha":694,"x_min":0,"x_max":0,"o":""},"₀":{"ha":694,"x_min":0,"x_max":0,"o":""},"₁":{"ha":694,"x_min":0,"x_max":0,"o":""},"₂":{"ha":694,"x_min":0,"x_max":0,"o":""},"₃":{"ha":694,"x_min":0,"x_max":0,"o":""},"₄":{"ha":694,"x_min":0,"x_max":0,"o":""},"₅":{"ha":694,"x_min":0,"x_max":0,"o":""},"₆":{"ha":694,"x_min":0,"x_max":0,"o":""},"₇":{"ha":694,"x_min":0,"x_max":0,"o":""},"₈":{"ha":694,"x_min":0,"x_max":0,"o":""},"₉":{"ha":694,"x_min":0,"x_max":0,"o":""},"₊":{"ha":694,"x_min":0,"x_max":0,"o":""},"₋":{"ha":694,"x_min":0,"x_max":0,"o":""},"₌":{"ha":694,"x_min":0,"x_max":0,"o":""},"₍":{"ha":694,"x_min":0,"x_max":0,"o":""},"₎":{"ha":694,"x_min":0,"x_max":0,"o":""},"₠":{"ha":694,"x_min":0,"x_max":0,"o":""},"₡":{"ha":694,"x_min":0,"x_max":0,"o":""},"₢":{"ha":694,"x_min":0,"x_max":0,"o":""},"₣":{"ha":694,"x_min":0,"x_max":0,"o":""},"₤":{"ha":694,"x_min":0,"x_max":0,"o":""},"₥":{"ha":694,"x_min":0,"x_max":0,"o":""},"₦":{"ha":694,"x_min":0,"x_max":0,"o":""},"₧":{"ha":694,"x_min":0,"x_max":0,"o":""},"₨":{"ha":694,"x_min":0,"x_max":0,"o":""},"₩":{"ha":694,"x_min":0,"x_max":0,"o":""},"₪":{"ha":694,"x_min":0,"x_max":0,"o":""},"₫":{"ha":694,"x_min":0,"x_max":0,"o":""},"€":{"ha":694,"x_min":0,"x_max":0,"o":""},"₭":{"ha":694,"x_min":0,"x_max":0,"o":""},"₮":{"ha":694,"x_min":0,"x_max":0,"o":""},"₯":{"ha":694,"x_min":0,"x_max":0,"o":""},"₰":{"ha":694,"x_min":0,"x_max":0,"o":""},"₱":{"ha":694,"x_min":0,"x_max":0,"o":""},"⃣":{"ha":1389,"x_min":0,"x_max":0,"o":""},"℀":{"ha":694,"x_min":0,"x_max":0,"o":""},"℁":{"ha":694,"x_min":0,"x_max":0,"o":""},"ℂ":{"ha":694,"x_min":0,"x_max":0,"o":""},"℃":{"ha":1389,"x_min":0,"x_max":0,"o":""},"℄":{"ha":694,"x_min":0,"x_max":0,"o":""},"℅":{"ha":694,"x_min":0,"x_max":0,"o":""},"℆":{"ha":694,"x_min":0,"x_max":0,"o":""},"ℇ":{"ha":694,"x_min":0,"x_max":0,"o":""},"℈":{"ha":694,"x_min":0,"x_max":0,"o":""},"℉":{"ha":694,"x_min":0,"x_max":0,"o":""},"ℊ":{"ha":694,"x_min":0,"x_max":0,"o":""},"ℋ":{"ha":694,"x_min":0,"x_max":0,"o":""},"ℌ":{"ha":694,"x_min":0,"x_max":0,"o":""},"ℍ":{"ha":694,"x_min":0,"x_max":0,"o":""},"ℎ":{"ha":694,"x_min":0,"x_max":0,"o":""},"ℏ":{"ha":694,"x_min":0,"x_max":0,"o":""},"ℐ":{"ha":694,"x_min":0,"x_max":0,"o":""},"ℑ":{"ha":694,"x_min":0,"x_max":0,"o":""},"ℒ":{"ha":694,"x_min":0,"x_max":0,"o":""},"ℓ":{"ha":694,"x_min":0,"x_max":0,"o":""},"℔":{"ha":694,"x_min":0,"x_max":0,"o":""},"ℕ":{"ha":694,"x_min":0,"x_max":0,"o":""},"№":{"ha":1389,"x_min":0,"x_max":0,"o":""},"℗":{"ha":694,"x_min":0,"x_max":0,"o":""},"℘":{"ha":694,"x_min":0,"x_max":0,"o":""},"ℙ":{"ha":694,"x_min":0,"x_max":0,"o":""},"ℚ":{"ha":694,"x_min":0,"x_max":0,"o":""},"ℛ":{"ha":694,"x_min":0,"x_max":0,"o":""},"ℜ":{"ha":694,"x_min":0,"x_max":0,"o":""},"ℝ":{"ha":694,"x_min":0,"x_max":0,"o":""},"℞":{"ha":694,"x_min":0,"x_max":0,"o":""},"℟":{"ha":694,"x_min":0,"x_max":0,"o":""},"℠":{"ha":694,"x_min":0,"x_max":0,"o":""},"℡":{"ha":1389,"x_min":0,"x_max":0,"o":""},"™":{"ha":694,"x_min":0,"x_max":0,"o":""},"℣":{"ha":694,"x_min":0,"x_max":0,"o":""},"ℤ":{"ha":694,"x_min":0,"x_max":0,"o":""},"℥":{"ha":694,"x_min":0,"x_max":0,"o":""},"Ω":{"ha":694,"x_min":0,"x_max":0,"o":""},"℧":{"ha":694,"x_min":0,"x_max":0,"o":""},"ℨ":{"ha":694,"x_min":0,"x_max":0,"o":""},"℩":{"ha":694,"x_min":0,"x_max":0,"o":""},"K":{"ha":694,"x_min":0,"x_max":0,"o":""},"Å":{"ha":1389,"x_min":0,"x_max":0,"o":""},"ℬ":{"ha":694,"x_min":0,"x_max":0,"o":""},"ℭ":{"ha":694,"x_min":0,"x_max":0,"o":""},"℮":{"ha":694,"x_min":0,"x_max":0,"o":""},"ℯ":{"ha":694,"x_min":0,"x_max":0,"o":""},"ℰ":{"ha":694,"x_min":0,"x_max":0,"o":""},"ℱ":{"ha":694,"x_min":0,"x_max":0,"o":""},"Ⅎ":{"ha":694,"x_min":0,"x_max":0,"o":""},"ℳ":{"ha":694,"x_min":0,"x_max":0,"o":""},"ℴ":{"ha":694,"x_min":0,"x_max":0,"o":""},"ℵ":{"ha":694,"x_min":0,"x_max":0,"o":""},"ℶ":{"ha":694,"x_min":0,"x_max":0,"o":""},"ℷ":{"ha":694,"x_min":0,"x_max":0,"o":""},"ℸ":{"ha":694,"x_min":0,"x_max":0,"o":""},"⅒":{"ha":1389,"x_min":0,"x_max":0,"o":""},"⅓":{"ha":694,"x_min":0,"x_max":0,"o":""},"⅔":{"ha":694,"x_min":0,"x_max":0,"o":""},"⅕":{"ha":694,"x_min":0,"x_max":0,"o":""},"⅖":{"ha":694,"x_min":0,"x_max":0,"o":""},"⅗":{"ha":694,"x_min":0,"x_max":0,"o":""},"⅘":{"ha":694,"x_min":0,"x_max":0,"o":""},"⅙":{"ha":694,"x_min":0,"x_max":0,"o":""},"⅚":{"ha":694,"x_min":0,"x_max":0,"o":""},"⅛":{"ha":694,"x_min":0,"x_max":0,"o":""},"⅜":{"ha":694,"x_min":0,"x_max":0,"o":""},"⅝":{"ha":694,"x_min":0,"x_max":0,"o":""},"⅞":{"ha":694,"x_min":0,"x_max":0,"o":""},"⅟":{"ha":694,"x_min":0,"x_max":0,"o":""},"Ⅰ":{"ha":1389,"x_min":0,"x_max":0,"o":""},"Ⅱ":{"ha":1389,"x_min":0,"x_max":0,"o":""},"Ⅲ":{"ha":1389,"x_min":0,"x_max":0,"o":""},"Ⅳ":{"ha":1389,"x_min":0,"x_max":0,"o":""},"Ⅴ":{"ha":1389,"x_min":0,"x_max":0,"o":""},"Ⅵ":{"ha":1389,"x_min":0,"x_max":0,"o":""},"Ⅶ":{"ha":1389,"x_min":0,"x_max":0,"o":""},"Ⅷ":{"ha":1389,"x_min":0,"x_max":0,"o":""},"Ⅸ":{"ha":1389,"x_min":0,"x_max":0,"o":""},"Ⅹ":{"ha":1389,"x_min":0,"x_max":0,"o":""},"Ⅺ":{"ha":1389,"x_min":0,"x_max":0,"o":""},"Ⅻ":{"ha":1389,"x_min":0,"x_max":0,"o":""},"Ⅼ":{"ha":1389,"x_min":0,"x_max":0,"o":""},"Ⅽ":{"ha":1389,"x_min":0,"x_max":0,"o":""},"Ⅾ":{"ha":1389,"x_min":0,"x_max":0,"o":""},"Ⅿ":{"ha":1389,"x_min":0,"x_max":0,"o":""},"ⅰ":{"ha":1389,"x_min":0,"x_max":0,"o":""},"ⅱ":{"ha":1389,"x_min":0,"x_max":0,"o":""},"ⅲ":{"ha":1389,"x_min":0,"x_max":0,"o":""},"ⅳ":{"ha":1389,"x_min":0,"x_max":0,"o":""},"ⅴ":{"ha":1389,"x_min":0,"x_max":0,"o":""},"ⅵ":{"ha":1389,"x_min":0,"x_max":0,"o":""},"ⅶ":{"ha":1389,"x_min":0,"x_max":0,"o":""},"ⅷ":{"ha":1389,"x_min":0,"x_max":0,"o":""},"ⅸ":{"ha":1389,"x_min":0,"x_max":0,"o":""},"ⅹ":{"ha":1389,"x_min":0,"x_max":0,"o":""},"ⅺ":{"ha":1389,"x_min":0,"x_max":0,"o":""},"ⅻ":{"ha":1389,"x_min":0,"x_max":0,"o":""},"ⅼ":{"ha":1389,"x_min":0,"x_max":0,"o":""},"ⅽ":{"ha":1389,"x_min":0,"x_max":0,"o":""},"ⅾ":{"ha":1389,"x_min":0,"x_max":0,"o":""},"ⅿ":{"ha":1389,"x_min":0,"x_max":0,"o":""},"ↀ":{"ha":1389,"x_min":0,"x_max":0,"o":""},"ↁ":{"ha":1389,"x_min":0,"x_max":0,"o":""},"ↂ":{"ha":1389,"x_min":0,"x_max":0,"o":""},"←":{"ha":1389,"x_min":0,"x_max":0,"o":""},"↑":{"ha":1389,"x_min":0,"x_max":0,"o":""},"→":{"ha":1389,"x_min":0,"x_max":0,"o":""},"↓":{"ha":1389,"x_min":0,"x_max":0,"o":""},"↔":{"ha":694,"x_min":0,"x_max":0,"o":""},"↕":{"ha":694,"x_min":0,"x_max":0,"o":""},"↖":{"ha":694,"x_min":0,"x_max":0,"o":""},"↗":{"ha":694,"x_min":0,"x_max":0,"o":""},"↘":{"ha":694,"x_min":0,"x_max":0,"o":""},"↙":{"ha":694,"x_min":0,"x_max":0,"o":""},"↚":{"ha":694,"x_min":0,"x_max":0,"o":""},"↛":{"ha":694,"x_min":0,"x_max":0,"o":""},"↜":{"ha":694,"x_min":0,"x_max":0,"o":""},"↝":{"ha":694,"x_min":0,"x_max":0,"o":""},"↞":{"ha":694,"x_min":0,"x_max":0,"o":""},"↟":{"ha":694,"x_min":0,"x_max":0,"o":""},"↠":{"ha":694,"x_min":0,"x_max":0,"o":""},"↡":{"ha":694,"x_min":0,"x_max":0,"o":""},"↢":{"ha":694,"x_min":0,"x_max":0,"o":""},"↣":{"ha":694,"x_min":0,"x_max":0,"o":""},"↤":{"ha":694,"x_min":0,"x_max":0,"o":""},"↥":{"ha":694,"x_min":0,"x_max":0,"o":""},"↦":{"ha":694,"x_min":0,"x_max":0,"o":""},"↧":{"ha":694,"x_min":0,"x_max":0,"o":""},"↨":{"ha":694,"x_min":0,"x_max":0,"o":""},"↩":{"ha":694,"x_min":0,"x_max":0,"o":""},"↪":{"ha":694,"x_min":0,"x_max":0,"o":""},"↫":{"ha":694,"x_min":0,"x_max":0,"o":""},"↬":{"ha":694,"x_min":0,"x_max":0,"o":""},"↭":{"ha":694,"x_min":0,"x_max":0,"o":""},"↮":{"ha":694,"x_min":0,"x_max":0,"o":""},"↯":{"ha":694,"x_min":0,"x_max":0,"o":""},"↰":{"ha":694,"x_min":0,"x_max":0,"o":""},"↱":{"ha":694,"x_min":0,"x_max":0,"o":""},"↲":{"ha":694,"x_min":0,"x_max":0,"o":""},"↳":{"ha":694,"x_min":0,"x_max":0,"o":""},"↴":{"ha":694,"x_min":0,"x_max":0,"o":""},"↵":{"ha":694,"x_min":0,"x_max":0,"o":""},"↶":{"ha":694,"x_min":0,"x_max":0,"o":""},"↷":{"ha":694,"x_min":0,"x_max":0,"o":""},"↸":{"ha":694,"x_min":0,"x_max":0,"o":""},"↹":{"ha":694,"x_min":0,"x_max":0,"o":""},"↺":{"ha":694,"x_min":0,"x_max":0,"o":""},"↻":{"ha":694,"x_min":0,"x_max":0,"o":""},"↼":{"ha":694,"x_min":0,"x_max":0,"o":""},"↽":{"ha":694,"x_min":0,"x_max":0,"o":""},"↾":{"ha":694,"x_min":0,"x_max":0,"o":""},"↿":{"ha":694,"x_min":0,"x_max":0,"o":""},"⇀":{"ha":694,"x_min":0,"x_max":0,"o":""},"⇁":{"ha":694,"x_min":0,"x_max":0,"o":""},"⇂":{"ha":694,"x_min":0,"x_max":0,"o":""},"⇃":{"ha":694,"x_min":0,"x_max":0,"o":""},"⇄":{"ha":694,"x_min":0,"x_max":0,"o":""},"⇅":{"ha":694,"x_min":0,"x_max":0,"o":""},"⇆":{"ha":694,"x_min":0,"x_max":0,"o":""},"⇇":{"ha":694,"x_min":0,"x_max":0,"o":""},"⇈":{"ha":694,"x_min":0,"x_max":0,"o":""},"⇉":{"ha":694,"x_min":0,"x_max":0,"o":""},"⇊":{"ha":694,"x_min":0,"x_max":0,"o":""},"⇋":{"ha":694,"x_min":0,"x_max":0,"o":""},"⇌":{"ha":694,"x_min":0,"x_max":0,"o":""},"⇍":{"ha":694,"x_min":0,"x_max":0,"o":""},"⇎":{"ha":694,"x_min":0,"x_max":0,"o":""},"⇏":{"ha":694,"x_min":0,"x_max":0,"o":""},"⇐":{"ha":694,"x_min":0,"x_max":0,"o":""},"⇑":{"ha":694,"x_min":0,"x_max":0,"o":""},"⇒":{"ha":1389,"x_min":0,"x_max":0,"o":""},"⇓":{"ha":694,"x_min":0,"x_max":0,"o":""},"⇔":{"ha":1389,"x_min":0,"x_max":0,"o":""},"⇕":{"ha":694,"x_min":0,"x_max":0,"o":""},"⇖":{"ha":694,"x_min":0,"x_max":0,"o":""},"⇗":{"ha":694,"x_min":0,"x_max":0,"o":""},"⇘":{"ha":694,"x_min":0,"x_max":0,"o":""},"⇙":{"ha":694,"x_min":0,"x_max":0,"o":""},"⇚":{"ha":694,"x_min":0,"x_max":0,"o":""},"⇛":{"ha":694,"x_min":0,"x_max":0,"o":""},"⇜":{"ha":694,"x_min":0,"x_max":0,"o":""},"⇝":{"ha":694,"x_min":0,"x_max":0,"o":""},"⇞":{"ha":694,"x_min":0,"x_max":0,"o":""},"⇟":{"ha":694,"x_min":0,"x_max":0,"o":""},"⇠":{"ha":694,"x_min":0,"x_max":0,"o":""},"⇡":{"ha":694,"x_min":0,"x_max":0,"o":""},"⇢":{"ha":694,"x_min":0,"x_max":0,"o":""},"⇣":{"ha":694,"x_min":0,"x_max":0,"o":""},"⇤":{"ha":694,"x_min":0,"x_max":0,"o":""},"⇥":{"ha":694,"x_min":0,"x_max":0,"o":""},"⇦":{"ha":694,"x_min":0,"x_max":0,"o":""},"⇧":{"ha":694,"x_min":0,"x_max":0,"o":""},"⇨":{"ha":694,"x_min":0,"x_max":0,"o":""},"⇩":{"ha":694,"x_min":0,"x_max":0,"o":""},"⇪":{"ha":694,"x_min":0,"x_max":0,"o":""},"∀":{"ha":1389,"x_min":0,"x_max":0,"o":""},"∁":{"ha":694,"x_min":0,"x_max":0,"o":""},"∂":{"ha":1389,"x_min":0,"x_max":0,"o":""},"∃":{"ha":1389,"x_min":0,"x_max":0,"o":""},"∄":{"ha":694,"x_min":0,"x_max":0,"o":""},"∅":{"ha":694,"x_min":0,"x_max":0,"o":""},"∆":{"ha":694,"x_min":0,"x_max":0,"o":""},"∇":{"ha":1389,"x_min":0,"x_max":0,"o":""},"∈":{"ha":1389,"x_min":0,"x_max":0,"o":""},"∉":{"ha":694,"x_min":0,"x_max":0,"o":""},"∊":{"ha":694,"x_min":0,"x_max":0,"o":""},"∋":{"ha":1389,"x_min":0,"x_max":0,"o":""},"∌":{"ha":694,"x_min":0,"x_max":0,"o":""},"∍":{"ha":694,"x_min":0,"x_max":0,"o":""},"∎":{"ha":694,"x_min":0,"x_max":0,"o":""},"∏":{"ha":694,"x_min":0,"x_max":0,"o":""},"∐":{"ha":694,"x_min":0,"x_max":0,"o":""},"∑":{"ha":1389,"x_min":0,"x_max":0,"o":""},"−":{"ha":694,"x_min":0,"x_max":0,"o":""},"∓":{"ha":694,"x_min":0,"x_max":0,"o":""},"∔":{"ha":694,"x_min":0,"x_max":0,"o":""},"∕":{"ha":694,"x_min":0,"x_max":0,"o":""},"∖":{"ha":694,"x_min":0,"x_max":0,"o":""},"∗":{"ha":694,"x_min":0,"x_max":0,"o":""},"∘":{"ha":694,"x_min":0,"x_max":0,"o":""},"∙":{"ha":694,"x_min":0,"x_max":0,"o":""},"√":{"ha":1389,"x_min":0,"x_max":0,"o":""},"∛":{"ha":694,"x_min":0,"x_max":0,"o":""},"∜":{"ha":694,"x_min":0,"x_max":0,"o":""},"∝":{"ha":1389,"x_min":0,"x_max":0,"o":""},"∞":{"ha":1389,"x_min":0,"x_max":0,"o":""},"∟":{"ha":1389,"x_min":0,"x_max":0,"o":""},"∠":{"ha":1389,"x_min":0,"x_max":0,"o":""},"∡":{"ha":694,"x_min":0,"x_max":0,"o":""},"∢":{"ha":694,"x_min":0,"x_max":0,"o":""},"∣":{"ha":694,"x_min":0,"x_max":0,"o":""},"∤":{"ha":694,"x_min":0,"x_max":0,"o":""},"∥":{"ha":1389,"x_min":0,"x_max":0,"o":""},"∦":{"ha":694,"x_min":0,"x_max":0,"o":""},"∧":{"ha":1389,"x_min":0,"x_max":0,"o":""},"∨":{"ha":1389,"x_min":0,"x_max":0,"o":""},"∩":{"ha":1389,"x_min":0,"x_max":0,"o":""},"∪":{"ha":1389,"x_min":0,"x_max":0,"o":""},"∫":{"ha":1389,"x_min":0,"x_max":0,"o":""},"∬":{"ha":1389,"x_min":0,"x_max":0,"o":""},"∭":{"ha":694,"x_min":0,"x_max":0,"o":""},"∮":{"ha":1389,"x_min":0,"x_max":0,"o":""},"∯":{"ha":694,"x_min":0,"x_max":0,"o":""},"∰":{"ha":694,"x_min":0,"x_max":0,"o":""},"∱":{"ha":694,"x_min":0,"x_max":0,"o":""},"∲":{"ha":694,"x_min":0,"x_max":0,"o":""},"∳":{"ha":694,"x_min":0,"x_max":0,"o":""},"∴":{"ha":1389,"x_min":0,"x_max":0,"o":""},"∵":{"ha":1389,"x_min":0,"x_max":0,"o":""},"∶":{"ha":694,"x_min":0,"x_max":0,"o":""},"∷":{"ha":694,"x_min":0,"x_max":0,"o":""},"∸":{"ha":694,"x_min":0,"x_max":0,"o":""},"∹":{"ha":694,"x_min":0,"x_max":0,"o":""},"∺":{"ha":694,"x_min":0,"x_max":0,"o":""},"∻":{"ha":694,"x_min":0,"x_max":0,"o":""},"∼":{"ha":694,"x_min":0,"x_max":0,"o":""},"∽":{"ha":1389,"x_min":0,"x_max":0,"o":""},"∾":{"ha":694,"x_min":0,"x_max":0,"o":""},"∿":{"ha":694,"x_min":0,"x_max":0,"o":""},"≀":{"ha":694,"x_min":0,"x_max":0,"o":""},"≁":{"ha":694,"x_min":0,"x_max":0,"o":""},"≂":{"ha":694,"x_min":0,"x_max":0,"o":""},"≃":{"ha":694,"x_min":0,"x_max":0,"o":""},"≄":{"ha":694,"x_min":0,"x_max":0,"o":""},"≅":{"ha":694,"x_min":0,"x_max":0,"o":""},"≆":{"ha":694,"x_min":0,"x_max":0,"o":""},"≇":{"ha":694,"x_min":0,"x_max":0,"o":""},"≈":{"ha":694,"x_min":0,"x_max":0,"o":""},"≉":{"ha":694,"x_min":0,"x_max":0,"o":""},"≊":{"ha":694,"x_min":0,"x_max":0,"o":""},"≋":{"ha":694,"x_min":0,"x_max":0,"o":""},"≌":{"ha":694,"x_min":0,"x_max":0,"o":""},"≍":{"ha":694,"x_min":0,"x_max":0,"o":""},"≎":{"ha":694,"x_min":0,"x_max":0,"o":""},"≏":{"ha":694,"x_min":0,"x_max":0,"o":""},"≐":{"ha":694,"x_min":0,"x_max":0,"o":""},"≑":{"ha":694,"x_min":0,"x_max":0,"o":""},"≒":{"ha":1389,"x_min":0,"x_max":0,"o":""},"≓":{"ha":694,"x_min":0,"x_max":0,"o":""},"≔":{"ha":694,"x_min":0,"x_max":0,"o":""},"≕":{"ha":694,"x_min":0,"x_max":0,"o":""},"≖":{"ha":694,"x_min":0,"x_max":0,"o":""},"≗":{"ha":694,"x_min":0,"x_max":0,"o":""},"≘":{"ha":694,"x_min":0,"x_max":0,"o":""},"≙":{"ha":694,"x_min":0,"x_max":0,"o":""},"≚":{"ha":694,"x_min":0,"x_max":0,"o":""},"≛":{"ha":694,"x_min":0,"x_max":0,"o":""},"≜":{"ha":694,"x_min":0,"x_max":0,"o":""},"≝":{"ha":694,"x_min":0,"x_max":0,"o":""},"≞":{"ha":694,"x_min":0,"x_max":0,"o":""},"≟":{"ha":694,"x_min":0,"x_max":0,"o":""},"≠":{"ha":1389,"x_min":0,"x_max":0,"o":""},"≡":{"ha":1389,"x_min":0,"x_max":0,"o":""},"≢":{"ha":694,"x_min":0,"x_max":0,"o":""},"≣":{"ha":694,"x_min":0,"x_max":0,"o":""},"≤":{"ha":694,"x_min":0,"x_max":0,"o":""},"≥":{"ha":694,"x_min":0,"x_max":0,"o":""},"≦":{"ha":1389,"x_min":0,"x_max":0,"o":""},"≧":{"ha":1389,"x_min":0,"x_max":0,"o":""},"≨":{"ha":694,"x_min":0,"x_max":0,"o":""},"≩":{"ha":694,"x_min":0,"x_max":0,"o":""},"≪":{"ha":1389,"x_min":0,"x_max":0,"o":""},"≫":{"ha":1389,"x_min":0,"x_max":0,"o":""},"≬":{"ha":694,"x_min":0,"x_max":0,"o":""},"≭":{"ha":694,"x_min":0,"x_max":0,"o":""},"≮":{"ha":694,"x_min":0,"x_max":0,"o":""},"≯":{"ha":694,"x_min":0,"x_max":0,"o":""},"≰":{"ha":694,"x_min":0,"x_max":0,"o":""},"≱":{"ha":694,"x_min":0,"x_max":0,"o":""},"≲":{"ha":694,"x_min":0,"x_max":0,"o":""},"≳":{"ha":694,"x_min":0,"x_max":0,"o":""},"≴":{"ha":694,"x_min":0,"x_max":0,"o":""},"≵":{"ha":694,"x_min":0,"x_max":0,"o":""},"≶":{"ha":694,"x_min":0,"x_max":0,"o":""},"≷":{"ha":694,"x_min":0,"x_max":0,"o":""},"≸":{"ha":694,"x_min":0,"x_max":0,"o":""},"≹":{"ha":694,"x_min":0,"x_max":0,"o":""},"≺":{"ha":694,"x_min":0,"x_max":0,"o":""},"≻":{"ha":694,"x_min":0,"x_max":0,"o":""},"≼":{"ha":694,"x_min":0,"x_max":0,"o":""},"≽":{"ha":694,"x_min":0,"x_max":0,"o":""},"≾":{"ha":694,"x_min":0,"x_max":0,"o":""},"≿":{"ha":694,"x_min":0,"x_max":0,"o":""},"⊀":{"ha":694,"x_min":0,"x_max":0,"o":""},"⊁":{"ha":694,"x_min":0,"x_max":0,"o":""},"⊂":{"ha":1389,"x_min":0,"x_max":0,"o":""},"⊃":{"ha":1389,"x_min":0,"x_max":0,"o":""},"⊄":{"ha":694,"x_min":0,"x_max":0,"o":""},"⊅":{"ha":694,"x_min":0,"x_max":0,"o":""},"⊆":{"ha":1389,"x_min":0,"x_max":0,"o":""},"⊇":{"ha":1389,"x_min":0,"x_max":0,"o":""},"⊈":{"ha":694,"x_min":0,"x_max":0,"o":""},"⊉":{"ha":694,"x_min":0,"x_max":0,"o":""},"⊊":{"ha":694,"x_min":0,"x_max":0,"o":""},"⊋":{"ha":694,"x_min":0,"x_max":0,"o":""},"⊌":{"ha":694,"x_min":0,"x_max":0,"o":""},"⊍":{"ha":694,"x_min":0,"x_max":0,"o":""},"⊎":{"ha":694,"x_min":0,"x_max":0,"o":""},"⊏":{"ha":694,"x_min":0,"x_max":0,"o":""},"⊐":{"ha":694,"x_min":0,"x_max":0,"o":""},"⊑":{"ha":694,"x_min":0,"x_max":0,"o":""},"⊒":{"ha":694,"x_min":0,"x_max":0,"o":""},"⊓":{"ha":694,"x_min":0,"x_max":0,"o":""},"⊔":{"ha":694,"x_min":0,"x_max":0,"o":""},"⊕":{"ha":694,"x_min":0,"x_max":0,"o":""},"⊖":{"ha":694,"x_min":0,"x_max":0,"o":""},"⊗":{"ha":694,"x_min":0,"x_max":0,"o":""},"⊘":{"ha":694,"x_min":0,"x_max":0,"o":""},"⊙":{"ha":694,"x_min":0,"x_max":0,"o":""},"⊚":{"ha":694,"x_min":0,"x_max":0,"o":""},"⊛":{"ha":694,"x_min":0,"x_max":0,"o":""},"⊜":{"ha":694,"x_min":0,"x_max":0,"o":""},"⊝":{"ha":694,"x_min":0,"x_max":0,"o":""},"⊞":{"ha":694,"x_min":0,"x_max":0,"o":""},"⊟":{"ha":694,"x_min":0,"x_max":0,"o":""},"⊠":{"ha":694,"x_min":0,"x_max":0,"o":""},"⊡":{"ha":694,"x_min":0,"x_max":0,"o":""},"⊢":{"ha":694,"x_min":0,"x_max":0,"o":""},"⊣":{"ha":694,"x_min":0,"x_max":0,"o":""},"⊤":{"ha":694,"x_min":0,"x_max":0,"o":""},"⊥":{"ha":1389,"x_min":0,"x_max":0,"o":""},"⊦":{"ha":694,"x_min":0,"x_max":0,"o":""},"⊧":{"ha":694,"x_min":0,"x_max":0,"o":""},"⊨":{"ha":694,"x_min":0,"x_max":0,"o":""},"⊩":{"ha":694,"x_min":0,"x_max":0,"o":""},"⊪":{"ha":694,"x_min":0,"x_max":0,"o":""},"⊫":{"ha":694,"x_min":0,"x_max":0,"o":""},"⊬":{"ha":694,"x_min":0,"x_max":0,"o":""},"⊭":{"ha":694,"x_min":0,"x_max":0,"o":""},"⊮":{"ha":694,"x_min":0,"x_max":0,"o":""},"⊯":{"ha":694,"x_min":0,"x_max":0,"o":""},"⊰":{"ha":694,"x_min":0,"x_max":0,"o":""},"⊱":{"ha":694,"x_min":0,"x_max":0,"o":""},"⊲":{"ha":694,"x_min":0,"x_max":0,"o":""},"⊳":{"ha":694,"x_min":0,"x_max":0,"o":""},"⊴":{"ha":694,"x_min":0,"x_max":0,"o":""},"⊵":{"ha":694,"x_min":0,"x_max":0,"o":""},"⊶":{"ha":694,"x_min":0,"x_max":0,"o":""},"⊷":{"ha":694,"x_min":0,"x_max":0,"o":""},"⊸":{"ha":694,"x_min":0,"x_max":0,"o":""},"⊹":{"ha":694,"x_min":0,"x_max":0,"o":""},"⊺":{"ha":694,"x_min":0,"x_max":0,"o":""},"⊻":{"ha":694,"x_min":0,"x_max":0,"o":""},"⊼":{"ha":694,"x_min":0,"x_max":0,"o":""},"⊽":{"ha":694,"x_min":0,"x_max":0,"o":""},"⊾":{"ha":694,"x_min":0,"x_max":0,"o":""},"⊿":{"ha":1389,"x_min":0,"x_max":0,"o":""},"⋀":{"ha":694,"x_min":0,"x_max":0,"o":""},"⋁":{"ha":694,"x_min":0,"x_max":0,"o":""},"⋂":{"ha":694,"x_min":0,"x_max":0,"o":""},"⋃":{"ha":694,"x_min":0,"x_max":0,"o":""},"⋄":{"ha":694,"x_min":0,"x_max":0,"o":""},"⋅":{"ha":694,"x_min":0,"x_max":0,"o":""},"⋆":{"ha":694,"x_min":0,"x_max":0,"o":""},"⋇":{"ha":694,"x_min":0,"x_max":0,"o":""},"⋈":{"ha":694,"x_min":0,"x_max":0,"o":""},"⋉":{"ha":694,"x_min":0,"x_max":0,"o":""},"⋊":{"ha":694,"x_min":0,"x_max":0,"o":""},"⋋":{"ha":694,"x_min":0,"x_max":0,"o":""},"⋌":{"ha":694,"x_min":0,"x_max":0,"o":""},"⋍":{"ha":694,"x_min":0,"x_max":0,"o":""},"⋎":{"ha":694,"x_min":0,"x_max":0,"o":""},"⋏":{"ha":694,"x_min":0,"x_max":0,"o":""},"⋐":{"ha":694,"x_min":0,"x_max":0,"o":""},"⋑":{"ha":694,"x_min":0,"x_max":0,"o":""},"⋒":{"ha":694,"x_min":0,"x_max":0,"o":""},"⋓":{"ha":694,"x_min":0,"x_max":0,"o":""},"⋔":{"ha":694,"x_min":0,"x_max":0,"o":""},"⋕":{"ha":694,"x_min":0,"x_max":0,"o":""},"⋖":{"ha":694,"x_min":0,"x_max":0,"o":""},"⋗":{"ha":694,"x_min":0,"x_max":0,"o":""},"⋘":{"ha":694,"x_min":0,"x_max":0,"o":""},"⋙":{"ha":694,"x_min":0,"x_max":0,"o":""},"⋚":{"ha":694,"x_min":0,"x_max":0,"o":""},"⋛":{"ha":694,"x_min":0,"x_max":0,"o":""},"⋜":{"ha":694,"x_min":0,"x_max":0,"o":""},"⋝":{"ha":694,"x_min":0,"x_max":0,"o":""},"⋞":{"ha":694,"x_min":0,"x_max":0,"o":""},"⋟":{"ha":694,"x_min":0,"x_max":0,"o":""},"⋠":{"ha":694,"x_min":0,"x_max":0,"o":""},"⋡":{"ha":694,"x_min":0,"x_max":0,"o":""},"⋢":{"ha":694,"x_min":0,"x_max":0,"o":""},"⋣":{"ha":694,"x_min":0,"x_max":0,"o":""},"⋤":{"ha":694,"x_min":0,"x_max":0,"o":""},"⋥":{"ha":694,"x_min":0,"x_max":0,"o":""},"⋦":{"ha":694,"x_min":0,"x_max":0,"o":""},"⋧":{"ha":694,"x_min":0,"x_max":0,"o":""},"⋨":{"ha":694,"x_min":0,"x_max":0,"o":""},"⋩":{"ha":694,"x_min":0,"x_max":0,"o":""},"⋪":{"ha":694,"x_min":0,"x_max":0,"o":""},"⋫":{"ha":694,"x_min":0,"x_max":0,"o":""},"⋬":{"ha":694,"x_min":0,"x_max":0,"o":""},"⋭":{"ha":694,"x_min":0,"x_max":0,"o":""},"⋮":{"ha":694,"x_min":0,"x_max":0,"o":""},"⋯":{"ha":694,"x_min":0,"x_max":0,"o":""},"⋰":{"ha":694,"x_min":0,"x_max":0,"o":""},"⋱":{"ha":694,"x_min":0,"x_max":0,"o":""},"⌂":{"ha":694,"x_min":0,"x_max":0,"o":""},"⌅":{"ha":694,"x_min":0,"x_max":0,"o":""},"⌆":{"ha":694,"x_min":0,"x_max":0,"o":""},"⌐":{"ha":694,"x_min":0,"x_max":0,"o":""},"⌒":{"ha":1389,"x_min":0,"x_max":0,"o":""},"⌘":{"ha":1389,"x_min":0,"x_max":0,"o":""},"⌠":{"ha":694,"x_min":0,"x_max":0,"o":""},"⌡":{"ha":694,"x_min":0,"x_max":0,"o":""},"⎾":{"ha":1389,"x_min":0,"x_max":0,"o":""},"⎿":{"ha":1389,"x_min":0,"x_max":0,"o":""},"⏀":{"ha":1389,"x_min":0,"x_max":0,"o":""},"⏁":{"ha":1389,"x_min":0,"x_max":0,"o":""},"⏂":{"ha":1389,"x_min":0,"x_max":0,"o":""},"⏃":{"ha":1389,"x_min":0,"x_max":0,"o":""},"⏄":{"ha":1389,"x_min":0,"x_max":0,"o":""},"⏅":{"ha":1389,"x_min":0,"x_max":0,"o":""},"⏆":{"ha":1389,"x_min":0,"x_max":0,"o":""},"⏇":{"ha":1389,"x_min":0,"x_max":0,"o":""},"⏈":{"ha":1389,"x_min":0,"x_max":0,"o":""},"⏉":{"ha":1389,"x_min":0,"x_max":0,"o":""},"⏊":{"ha":1389,"x_min":0,"x_max":0,"o":""},"⏋":{"ha":1389,"x_min":0,"x_max":0,"o":""},"⏌":{"ha":1389,"x_min":0,"x_max":0,"o":""},"⏎":{"ha":1389,"x_min":0,"x_max":0,"o":""},"␣":{"ha":1389,"x_min":0,"x_max":0,"o":""},"①":{"ha":1389,"x_min":23,"x_max":1367,"o":"m 357 1366 l 1032 1366 l 1367 1032 l 1367 357 l 1032 22 l 357 22 l 23 357 l 23 1032 l 357 1366 m 441 1199 l 190 948 l 190 441 l 441 190 l 948 190 l 1199 441 l 1199 948 l 948 1199 l 441 1199 m 608 1031 l 974 1031 l 974 582 l 1031 582 l 1031 358 l 358 358 l 358 582 l 582 582 l 582 663 l 658 704 l 636 743 l 415 627 l 415 929 l 608 1031 z "},"②":{"ha":1389,"x_min":23,"x_max":1367,"o":"m 357 1366 l 1032 1366 l 1367 1032 l 1367 357 l 1032 22 l 357 22 l 23 357 l 23 1032 l 357 1366 m 441 1199 l 190 948 l 190 441 l 441 190 l 948 190 l 1199 441 l 1199 948 l 948 1199 l 441 1199 m 471 1031 l 1031 1031 l 1031 766 l 864 578 l 898 548 l 1031 699 l 1031 358 l 373 358 l 793 834 l 609 834 l 609 788 l 694 788 l 538 612 l 358 612 l 358 905 l 471 1031 z "},"③":{"ha":1389,"x_min":23,"x_max":1367,"o":"m 357 1366 l 1032 1366 l 1367 1032 l 1367 357 l 1032 22 l 357 22 l 23 357 l 23 1032 l 357 1366 m 441 1199 l 190 948 l 190 441 l 441 190 l 948 190 l 1199 441 l 1199 948 l 948 1199 l 441 1199 m 515 1031 l 1031 1031 l 1031 837 l 944 772 l 1031 772 l 1031 477 l 873 358 l 475 358 l 854 643 l 827 680 l 469 410 l 469 662 l 719 849 l 692 886 l 358 635 l 358 911 l 515 1031 z "},"④":{"ha":1389,"x_min":23,"x_max":1367,"o":"m 357 1366 l 1032 1366 l 1367 1032 l 1367 357 l 1032 22 l 357 22 l 23 357 l 23 1032 l 357 1366 m 441 1199 l 190 948 l 190 441 l 441 190 l 948 190 l 1199 441 l 1199 948 l 948 1199 l 441 1199 m 522 1031 l 960 1031 l 960 747 l 1031 747 l 1031 426 l 960 426 l 960 358 l 591 358 l 659 426 l 358 426 l 358 822 l 522 1031 m 728 833 l 567 628 l 602 600 l 764 806 l 728 833 z "},"⑤":{"ha":1389,"x_min":23,"x_max":1367,"o":"m 357 1366 l 1032 1366 l 1367 1032 l 1367 357 l 1032 22 l 357 22 l 23 357 l 23 1032 l 357 1366 m 441 1199 l 190 948 l 190 441 l 441 190 l 948 190 l 1199 441 l 1199 948 l 948 1199 l 441 1199 m 358 1031 l 601 1031 l 601 975 l 1031 975 l 1031 776 l 590 776 l 590 651 l 635 651 l 635 731 l 1031 731 l 1031 358 l 693 358 l 869 534 l 838 567 l 629 358 l 358 358 l 358 1031 z "},"⑥":{"ha":1389,"x_min":23,"x_max":1367,"o":"m 357 1366 l 1032 1366 l 1367 1032 l 1367 357 l 1032 22 l 357 22 l 23 357 l 23 1032 l 357 1366 m 441 1199 l 190 948 l 190 441 l 441 190 l 948 190 l 1199 441 l 1199 948 l 948 1199 l 441 1199 m 598 1031 l 918 1031 l 918 830 l 694 830 l 694 785 l 1031 785 l 1031 358 l 358 358 l 358 865 l 598 1031 m 777 659 l 594 532 l 620 495 l 803 621 l 777 659 z "},"⑦":{"ha":1389,"x_min":23,"x_max":1367,"o":"m 357 1366 l 1032 1366 l 1367 1032 l 1367 357 l 1032 22 l 357 22 l 23 357 l 23 1032 l 357 1366 m 441 1199 l 190 948 l 190 441 l 441 190 l 948 190 l 1199 441 l 1199 948 l 948 1199 l 441 1199 m 358 1031 l 1031 1031 l 1031 720 l 918 525 l 918 358 l 492 358 l 709 735 l 671 757 l 538 528 l 358 528 l 358 1031 z "},"⑧":{"ha":1389,"x_min":23,"x_max":1367,"o":"m 357 1366 l 1032 1366 l 1367 1032 l 1367 357 l 1032 22 l 357 22 l 23 357 l 23 1032 l 357 1366 m 441 1199 l 190 948 l 190 441 l 441 190 l 948 190 l 1199 441 l 1199 948 l 948 1199 l 441 1199 m 526 1031 l 1031 1031 l 1031 718 l 947 718 l 947 671 l 1031 671 l 1031 471 l 863 358 l 358 358 l 358 671 l 442 671 l 442 718 l 358 718 l 358 918 l 526 1031 m 768 918 l 597 803 l 621 766 l 793 880 l 768 918 m 768 623 l 597 509 l 621 471 l 793 586 l 768 623 z "},"⑨":{"ha":1389,"x_min":23,"x_max":1367,"o":"m 357 1366 l 1032 1366 l 1367 1032 l 1367 357 l 1032 22 l 357 22 l 23 357 l 23 1032 l 357 1366 m 441 1199 l 190 948 l 190 441 l 441 190 l 948 190 l 1199 441 l 1199 948 l 948 1199 l 441 1199 m 358 1031 l 1031 1031 l 1031 515 l 803 358 l 358 358 l 358 420 l 560 560 l 694 560 l 694 605 l 358 605 l 358 1031 m 776 892 l 593 766 l 618 730 l 802 856 l 776 892 z "},"⑩":{"ha":1389,"x_min":23,"x_max":1367,"o":"m 357 1366 l 1032 1366 l 1367 1032 l 1367 357 l 1032 22 l 357 22 l 23 357 l 23 1032 l 357 1366 m 441 1199 l 190 948 l 190 441 l 441 190 l 948 190 l 1199 441 l 1199 948 l 948 1199 l 441 1199 m 477 1031 l 646 1031 l 646 582 l 671 582 l 671 358 l 358 358 l 358 582 l 457 582 l 457 656 l 505 708 l 472 738 l 377 635 l 377 921 l 477 1031 m 792 1031 l 1031 1031 l 1031 567 l 955 358 l 718 358 l 718 821 l 792 1031 m 897 823 l 808 579 l 850 564 l 939 808 l 897 823 z "},"⑪":{"ha":1389,"x_min":23,"x_max":1367,"o":"m 357 1366 l 1032 1366 l 1367 1032 l 1367 357 l 1032 22 l 357 22 l 23 357 l 23 1032 l 357 1366 m 441 1199 l 190 948 l 190 441 l 441 190 l 948 190 l 1199 441 l 1199 948 l 948 1199 l 441 1199 m 477 1031 l 646 1031 l 646 582 l 671 582 l 671 358 l 358 358 l 358 582 l 457 582 l 457 656 l 505 708 l 472 738 l 377 635 l 377 921 l 477 1031 m 836 1031 l 1004 1031 l 1004 582 l 1031 582 l 1031 358 l 718 358 l 718 582 l 815 582 l 815 656 l 864 708 l 830 738 l 735 635 l 735 921 l 836 1031 z "},"⑫":{"ha":1389,"x_min":23,"x_max":1367,"o":"m 357 1366 l 1032 1366 l 1367 1032 l 1367 357 l 1032 22 l 357 22 l 23 357 l 23 1032 l 357 1366 m 441 1199 l 190 948 l 190 441 l 441 190 l 948 190 l 1199 441 l 1199 948 l 948 1199 l 441 1199 m 477 1031 l 646 1031 l 646 582 l 671 582 l 671 358 l 358 358 l 358 582 l 457 582 l 457 656 l 505 708 l 472 738 l 377 635 l 377 921 l 477 1031 m 765 1031 l 1031 1031 l 1031 780 l 941 570 l 983 553 l 1031 665 l 1031 358 l 730 358 l 930 833 l 831 833 l 831 788 l 863 788 l 788 610 l 718 610 l 718 917 l 765 1031 z "},"⑬":{"ha":1389,"x_min":23,"x_max":1367,"o":"m 357 1366 l 1032 1366 l 1367 1032 l 1367 357 l 1032 22 l 357 22 l 23 357 l 23 1032 l 357 1366 m 441 1199 l 190 948 l 190 441 l 441 190 l 948 190 l 1199 441 l 1199 948 l 948 1199 l 441 1199 m 477 1031 l 646 1031 l 646 582 l 671 582 l 671 358 l 358 358 l 358 582 l 457 582 l 457 656 l 505 708 l 472 738 l 377 635 l 377 921 l 477 1031 m 788 1031 l 1031 1031 l 1031 827 l 996 772 l 1031 772 l 1031 467 l 960 358 l 777 358 l 964 650 l 926 673 l 766 423 l 766 648 l 899 856 l 861 880 l 718 655 l 718 918 l 788 1031 z "},"⑭":{"ha":1389,"x_min":23,"x_max":1367,"o":"m 357 1366 l 1032 1366 l 1367 1032 l 1367 357 l 1032 22 l 357 22 l 23 357 l 23 1032 l 357 1366 m 441 1199 l 190 948 l 190 441 l 441 190 l 948 190 l 1199 441 l 1199 948 l 948 1199 l 441 1199 m 477 1031 l 646 1031 l 646 582 l 671 582 l 671 358 l 358 358 l 358 582 l 457 582 l 457 656 l 505 708 l 472 738 l 377 635 l 377 921 l 477 1031 m 796 1031 l 1006 1031 l 1006 747 l 1031 747 l 1031 426 l 1006 426 l 1006 358 l 829 358 l 863 426 l 718 426 l 718 823 l 796 1031 m 883 827 l 804 621 l 846 605 l 925 811 l 883 827 z "},"⑮":{"ha":1389,"x_min":23,"x_max":1367,"o":"m 357 1366 l 1032 1366 l 1367 1032 l 1367 357 l 1032 22 l 357 22 l 23 357 l 23 1032 l 357 1366 m 441 1199 l 190 948 l 190 441 l 441 190 l 948 190 l 1199 441 l 1199 948 l 948 1199 l 441 1199 m 718 1031 l 825 1031 l 825 975 l 1031 975 l 1031 776 l 807 776 l 807 650 l 853 650 l 853 731 l 1031 731 l 1031 358 l 879 358 l 966 540 l 925 559 l 830 358 l 718 358 l 718 1031 m 477 1031 l 646 1031 l 646 582 l 671 582 l 671 358 l 358 358 l 358 582 l 457 582 l 457 656 l 505 708 l 472 738 l 377 635 l 377 921 l 477 1031 z "},"⑯":{"ha":1389,"x_min":23,"x_max":1367,"o":"m 357 1366 l 1032 1366 l 1367 1032 l 1367 357 l 1032 22 l 357 22 l 23 357 l 23 1032 l 357 1366 m 441 1199 l 190 948 l 190 441 l 441 190 l 948 190 l 1199 441 l 1199 948 l 948 1199 l 441 1199 m 477 1031 l 646 1031 l 646 582 l 671 582 l 671 358 l 358 358 l 358 582 l 457 582 l 457 656 l 505 708 l 472 738 l 377 635 l 377 921 l 477 1031 m 833 1031 l 986 1031 l 986 829 l 879 829 l 879 784 l 1031 784 l 1031 358 l 718 358 l 718 864 l 833 1031 m 906 651 l 818 524 l 856 498 l 944 625 l 906 651 z "},"⑰":{"ha":1389,"x_min":23,"x_max":1367,"o":"m 357 1366 l 1032 1366 l 1367 1032 l 1367 357 l 1032 22 l 357 22 l 23 357 l 23 1032 l 357 1366 m 441 1199 l 190 948 l 190 441 l 441 190 l 948 190 l 1199 441 l 1199 948 l 948 1199 l 441 1199 m 477 1031 l 646 1031 l 646 582 l 671 582 l 671 358 l 358 358 l 358 582 l 457 582 l 457 656 l 505 708 l 472 738 l 377 635 l 377 921 l 477 1031 m 718 1031 l 1031 1031 l 1031 718 l 977 525 l 977 358 l 783 358 l 888 741 l 845 751 l 783 526 l 718 526 l 718 1031 z "},"⑱":{"ha":1389,"x_min":23,"x_max":1367,"o":"m 357 1366 l 1032 1366 l 1367 1032 l 1367 357 l 1032 22 l 357 22 l 23 357 l 23 1032 l 357 1366 m 441 1199 l 190 948 l 190 441 l 441 190 l 948 190 l 1199 441 l 1199 948 l 948 1199 l 441 1199 m 477 1031 l 646 1031 l 646 582 l 671 582 l 671 358 l 358 358 l 358 582 l 457 582 l 457 656 l 505 708 l 472 738 l 377 635 l 377 921 l 477 1031 m 792 1031 l 1031 1031 l 1031 716 l 996 716 l 996 671 l 1031 671 l 1031 463 l 955 358 l 718 358 l 718 671 l 751 671 l 751 716 l 718 716 l 718 925 l 792 1031 m 897 913 l 814 798 l 850 772 l 933 886 l 897 913 m 897 617 l 814 502 l 850 476 l 933 590 l 897 617 z "},"⑲":{"ha":1389,"x_min":23,"x_max":1367,"o":"m 357 1366 l 1032 1366 l 1367 1032 l 1367 357 l 1032 22 l 357 22 l 23 357 l 23 1032 l 357 1366 m 441 1199 l 190 948 l 190 441 l 441 190 l 948 190 l 1199 441 l 1199 948 l 948 1199 l 441 1199 m 477 1031 l 646 1031 l 646 582 l 671 582 l 671 358 l 358 358 l 358 582 l 457 582 l 457 656 l 505 708 l 472 738 l 377 635 l 377 921 l 477 1031 m 718 1031 l 1031 1031 l 1031 514 l 922 358 l 718 358 l 718 422 l 814 562 l 869 562 l 869 606 l 718 606 l 718 1031 m 897 890 l 808 762 l 846 736 l 935 864 l 897 890 z "},"⑳":{"ha":1389,"x_min":23,"x_max":1367,"o":"m 357 1366 l 1032 1366 l 1367 1032 l 1367 357 l 1032 22 l 357 22 l 23 357 l 23 1032 l 357 1366 m 441 1199 l 190 948 l 190 441 l 441 190 l 948 190 l 1199 441 l 1199 948 l 948 1199 l 441 1199 m 407 1031 l 671 1031 l 671 780 l 583 570 l 625 553 l 671 665 l 671 358 l 372 358 l 572 833 l 473 833 l 473 788 l 505 788 l 429 610 l 358 610 l 358 917 l 407 1031 m 792 1031 l 1031 1031 l 1031 567 l 955 358 l 718 358 l 718 821 l 792 1031 m 897 823 l 808 579 l 850 564 l 939 808 l 897 823 z "},"⑴":{"ha":1389,"x_min":0,"x_max":0,"o":""},"⑵":{"ha":1389,"x_min":0,"x_max":0,"o":""},"⑶":{"ha":1389,"x_min":0,"x_max":0,"o":""},"⑷":{"ha":1389,"x_min":0,"x_max":0,"o":""},"⑸":{"ha":1389,"x_min":0,"x_max":0,"o":""},"⑹":{"ha":1389,"x_min":0,"x_max":0,"o":""},"⑺":{"ha":1389,"x_min":0,"x_max":0,"o":""},"⑻":{"ha":1389,"x_min":0,"x_max":0,"o":""},"⑼":{"ha":1389,"x_min":0,"x_max":0,"o":""},"⑽":{"ha":1389,"x_min":0,"x_max":0,"o":""},"⑾":{"ha":1389,"x_min":0,"x_max":0,"o":""},"⑿":{"ha":1389,"x_min":0,"x_max":0,"o":""},"⒀":{"ha":1389,"x_min":0,"x_max":0,"o":""},"⒁":{"ha":1389,"x_min":0,"x_max":0,"o":""},"⒂":{"ha":1389,"x_min":0,"x_max":0,"o":""},"⒃":{"ha":1389,"x_min":0,"x_max":0,"o":""},"⒄":{"ha":1389,"x_min":0,"x_max":0,"o":""},"⒅":{"ha":1389,"x_min":0,"x_max":0,"o":""},"⒆":{"ha":1389,"x_min":0,"x_max":0,"o":""},"⒇":{"ha":1389,"x_min":0,"x_max":0,"o":""},"⒈":{"ha":1389,"x_min":0,"x_max":0,"o":""},"⒉":{"ha":1389,"x_min":0,"x_max":0,"o":""},"⒊":{"ha":1389,"x_min":0,"x_max":0,"o":""},"⒋":{"ha":1389,"x_min":0,"x_max":0,"o":""},"⒌":{"ha":1389,"x_min":0,"x_max":0,"o":""},"⒍":{"ha":1389,"x_min":0,"x_max":0,"o":""},"⒎":{"ha":1389,"x_min":0,"x_max":0,"o":""},"⒏":{"ha":1389,"x_min":0,"x_max":0,"o":""},"⒐":{"ha":1389,"x_min":0,"x_max":0,"o":""},"⒑":{"ha":1389,"x_min":0,"x_max":0,"o":""},"⒒":{"ha":1389,"x_min":0,"x_max":0,"o":""},"⒓":{"ha":1389,"x_min":0,"x_max":0,"o":""},"⒔":{"ha":1389,"x_min":0,"x_max":0,"o":""},"⒕":{"ha":1389,"x_min":0,"x_max":0,"o":""},"⒖":{"ha":1389,"x_min":0,"x_max":0,"o":""},"⒗":{"ha":1389,"x_min":0,"x_max":0,"o":""},"⒘":{"ha":1389,"x_min":0,"x_max":0,"o":""},"⒙":{"ha":1389,"x_min":0,"x_max":0,"o":""},"⒚":{"ha":1389,"x_min":0,"x_max":0,"o":""},"⒛":{"ha":1389,"x_min":0,"x_max":0,"o":""},"⒜":{"ha":1389,"x_min":0,"x_max":0,"o":""},"⒝":{"ha":1389,"x_min":0,"x_max":0,"o":""},"⒞":{"ha":1389,"x_min":0,"x_max":0,"o":""},"⒟":{"ha":1389,"x_min":0,"x_max":0,"o":""},"⒠":{"ha":1389,"x_min":0,"x_max":0,"o":""},"⒡":{"ha":1389,"x_min":0,"x_max":0,"o":""},"⒢":{"ha":1389,"x_min":0,"x_max":0,"o":""},"⒣":{"ha":1389,"x_min":0,"x_max":0,"o":""},"⒤":{"ha":1389,"x_min":0,"x_max":0,"o":""},"⒥":{"ha":1389,"x_min":0,"x_max":0,"o":""},"⒦":{"ha":1389,"x_min":0,"x_max":0,"o":""},"⒧":{"ha":1389,"x_min":0,"x_max":0,"o":""},"⒨":{"ha":1389,"x_min":0,"x_max":0,"o":""},"⒩":{"ha":1389,"x_min":0,"x_max":0,"o":""},"⒪":{"ha":1389,"x_min":0,"x_max":0,"o":""},"⒫":{"ha":1389,"x_min":0,"x_max":0,"o":""},"⒬":{"ha":1389,"x_min":0,"x_max":0,"o":""},"⒭":{"ha":1389,"x_min":0,"x_max":0,"o":""},"⒮":{"ha":1389,"x_min":0,"x_max":0,"o":""},"⒯":{"ha":1389,"x_min":0,"x_max":0,"o":""},"⒰":{"ha":1389,"x_min":0,"x_max":0,"o":""},"⒱":{"ha":1389,"x_min":0,"x_max":0,"o":""},"⒲":{"ha":1389,"x_min":0,"x_max":0,"o":""},"⒳":{"ha":1389,"x_min":0,"x_max":0,"o":""},"⒴":{"ha":1389,"x_min":0,"x_max":0,"o":""},"⒵":{"ha":1389,"x_min":0,"x_max":0,"o":""},"Ⓐ":{"ha":1389,"x_min":0,"x_max":0,"o":""},"Ⓑ":{"ha":1389,"x_min":0,"x_max":0,"o":""},"Ⓒ":{"ha":1389,"x_min":0,"x_max":0,"o":""},"Ⓓ":{"ha":1389,"x_min":0,"x_max":0,"o":""},"Ⓔ":{"ha":1389,"x_min":0,"x_max":0,"o":""},"Ⓕ":{"ha":1389,"x_min":0,"x_max":0,"o":""},"Ⓖ":{"ha":1389,"x_min":0,"x_max":0,"o":""},"Ⓗ":{"ha":1389,"x_min":0,"x_max":0,"o":""},"Ⓘ":{"ha":1389,"x_min":0,"x_max":0,"o":""},"Ⓙ":{"ha":1389,"x_min":0,"x_max":0,"o":""},"Ⓚ":{"ha":1389,"x_min":0,"x_max":0,"o":""},"Ⓛ":{"ha":1389,"x_min":0,"x_max":0,"o":""},"Ⓜ":{"ha":1389,"x_min":0,"x_max":0,"o":""},"Ⓝ":{"ha":1389,"x_min":0,"x_max":0,"o":""},"Ⓞ":{"ha":1389,"x_min":0,"x_max":0,"o":""},"Ⓟ":{"ha":1389,"x_min":0,"x_max":0,"o":""},"Ⓠ":{"ha":1389,"x_min":0,"x_max":0,"o":""},"Ⓡ":{"ha":1389,"x_min":0,"x_max":0,"o":""},"Ⓢ":{"ha":1389,"x_min":0,"x_max":0,"o":""},"Ⓣ":{"ha":1389,"x_min":0,"x_max":0,"o":""},"Ⓤ":{"ha":1389,"x_min":0,"x_max":0,"o":""},"Ⓥ":{"ha":1389,"x_min":0,"x_max":0,"o":""},"Ⓦ":{"ha":1389,"x_min":0,"x_max":0,"o":""},"Ⓧ":{"ha":1389,"x_min":0,"x_max":0,"o":""},"Ⓨ":{"ha":1389,"x_min":0,"x_max":0,"o":""},"Ⓩ":{"ha":1389,"x_min":0,"x_max":0,"o":""},"ⓐ":{"ha":1389,"x_min":0,"x_max":0,"o":""},"ⓑ":{"ha":1389,"x_min":0,"x_max":0,"o":""},"ⓒ":{"ha":1389,"x_min":0,"x_max":0,"o":""},"ⓓ":{"ha":1389,"x_min":0,"x_max":0,"o":""},"ⓔ":{"ha":1389,"x_min":0,"x_max":0,"o":""},"ⓕ":{"ha":1389,"x_min":0,"x_max":0,"o":""},"ⓖ":{"ha":1389,"x_min":0,"x_max":0,"o":""},"ⓗ":{"ha":1389,"x_min":0,"x_max":0,"o":""},"ⓘ":{"ha":1389,"x_min":0,"x_max":0,"o":""},"ⓙ":{"ha":1389,"x_min":0,"x_max":0,"o":""},"ⓚ":{"ha":1389,"x_min":0,"x_max":0,"o":""},"ⓛ":{"ha":1389,"x_min":0,"x_max":0,"o":""},"ⓜ":{"ha":1389,"x_min":0,"x_max":0,"o":""},"ⓝ":{"ha":1389,"x_min":0,"x_max":0,"o":""},"ⓞ":{"ha":1389,"x_min":0,"x_max":0,"o":""},"ⓟ":{"ha":1389,"x_min":0,"x_max":0,"o":""},"ⓠ":{"ha":1389,"x_min":0,"x_max":0,"o":""},"ⓡ":{"ha":1389,"x_min":0,"x_max":0,"o":""},"ⓢ":{"ha":1389,"x_min":0,"x_max":0,"o":""},"ⓣ":{"ha":1389,"x_min":0,"x_max":0,"o":""},"ⓤ":{"ha":1389,"x_min":0,"x_max":0,"o":""},"ⓥ":{"ha":1389,"x_min":0,"x_max":0,"o":""},"ⓦ":{"ha":1389,"x_min":0,"x_max":0,"o":""},"ⓧ":{"ha":1389,"x_min":0,"x_max":0,"o":""},"ⓨ":{"ha":1389,"x_min":0,"x_max":0,"o":""},"ⓩ":{"ha":1389,"x_min":0,"x_max":0,"o":""},"⓪":{"ha":1389,"x_min":23,"x_max":1367,"o":"m 526 1031 l 1031 1031 l 1031 582 l 863 358 l 358 358 l 358 807 l 526 1031 m 768 830 l 585 586 l 621 559 l 804 803 l 768 830 m 357 1366 l 1032 1366 l 1367 1032 l 1367 357 l 1032 22 l 357 22 l 23 357 l 23 1032 l 357 1366 m 441 1199 l 190 948 l 190 441 l 441 190 l 948 190 l 1199 441 l 1199 948 l 948 1199 l 441 1199 z "},"⓫":{"ha":1389,"x_min":0,"x_max":0,"o":""},"⓬":{"ha":1389,"x_min":0,"x_max":0,"o":""},"⓭":{"ha":1389,"x_min":0,"x_max":0,"o":""},"⓮":{"ha":1389,"x_min":0,"x_max":0,"o":""},"⓯":{"ha":1389,"x_min":0,"x_max":0,"o":""},"⓰":{"ha":1389,"x_min":0,"x_max":0,"o":""},"⓱":{"ha":1389,"x_min":0,"x_max":0,"o":""},"⓲":{"ha":1389,"x_min":0,"x_max":0,"o":""},"⓳":{"ha":1389,"x_min":0,"x_max":0,"o":""},"⓴":{"ha":1389,"x_min":0,"x_max":0,"o":""},"⓵":{"ha":1389,"x_min":0,"x_max":0,"o":""},"⓶":{"ha":1389,"x_min":0,"x_max":0,"o":""},"⓷":{"ha":1389,"x_min":0,"x_max":0,"o":""},"⓸":{"ha":1389,"x_min":0,"x_max":0,"o":""},"⓹":{"ha":1389,"x_min":0,"x_max":0,"o":""},"⓺":{"ha":1389,"x_min":0,"x_max":0,"o":""},"⓻":{"ha":1389,"x_min":0,"x_max":0,"o":""},"⓼":{"ha":1389,"x_min":0,"x_max":0,"o":""},"⓽":{"ha":1389,"x_min":0,"x_max":0,"o":""},"⓾":{"ha":1389,"x_min":0,"x_max":0,"o":""},"─":{"ha":1389,"x_min":0,"x_max":1389,"o":"m 132 1157 l 198 1157 l 0 960 l 0 1027 l 132 1157 m 330 1157 l 396 1157 l 0 761 l 0 827 l 330 1157 m 528 1157 l 594 1157 l 0 563 l 0 629 l 528 1157 m 727 1157 l 792 1157 l 0 365 l 0 431 l 727 1157 m 925 1157 l 991 1157 l 65 232 l 0 232 l 925 1157 m 1123 1157 l 1190 1157 l 263 232 l 198 232 l 1123 1157 m 1322 1157 l 1388 1157 l 463 232 l 396 232 l 1322 1157 m 1389 1025 l 1389 960 l 661 232 l 594 232 l 1389 1025 m 1389 827 l 1389 761 l 859 232 l 792 232 l 1389 827 m 1389 629 l 1389 563 l 1058 232 l 991 232 l 1389 629 m 1389 431 l 1389 365 l 1256 232 l 1190 232 l 1389 431 z "},"━":{"ha":1389,"x_min":0,"x_max":1389,"o":"m 0 1157 l 1389 1157 l 1389 232 l 0 232 l 0 1157 z "},"│":{"ha":1389,"x_min":232,"x_max":1157,"o":"m 1157 1257 l 1157 1191 l 960 1389 l 1027 1389 l 1157 1257 m 1157 1059 l 1157 993 l 762 1389 l 827 1389 l 1157 1059 m 1157 861 l 1157 795 l 563 1389 l 629 1389 l 1157 861 m 1157 662 l 1157 597 l 365 1389 l 431 1389 l 1157 662 m 1157 464 l 1157 397 l 232 1324 l 232 1389 l 1157 464 m 1157 266 l 1157 199 l 232 1126 l 232 1191 l 1157 266 m 1157 66 l 1157 1 l 232 926 l 232 993 l 1157 66 m 1025 0 l 960 0 l 232 728 l 232 795 l 1025 0 m 827 0 l 761 0 l 232 530 l 232 597 l 827 0 m 629 0 l 563 0 l 232 331 l 232 397 l 629 0 m 431 0 l 365 0 l 232 133 l 232 199 l 431 0 z "},"┃":{"ha":1389,"x_min":232,"x_max":1157,"o":"m 232 1389 l 1157 1389 l 1157 0 l 232 0 l 232 1389 z "},"┄":{"ha":694,"x_min":0,"x_max":0,"o":""},"┅":{"ha":694,"x_min":0,"x_max":0,"o":""},"┆":{"ha":694,"x_min":0,"x_max":0,"o":""},"┇":{"ha":694,"x_min":0,"x_max":0,"o":""},"┈":{"ha":694,"x_min":0,"x_max":0,"o":""},"┉":{"ha":694,"x_min":0,"x_max":0,"o":""},"┊":{"ha":694,"x_min":0,"x_max":0,"o":""},"┋":{"ha":694,"x_min":0,"x_max":0,"o":""},"┌":{"ha":1389,"x_min":232,"x_max":1389,"o":"m 232 1158 l 264 1158 l 297 1126 l 330 1157 l 396 1157 l 331 1092 l 397 1027 l 463 1092 l 397 1158 l 463 1158 l 496 1126 l 528 1157 l 594 1157 l 529 1092 l 595 1027 l 662 1092 l 595 1158 l 662 1158 l 694 1126 l 727 1157 l 792 1157 l 727 1092 l 793 1027 l 860 1092 l 793 1158 l 860 1158 l 892 1126 l 925 1157 l 991 1157 l 926 1092 l 991 1025 l 1058 1092 l 991 1158 l 1058 1158 l 1092 1126 l 1123 1157 l 1190 1157 l 1124 1092 l 1157 1059 l 1157 993 l 1092 1059 l 1025 993 l 1092 926 l 1322 1157 l 1388 1157 l 1124 894 l 1157 861 l 1157 795 l 1092 861 l 1025 795 l 1092 728 l 1389 1025 l 1389 960 l 1124 696 l 1157 662 l 1157 597 l 1092 662 l 1025 597 l 1092 530 l 1389 827 l 1389 761 l 1124 496 l 1157 464 l 1157 397 l 1092 464 l 1025 397 l 1092 331 l 1157 397 l 1389 629 l 1389 563 l 1124 298 l 1157 266 l 1157 199 l 1092 266 l 1058 232 l 993 232 l 1157 66 l 1157 1 l 892 266 l 859 232 l 795 232 l 1025 0 l 960 0 l 694 266 l 661 232 l 597 232 l 827 0 l 761 0 l 496 266 l 463 232 l 397 232 l 629 0 l 563 0 l 297 266 l 263 232 l 232 232 l 232 266 l 264 298 l 232 331 l 232 397 l 297 332 l 363 397 l 297 464 l 232 397 l 232 464 l 264 496 l 232 530 l 232 597 l 297 530 l 363 597 l 297 662 l 232 597 l 232 662 l 264 696 l 232 728 l 232 795 l 297 728 l 363 795 l 297 861 l 232 795 l 232 861 l 264 894 l 232 926 l 232 993 l 297 926 l 363 993 l 297 1059 l 232 993 l 232 1059 l 264 1092 l 232 1126 l 232 1158 m 496 1059 l 430 993 l 496 926 l 562 993 l 496 1059 m 694 1059 l 628 993 l 694 926 l 761 993 l 694 1059 m 892 1059 l 827 993 l 892 926 l 959 993 l 892 1059 m 397 960 l 331 894 l 397 827 l 463 894 l 397 960 m 595 960 l 529 894 l 595 827 l 662 894 l 595 960 m 793 960 l 727 894 l 793 827 l 860 894 l 793 960 m 991 960 l 926 894 l 991 827 l 1058 894 l 991 960 m 496 861 l 430 795 l 496 728 l 562 795 l 496 861 m 694 861 l 628 795 l 694 728 l 761 795 l 694 861 m 892 861 l 827 795 l 892 728 l 959 795 l 892 861 m 397 762 l 331 696 l 397 629 l 463 696 l 397 762 m 595 762 l 529 696 l 595 629 l 662 696 l 595 762 m 793 762 l 727 696 l 793 629 l 860 696 l 793 762 m 991 762 l 926 696 l 991 629 l 1058 696 l 991 762 m 496 662 l 430 597 l 496 530 l 562 597 l 496 662 m 694 662 l 628 597 l 694 530 l 761 597 l 694 662 m 892 662 l 827 597 l 892 530 l 959 597 l 892 662 m 397 563 l 331 498 l 397 431 l 463 498 l 397 563 m 595 563 l 529 498 l 595 431 l 662 498 l 595 563 m 793 563 l 727 498 l 793 431 l 860 498 l 793 563 m 991 563 l 926 498 l 991 431 l 1058 498 l 991 563 m 496 464 l 430 397 l 496 332 l 562 397 l 496 464 m 694 464 l 628 397 l 694 332 l 761 397 l 694 464 m 892 464 l 827 397 l 892 332 l 959 397 l 892 464 m 1389 431 l 1389 365 l 1256 232 l 1190 232 l 1389 431 m 397 365 l 331 298 l 397 233 l 463 298 l 397 365 m 595 365 l 529 298 l 595 233 l 662 298 l 595 365 m 793 365 l 727 298 l 793 233 l 860 298 l 793 365 m 991 365 l 926 298 l 991 233 l 1058 298 l 991 365 m 232 199 l 431 0 l 365 0 l 232 133 l 232 199 z "},"┍":{"ha":694,"x_min":0,"x_max":0,"o":""},"┎":{"ha":694,"x_min":0,"x_max":0,"o":""},"┏":{"ha":1389,"x_min":232,"x_max":1389,"o":"m 232 1157 l 1389 1157 l 1389 232 l 1157 232 l 1157 0 l 232 0 l 232 1157 z "},"┐":{"ha":1389,"x_min":0,"x_max":1157,"o":"m 132 1157 l 198 1157 l 0 960 l 0 1027 l 132 1157 m 232 1157 l 266 1157 l 297 1126 l 330 1157 l 396 1157 l 331 1092 l 397 1027 l 463 1092 l 397 1157 l 464 1157 l 496 1126 l 528 1157 l 594 1157 l 529 1092 l 595 1027 l 662 1092 l 597 1157 l 662 1157 l 694 1126 l 727 1157 l 792 1157 l 727 1092 l 793 1027 l 860 1092 l 795 1157 l 861 1157 l 892 1126 l 925 1157 l 991 1157 l 926 1092 l 991 1025 l 1058 1092 l 993 1157 l 1059 1157 l 1092 1126 l 1123 1157 l 1157 1157 l 1157 1126 l 1124 1092 l 1157 1059 l 1157 993 l 1092 1059 l 1025 993 l 1092 926 l 1157 993 l 1157 926 l 1124 894 l 1157 861 l 1157 795 l 1092 861 l 1025 795 l 1092 728 l 1157 795 l 1157 728 l 1124 696 l 1157 662 l 1157 597 l 1092 662 l 1025 597 l 1092 530 l 1157 597 l 1157 530 l 1124 496 l 1157 464 l 1157 397 l 1092 464 l 1025 397 l 1092 331 l 1157 397 l 1157 331 l 1124 298 l 1157 266 l 1157 199 l 1092 266 l 1058 232 l 993 232 l 1157 66 l 1157 1 l 892 266 l 859 232 l 795 232 l 1025 0 l 960 0 l 694 266 l 661 232 l 597 232 l 827 0 l 761 0 l 496 266 l 463 232 l 397 232 l 629 0 l 563 0 l 297 266 l 263 232 l 198 232 l 264 298 l 232 331 l 232 397 l 297 332 l 363 397 l 297 464 l 65 232 l 0 232 l 264 496 l 232 530 l 232 597 l 297 530 l 363 597 l 297 662 l 0 365 l 0 431 l 264 696 l 232 728 l 232 795 l 297 728 l 363 795 l 297 861 l 0 563 l 0 629 l 264 894 l 232 926 l 232 993 l 297 926 l 363 993 l 297 1059 l 0 761 l 0 827 l 264 1092 l 232 1126 l 232 1157 m 496 1059 l 430 993 l 496 926 l 562 993 l 496 1059 m 694 1059 l 628 993 l 694 926 l 761 993 l 694 1059 m 892 1059 l 827 993 l 892 926 l 959 993 l 892 1059 m 397 960 l 331 894 l 397 827 l 463 894 l 397 960 m 595 960 l 529 894 l 595 827 l 662 894 l 595 960 m 793 960 l 727 894 l 793 827 l 860 894 l 793 960 m 991 960 l 926 894 l 991 827 l 1058 894 l 991 960 m 496 861 l 430 795 l 496 728 l 562 795 l 496 861 m 694 861 l 628 795 l 694 728 l 761 795 l 694 861 m 892 861 l 827 795 l 892 728 l 959 795 l 892 861 m 397 762 l 331 696 l 397 629 l 463 696 l 397 762 m 595 762 l 529 696 l 595 629 l 662 696 l 595 762 m 793 762 l 727 696 l 793 629 l 860 696 l 793 762 m 991 762 l 926 696 l 991 629 l 1058 696 l 991 762 m 496 662 l 430 597 l 496 530 l 562 597 l 496 662 m 694 662 l 628 597 l 694 530 l 761 597 l 694 662 m 892 662 l 827 597 l 892 530 l 959 597 l 892 662 m 397 563 l 331 498 l 397 431 l 463 496 l 397 563 m 595 563 l 529 496 l 595 431 l 662 496 l 595 563 m 793 563 l 727 498 l 793 431 l 860 496 l 793 563 m 991 563 l 926 496 l 991 431 l 1058 496 l 991 563 m 496 464 l 430 397 l 496 332 l 562 397 l 496 464 m 694 464 l 628 397 l 694 332 l 761 397 l 694 464 m 892 464 l 827 397 l 892 332 l 959 397 l 892 464 m 397 365 l 331 298 l 397 232 l 463 298 l 397 365 m 595 365 l 529 298 l 595 232 l 662 298 l 595 365 m 793 365 l 727 298 l 793 232 l 860 298 l 793 365 m 991 365 l 926 298 l 991 232 l 1058 298 l 991 365 m 232 199 l 431 0 l 365 0 l 232 133 l 232 199 z "},"┑":{"ha":694,"x_min":0,"x_max":0,"o":""},"┒":{"ha":694,"x_min":0,"x_max":0,"o":""},"┓":{"ha":1389,"x_min":0,"x_max":1157,"o":"m 1157 1157 l 1157 0 l 232 0 l 232 232 l 0 232 l 0 1157 l 1157 1157 z "},"└":{"ha":1389,"x_min":232,"x_max":1389,"o":"m 232 1389 l 496 1126 l 528 1157 l 594 1157 l 529 1092 l 595 1025 l 662 1092 l 365 1389 l 431 1389 l 694 1126 l 727 1157 l 792 1157 l 727 1092 l 793 1025 l 860 1092 l 563 1389 l 629 1389 l 892 1126 l 925 1157 l 991 1157 l 926 1092 l 991 1025 l 1058 1092 l 761 1389 l 827 1389 l 1092 1126 l 1123 1157 l 1190 1157 l 1124 1092 l 1157 1059 l 1157 993 l 1092 1059 l 1025 993 l 1092 926 l 1322 1157 l 1388 1157 l 1124 894 l 1157 861 l 1157 795 l 1092 861 l 1025 795 l 1092 728 l 1389 1025 l 1389 960 l 1124 696 l 1157 662 l 1157 597 l 1092 662 l 1025 597 l 1092 530 l 1389 827 l 1389 761 l 1124 496 l 1157 464 l 1157 397 l 1092 464 l 1025 397 l 1092 331 l 1157 397 l 1389 629 l 1389 563 l 1124 298 l 1157 266 l 1157 232 l 1126 232 l 1092 266 l 1058 232 l 993 232 l 991 232 l 926 232 l 892 266 l 859 232 l 795 232 l 792 232 l 728 232 l 694 266 l 661 232 l 597 232 l 594 232 l 530 232 l 496 266 l 463 232 l 397 232 l 396 232 l 331 232 l 297 266 l 263 232 l 232 232 l 232 266 l 264 298 l 232 331 l 232 397 l 297 332 l 363 397 l 297 464 l 232 397 l 232 464 l 264 496 l 232 530 l 232 597 l 297 530 l 363 597 l 297 662 l 232 597 l 232 662 l 264 696 l 232 728 l 232 795 l 297 728 l 363 795 l 297 861 l 232 795 l 232 861 l 264 894 l 232 926 l 232 993 l 297 926 l 363 993 l 297 1059 l 232 993 l 232 1059 l 264 1092 l 232 1126 l 232 1191 l 297 1126 l 330 1157 l 396 1157 l 331 1092 l 397 1027 l 463 1092 l 232 1324 l 232 1389 m 960 1389 l 1027 1389 l 1157 1257 l 1157 1191 l 960 1389 m 496 1059 l 430 993 l 496 926 l 562 993 l 496 1059 m 694 1059 l 628 993 l 694 926 l 761 993 l 694 1059 m 892 1059 l 827 993 l 892 926 l 959 993 l 892 1059 m 397 960 l 331 894 l 397 827 l 463 894 l 397 960 m 595 960 l 529 894 l 595 827 l 662 894 l 595 960 m 793 960 l 727 894 l 793 827 l 860 894 l 793 960 m 991 960 l 926 894 l 991 827 l 1058 894 l 991 960 m 496 861 l 430 795 l 496 728 l 562 795 l 496 861 m 694 861 l 628 795 l 694 728 l 761 795 l 694 861 m 892 861 l 827 795 l 892 728 l 959 795 l 892 861 m 397 761 l 331 696 l 397 629 l 463 696 l 397 761 m 595 761 l 529 696 l 595 629 l 662 696 l 595 761 m 793 761 l 727 696 l 793 629 l 860 696 l 793 761 m 991 761 l 926 696 l 991 629 l 1058 696 l 991 761 m 496 662 l 430 597 l 496 530 l 562 597 l 496 662 m 892 662 l 827 597 l 892 530 l 959 597 l 892 662 m 694 662 l 628 597 l 694 530 l 761 597 l 694 662 m 397 563 l 331 496 l 397 431 l 463 496 l 397 563 m 595 563 l 529 496 l 595 431 l 662 496 l 595 563 m 793 563 l 727 496 l 793 431 l 860 496 l 793 563 m 991 563 l 926 496 l 991 431 l 1058 496 l 991 563 m 496 464 l 430 397 l 496 332 l 562 397 l 496 464 m 694 464 l 628 397 l 694 332 l 761 397 l 694 464 m 892 464 l 827 397 l 892 332 l 959 397 l 892 464 m 1389 431 l 1389 365 l 1256 232 l 1190 232 l 1389 431 m 397 365 l 331 298 l 397 232 l 463 298 l 397 365 m 595 365 l 529 298 l 595 232 l 662 298 l 595 365 m 793 365 l 727 298 l 793 232 l 860 298 l 793 365 m 991 365 l 926 298 l 991 232 l 1058 298 l 991 365 z "},"┕":{"ha":694,"x_min":0,"x_max":0,"o":""},"┖":{"ha":694,"x_min":0,"x_max":0,"o":""},"┗":{"ha":1389,"x_min":232,"x_max":1389,"o":"m 232 232 l 232 1389 l 1157 1389 l 1157 1157 l 1389 1157 l 1389 232 l 232 232 z "},"┘":{"ha":1389,"x_min":0,"x_max":1157,"o":"m 232 1389 l 496 1126 l 528 1157 l 594 1157 l 529 1092 l 595 1027 l 662 1092 l 365 1389 l 431 1389 l 694 1126 l 727 1157 l 792 1157 l 727 1092 l 793 1027 l 860 1092 l 563 1389 l 629 1389 l 892 1126 l 925 1157 l 991 1157 l 926 1092 l 991 1025 l 1058 1092 l 761 1389 l 827 1389 l 1092 1126 l 1123 1157 l 1157 1157 l 1157 1126 l 1124 1092 l 1157 1059 l 1157 993 l 1092 1059 l 1025 993 l 1092 926 l 1157 993 l 1157 926 l 1124 894 l 1157 861 l 1157 795 l 1092 861 l 1025 795 l 1092 728 l 1157 795 l 1157 728 l 1124 696 l 1157 662 l 1157 597 l 1092 662 l 1025 597 l 1092 530 l 1157 597 l 1157 530 l 1124 496 l 1157 464 l 1157 397 l 1092 464 l 1025 397 l 1092 331 l 1157 397 l 1157 331 l 1124 298 l 1157 266 l 1157 232 l 1126 232 l 1092 266 l 1058 232 l 993 232 l 991 232 l 926 232 l 892 266 l 859 232 l 795 232 l 792 232 l 728 232 l 694 266 l 661 232 l 597 232 l 594 232 l 530 232 l 496 266 l 463 232 l 397 232 l 396 232 l 331 232 l 297 266 l 263 232 l 198 232 l 264 298 l 232 331 l 232 397 l 297 332 l 363 397 l 297 464 l 65 232 l 0 232 l 264 496 l 232 530 l 232 597 l 297 530 l 363 597 l 297 662 l 0 365 l 0 431 l 264 696 l 232 728 l 232 795 l 297 728 l 363 795 l 297 861 l 0 563 l 0 629 l 264 894 l 232 926 l 232 993 l 297 926 l 363 993 l 297 1059 l 232 993 l 0 761 l 0 827 l 264 1092 l 232 1126 l 232 1191 l 297 1126 l 330 1157 l 396 1157 l 331 1092 l 397 1027 l 463 1092 l 232 1324 l 232 1389 m 960 1389 l 1027 1389 l 1157 1257 l 1157 1191 l 960 1389 m 132 1157 l 198 1157 l 0 960 l 0 1027 l 132 1157 m 496 1059 l 430 993 l 496 926 l 562 993 l 496 1059 m 694 1059 l 628 993 l 694 926 l 761 993 l 694 1059 m 892 1059 l 827 993 l 892 926 l 959 993 l 892 1059 m 397 960 l 331 894 l 397 827 l 463 894 l 397 960 m 595 960 l 529 894 l 595 827 l 662 894 l 595 960 m 793 960 l 727 894 l 793 827 l 860 894 l 793 960 m 991 960 l 926 894 l 991 827 l 1058 894 l 991 960 m 496 861 l 430 795 l 496 728 l 562 795 l 496 861 m 694 861 l 628 795 l 694 728 l 761 795 l 694 861 m 892 861 l 827 795 l 892 728 l 959 795 l 892 861 m 397 762 l 331 696 l 397 629 l 463 696 l 397 762 m 595 762 l 529 696 l 595 629 l 662 696 l 595 762 m 793 762 l 727 696 l 793 629 l 860 696 l 793 762 m 991 762 l 926 696 l 991 629 l 1058 696 l 991 762 m 496 662 l 430 597 l 496 530 l 562 597 l 496 662 m 892 662 l 827 597 l 892 530 l 959 597 l 892 662 m 694 662 l 628 597 l 694 530 l 761 597 l 694 662 m 397 563 l 331 498 l 397 431 l 463 498 l 397 563 m 595 563 l 529 498 l 595 431 l 662 498 l 595 563 m 793 563 l 727 498 l 793 431 l 860 498 l 793 563 m 991 563 l 926 498 l 991 431 l 1058 498 l 991 563 m 496 464 l 430 397 l 496 332 l 562 397 l 496 464 m 694 464 l 628 397 l 694 332 l 761 397 l 694 464 m 892 464 l 827 397 l 892 332 l 959 397 l 892 464 m 397 365 l 331 298 l 397 232 l 463 298 l 397 365 m 595 365 l 529 298 l 595 232 l 662 298 l 595 365 m 793 365 l 727 298 l 793 232 l 860 298 l 793 365 m 991 365 l 926 298 l 991 232 l 1058 298 l 991 365 z "},"┙":{"ha":694,"x_min":0,"x_max":0,"o":""},"┚":{"ha":694,"x_min":0,"x_max":0,"o":""},"┛":{"ha":1389,"x_min":0,"x_max":1157,"o":"m 1157 232 l 0 232 l 0 1157 l 232 1157 l 232 1389 l 1157 1389 l 1157 232 z "},"├":{"ha":1389,"x_min":232,"x_max":1389,"o":"m 232 1388 l 496 1124 l 528 1157 l 594 1157 l 529 1092 l 595 1025 l 662 1092 l 365 1388 l 431 1388 l 694 1124 l 727 1157 l 792 1157 l 727 1092 l 793 1025 l 860 1092 l 563 1388 l 629 1388 l 892 1124 l 925 1157 l 991 1157 l 926 1092 l 991 1025 l 1058 1092 l 762 1388 l 827 1388 l 1092 1124 l 1123 1157 l 1190 1157 l 1124 1092 l 1157 1058 l 1157 993 l 1092 1058 l 1025 993 l 1092 926 l 1322 1157 l 1388 1157 l 1124 892 l 1157 860 l 1157 793 l 1092 860 l 1025 793 l 1092 728 l 1389 1025 l 1389 959 l 1124 694 l 1157 662 l 1157 595 l 1092 662 l 1025 595 l 1092 529 l 1389 827 l 1389 761 l 1124 496 l 1157 464 l 1157 397 l 1092 464 l 1025 397 l 1092 331 l 1389 629 l 1389 563 l 1124 298 l 1157 266 l 1157 199 l 1092 266 l 1058 232 l 993 232 l 1157 66 l 1157 1 l 892 266 l 859 232 l 795 232 l 1025 0 l 960 0 l 694 266 l 661 232 l 597 232 l 827 0 l 761 0 l 496 266 l 463 232 l 397 232 l 629 0 l 563 0 l 297 266 l 263 232 l 232 232 l 232 266 l 264 298 l 232 331 l 232 397 l 297 331 l 363 397 l 297 464 l 232 397 l 232 464 l 264 496 l 232 529 l 232 595 l 297 530 l 363 595 l 297 662 l 232 595 l 232 662 l 264 694 l 232 728 l 232 793 l 297 728 l 363 793 l 297 860 l 232 793 l 232 860 l 264 894 l 232 926 l 232 993 l 297 926 l 363 993 l 297 1058 l 232 993 l 232 1058 l 264 1092 l 232 1124 l 232 1191 l 297 1124 l 330 1157 l 396 1157 l 331 1092 l 397 1025 l 463 1092 l 232 1322 l 232 1388 m 960 1388 l 1027 1388 l 1157 1257 l 1157 1191 l 960 1388 m 496 1058 l 430 993 l 496 926 l 562 993 l 496 1058 m 694 1058 l 628 993 l 694 926 l 761 993 l 694 1058 m 892 1058 l 827 993 l 892 926 l 959 993 l 892 1058 m 397 959 l 331 894 l 397 827 l 463 894 l 397 959 m 595 959 l 529 894 l 595 827 l 662 894 l 595 959 m 793 959 l 727 894 l 793 827 l 860 894 l 793 959 m 991 959 l 926 894 l 991 827 l 1058 894 l 991 959 m 496 860 l 430 793 l 496 728 l 562 793 l 496 860 m 694 860 l 628 793 l 694 728 l 761 793 l 694 860 m 892 860 l 827 793 l 892 728 l 959 793 l 892 860 m 397 761 l 331 694 l 397 629 l 463 694 l 397 761 m 595 761 l 529 694 l 595 629 l 662 694 l 595 761 m 793 761 l 727 694 l 793 629 l 860 694 l 793 761 m 991 761 l 926 694 l 991 629 l 1058 694 l 991 761 m 496 662 l 430 595 l 496 530 l 562 595 l 496 662 m 694 662 l 628 595 l 694 530 l 761 595 l 694 662 m 892 662 l 827 595 l 892 530 l 959 595 l 892 662 m 397 563 l 331 496 l 397 431 l 463 496 l 397 563 m 595 563 l 529 496 l 595 430 l 662 496 l 595 563 m 793 563 l 727 496 l 793 430 l 860 496 l 793 563 m 991 563 l 926 496 l 991 430 l 1058 496 l 991 563 m 496 464 l 430 397 l 496 331 l 562 397 l 496 464 m 694 464 l 628 397 l 694 331 l 761 397 l 694 464 m 892 464 l 827 397 l 892 331 l 959 397 l 892 464 m 1389 430 l 1389 365 l 1256 232 l 1190 232 l 1389 430 m 397 365 l 331 298 l 397 232 l 463 298 l 397 365 m 595 365 l 529 298 l 595 232 l 662 298 l 595 365 m 793 365 l 727 298 l 793 232 l 860 298 l 793 365 m 991 365 l 926 298 l 991 232 l 1058 298 l 991 365 m 232 199 l 431 0 l 365 0 l 232 133 l 232 199 z "},"┝":{"ha":1389,"x_min":232,"x_max":1389,"o":"m 232 1389 l 464 1157 l 597 1157 l 365 1389 l 431 1389 l 662 1157 l 795 1157 l 563 1389 l 629 1389 l 861 1157 l 993 1157 l 761 1389 l 827 1389 l 1059 1157 l 1389 1157 l 1389 232 l 1157 232 l 1157 199 l 1126 232 l 993 232 l 1157 66 l 1157 1 l 926 232 l 795 232 l 1025 0 l 960 0 l 728 232 l 597 232 l 827 0 l 761 0 l 530 232 l 397 232 l 629 0 l 563 0 l 331 232 l 232 232 l 232 1126 l 232 1191 l 266 1157 l 397 1157 l 232 1324 l 232 1389 m 960 1389 l 1027 1389 l 1157 1257 l 1157 1191 l 960 1389 m 232 199 l 431 0 l 365 0 l 232 133 l 232 199 z "},"┞":{"ha":694,"x_min":0,"x_max":0,"o":""},"┟":{"ha":694,"x_min":0,"x_max":0,"o":""},"┠":{"ha":1389,"x_min":232,"x_max":1389,"o":"m 232 1389 l 1157 1389 l 1157 1157 l 1190 1157 l 1157 1126 l 1157 993 l 1322 1157 l 1388 1157 l 1157 926 l 1157 795 l 1389 1025 l 1389 960 l 1157 728 l 1157 597 l 1389 827 l 1389 761 l 1157 530 l 1157 397 l 1389 629 l 1389 563 l 1157 331 l 1157 0 l 232 0 l 232 1389 m 1389 431 l 1389 365 l 1256 232 l 1190 232 l 1389 431 z "},"┡":{"ha":694,"x_min":0,"x_max":0,"o":""},"┢":{"ha":694,"x_min":0,"x_max":0,"o":""},"┣":{"ha":1389,"x_min":232,"x_max":1389,"o":"m 232 1389 l 1157 1389 l 1157 1157 l 1389 1157 l 1389 232 l 1157 232 l 1157 0 l 232 0 l 232 1389 z "},"┤":{"ha":1389,"x_min":0,"x_max":1157,"o":"m 232 1389 l 496 1126 l 528 1157 l 594 1157 l 529 1092 l 595 1027 l 662 1092 l 365 1389 l 431 1389 l 694 1126 l 727 1157 l 792 1157 l 727 1092 l 793 1027 l 860 1092 l 563 1389 l 629 1389 l 892 1126 l 925 1157 l 991 1157 l 926 1092 l 991 1025 l 1058 1092 l 762 1389 l 827 1389 l 1092 1126 l 1123 1157 l 1157 1157 l 1157 1126 l 1124 1092 l 1157 1059 l 1157 993 l 1092 1059 l 1025 993 l 1092 926 l 1157 993 l 1157 926 l 1124 894 l 1157 861 l 1157 795 l 1092 861 l 1025 795 l 1092 728 l 1157 795 l 1157 728 l 1124 696 l 1157 662 l 1157 597 l 1092 662 l 1025 597 l 1092 530 l 1157 597 l 1157 530 l 1124 496 l 1157 464 l 1157 397 l 1092 464 l 1025 397 l 1092 331 l 1157 397 l 1157 331 l 1124 298 l 1157 266 l 1157 199 l 1092 266 l 1058 232 l 993 232 l 1157 66 l 1157 1 l 892 266 l 859 232 l 795 232 l 1025 0 l 960 0 l 694 266 l 661 232 l 597 232 l 827 0 l 761 0 l 496 266 l 463 232 l 397 232 l 629 0 l 563 0 l 297 266 l 263 232 l 198 232 l 264 298 l 232 331 l 232 397 l 297 332 l 363 397 l 297 464 l 65 232 l 0 232 l 264 496 l 232 530 l 232 597 l 297 530 l 363 597 l 297 662 l 0 365 l 0 431 l 264 696 l 232 728 l 232 795 l 297 728 l 363 795 l 297 861 l 0 563 l 0 629 l 264 894 l 232 926 l 232 993 l 297 926 l 363 993 l 297 1059 l 0 761 l 0 827 l 264 1092 l 232 1126 l 232 1191 l 297 1126 l 330 1157 l 396 1157 l 331 1092 l 397 1027 l 463 1092 l 232 1324 l 232 1389 m 960 1389 l 1027 1389 l 1157 1257 l 1157 1191 l 960 1389 m 132 1157 l 198 1157 l 0 960 l 0 1027 l 132 1157 m 496 1059 l 430 993 l 496 926 l 562 993 l 496 1059 m 694 1059 l 628 993 l 694 926 l 761 993 l 694 1059 m 892 1059 l 827 993 l 892 926 l 959 993 l 892 1059 m 397 960 l 331 894 l 397 827 l 463 894 l 397 960 m 595 960 l 529 894 l 595 827 l 662 894 l 595 960 m 793 960 l 727 894 l 793 827 l 860 894 l 793 960 m 991 960 l 926 894 l 991 827 l 1058 894 l 991 960 m 496 861 l 430 795 l 496 728 l 562 795 l 496 861 m 694 861 l 628 795 l 694 728 l 761 795 l 694 861 m 892 861 l 827 795 l 892 728 l 959 795 l 892 861 m 397 762 l 331 696 l 397 629 l 463 696 l 397 762 m 595 762 l 529 696 l 595 629 l 662 696 l 595 762 m 793 762 l 727 696 l 793 629 l 860 696 l 793 762 m 991 762 l 926 696 l 991 629 l 1058 696 l 991 762 m 496 662 l 430 597 l 496 530 l 562 597 l 496 662 m 892 662 l 827 597 l 892 530 l 959 597 l 892 662 m 694 662 l 628 597 l 694 530 l 761 597 l 694 662 m 397 563 l 331 496 l 397 431 l 463 496 l 397 563 m 595 563 l 529 496 l 595 431 l 662 496 l 595 563 m 793 563 l 727 496 l 793 431 l 860 496 l 793 563 m 991 563 l 926 496 l 991 431 l 1058 496 l 991 563 m 496 464 l 430 397 l 496 332 l 562 397 l 496 464 m 694 464 l 628 397 l 694 332 l 761 397 l 694 464 m 892 464 l 827 397 l 892 332 l 959 397 l 892 464 m 397 365 l 331 298 l 397 232 l 463 298 l 397 365 m 595 365 l 529 298 l 595 232 l 662 298 l 595 365 m 793 365 l 727 298 l 793 232 l 860 298 l 793 365 m 991 365 l 926 298 l 991 232 l 1058 298 l 991 365 m 232 199 l 431 0 l 365 0 l 232 133 l 232 199 z "},"┥":{"ha":1389,"x_min":0,"x_max":1157,"o":"m 232 1389 l 464 1157 l 597 1157 l 365 1389 l 431 1389 l 662 1157 l 795 1157 l 563 1389 l 629 1389 l 861 1157 l 993 1157 l 761 1389 l 827 1389 l 1059 1157 l 1157 1157 l 1157 232 l 1157 199 l 1126 232 l 993 232 l 1157 66 l 1157 1 l 926 232 l 795 232 l 1025 0 l 960 0 l 728 232 l 595 232 l 827 0 l 761 0 l 530 232 l 397 232 l 629 0 l 563 0 l 331 232 l 0 232 l 0 1157 l 232 1157 l 232 1191 l 266 1157 l 397 1157 l 232 1324 l 232 1389 m 960 1389 l 1027 1389 l 1157 1257 l 1157 1191 l 960 1389 m 232 199 l 431 0 l 365 0 l 232 133 l 232 199 z "},"┦":{"ha":694,"x_min":0,"x_max":0,"o":""},"┧":{"ha":694,"x_min":0,"x_max":0,"o":""},"┨":{"ha":1389,"x_min":0,"x_max":1157,"o":"m 232 1389 l 1157 1389 l 1157 0 l 232 0 l 232 232 l 198 232 l 232 266 l 232 397 l 65 232 l 0 232 l 232 464 l 232 597 l 0 365 l 0 431 l 232 662 l 232 795 l 0 563 l 0 629 l 232 861 l 232 993 l 0 761 l 0 827 l 232 1059 l 232 1389 m 132 1157 l 198 1157 l 0 960 l 0 1027 l 132 1157 z "},"┩":{"ha":694,"x_min":0,"x_max":0,"o":""},"┪":{"ha":694,"x_min":0,"x_max":0,"o":""},"┫":{"ha":1389,"x_min":0,"x_max":1157,"o":"m 1157 0 l 232 0 l 232 232 l 0 232 l 0 1157 l 232 1157 l 232 1389 l 1157 1389 l 1157 0 z "},"┬":{"ha":1389,"x_min":0,"x_max":1389,"o":"m 991 1157 l 926 1092 l 991 1025 l 1058 1092 l 993 1157 l 1059 1157 l 1092 1126 l 1123 1157 l 1190 1157 l 1124 1092 l 1157 1059 l 1157 993 l 1092 1059 l 1025 993 l 1092 926 l 1322 1157 l 1388 1157 l 1124 894 l 1157 861 l 1157 795 l 1092 861 l 1025 795 l 1092 728 l 1389 1025 l 1389 960 l 1124 696 l 1157 662 l 1157 597 l 1092 662 l 1025 597 l 1092 530 l 1389 827 l 1389 761 l 1124 496 l 1157 464 l 1157 397 l 1092 464 l 1025 397 l 1092 331 l 1389 629 l 1389 563 l 1124 298 l 1157 266 l 1157 199 l 1092 266 l 1058 232 l 993 232 l 1157 66 l 1157 1 l 892 266 l 859 232 l 795 232 l 1025 0 l 960 0 l 694 266 l 661 232 l 597 232 l 827 0 l 761 0 l 496 266 l 463 232 l 397 232 l 629 0 l 563 0 l 297 266 l 263 232 l 198 232 l 264 298 l 232 331 l 232 397 l 297 332 l 363 397 l 297 464 l 65 232 l 0 232 l 264 496 l 232 530 l 232 597 l 297 530 l 363 597 l 297 662 l 0 365 l 0 431 l 264 696 l 232 728 l 232 795 l 297 728 l 363 795 l 297 861 l 0 563 l 0 629 l 264 894 l 232 926 l 232 993 l 297 926 l 363 993 l 297 1059 l 232 993 l 0 761 l 0 827 l 264 1092 l 232 1126 l 232 1157 l 266 1157 l 297 1126 l 330 1157 l 396 1157 l 331 1092 l 397 1027 l 463 1092 l 397 1157 l 464 1157 l 496 1126 l 528 1157 l 594 1157 l 529 1092 l 595 1027 l 662 1092 l 597 1157 l 662 1157 l 694 1126 l 727 1157 l 792 1157 l 727 1092 l 793 1027 l 860 1092 l 795 1157 l 861 1157 l 892 1126 l 925 1157 l 991 1157 m 132 1157 l 198 1157 l 0 960 l 0 1027 l 132 1157 m 496 1059 l 430 993 l 496 926 l 562 993 l 496 1059 m 694 1059 l 628 993 l 694 926 l 761 993 l 694 1059 m 892 1059 l 827 993 l 892 926 l 959 993 l 892 1059 m 397 960 l 331 894 l 397 827 l 463 894 l 397 960 m 595 960 l 529 894 l 595 827 l 662 894 l 595 960 m 793 960 l 727 894 l 793 827 l 860 894 l 793 960 m 991 960 l 926 894 l 991 827 l 1058 894 l 991 960 m 496 861 l 430 795 l 496 728 l 562 795 l 496 861 m 694 861 l 628 795 l 694 728 l 761 795 l 694 861 m 892 861 l 827 795 l 892 728 l 959 795 l 892 861 m 397 762 l 331 696 l 397 629 l 463 696 l 397 762 m 595 762 l 529 696 l 595 629 l 662 696 l 595 762 m 793 762 l 727 696 l 793 629 l 860 696 l 793 762 m 991 762 l 926 696 l 991 629 l 1058 696 l 991 762 m 496 662 l 430 597 l 496 530 l 562 597 l 496 662 m 892 662 l 827 597 l 892 530 l 959 597 l 892 662 m 694 662 l 628 597 l 694 530 l 761 597 l 694 662 m 397 563 l 331 498 l 397 431 l 463 498 l 397 563 m 595 563 l 529 498 l 595 431 l 662 498 l 595 563 m 793 563 l 727 498 l 793 431 l 860 498 l 793 563 m 991 563 l 926 498 l 991 431 l 1058 498 l 991 563 m 496 464 l 430 397 l 496 332 l 562 397 l 496 464 m 694 464 l 628 397 l 694 332 l 761 397 l 694 464 m 892 464 l 827 397 l 892 332 l 959 397 l 892 464 m 1389 431 l 1389 365 l 1256 232 l 1190 232 l 1389 431 m 397 365 l 331 298 l 397 232 l 463 298 l 397 365 m 595 365 l 529 298 l 595 233 l 662 298 l 595 365 m 793 365 l 727 298 l 793 233 l 860 298 l 793 365 m 991 365 l 926 298 l 991 233 l 1058 298 l 991 365 m 232 199 l 431 0 l 365 0 l 232 133 l 232 199 z "},"┭":{"ha":694,"x_min":0,"x_max":0,"o":""},"┮":{"ha":694,"x_min":0,"x_max":0,"o":""},"┯":{"ha":1389,"x_min":0,"x_max":1389,"o":"m 0 1157 l 1389 1157 l 1389 232 l 1157 232 l 1157 199 l 1126 232 l 993 232 l 1157 66 l 1157 1 l 926 232 l 795 232 l 1025 0 l 960 0 l 728 232 l 595 232 l 827 0 l 761 0 l 530 232 l 397 232 l 629 0 l 563 0 l 331 232 l 0 232 l 0 1157 m 232 199 l 431 0 l 365 0 l 232 133 l 232 199 z "},"┰":{"ha":1389,"x_min":0,"x_max":1389,"o":"m 132 1157 l 198 1157 l 0 960 l 0 1027 l 132 1157 m 232 1157 l 1123 1157 l 1157 1157 l 1190 1157 l 1157 1126 l 1157 993 l 1322 1157 l 1388 1157 l 1157 926 l 1157 795 l 1389 1025 l 1389 960 l 1157 728 l 1157 597 l 1389 827 l 1389 761 l 1157 530 l 1157 397 l 1389 629 l 1389 563 l 1157 331 l 1157 0 l 232 0 l 232 232 l 198 232 l 232 266 l 232 397 l 65 232 l 0 232 l 232 464 l 232 597 l 0 365 l 0 431 l 232 662 l 232 795 l 0 563 l 0 629 l 232 861 l 232 993 l 0 761 l 0 827 l 232 1059 l 232 1157 m 1389 431 l 1389 365 l 1256 232 l 1190 232 l 1389 431 z "},"┱":{"ha":694,"x_min":0,"x_max":0,"o":""},"┲":{"ha":694,"x_min":0,"x_max":0,"o":""},"┳":{"ha":1389,"x_min":0,"x_max":1389,"o":"m 1389 1157 l 1389 232 l 1157 232 l 1157 0 l 232 0 l 232 232 l 0 232 l 0 1157 l 1389 1157 z "},"┴":{"ha":1389,"x_min":0,"x_max":1389,"o":"m 232 1389 l 496 1126 l 528 1157 l 594 1157 l 529 1092 l 595 1027 l 662 1092 l 365 1389 l 431 1389 l 694 1126 l 727 1157 l 792 1157 l 727 1092 l 793 1027 l 860 1092 l 563 1389 l 629 1389 l 892 1126 l 925 1157 l 991 1157 l 926 1092 l 991 1025 l 1058 1092 l 761 1389 l 827 1389 l 1092 1126 l 1123 1157 l 1190 1157 l 1124 1092 l 1157 1059 l 1157 993 l 1092 1059 l 1025 993 l 1092 926 l 1322 1157 l 1388 1157 l 1124 894 l 1157 861 l 1157 795 l 1092 861 l 1025 795 l 1092 728 l 1389 1025 l 1389 960 l 1124 696 l 1157 662 l 1157 597 l 1092 662 l 1025 597 l 1092 530 l 1389 827 l 1389 761 l 1124 496 l 1157 464 l 1157 397 l 1092 464 l 1025 397 l 1092 331 l 1389 629 l 1389 563 l 1124 298 l 1157 266 l 1157 232 l 1126 232 l 1092 266 l 1058 232 l 991 232 l 926 232 l 892 266 l 859 232 l 792 232 l 728 232 l 694 266 l 661 232 l 594 232 l 530 232 l 496 266 l 463 232 l 396 232 l 331 232 l 297 266 l 263 232 l 198 232 l 264 298 l 232 331 l 232 397 l 297 332 l 363 397 l 297 464 l 65 232 l 0 232 l 264 496 l 232 530 l 232 597 l 297 530 l 363 597 l 297 662 l 0 365 l 0 431 l 264 696 l 232 728 l 232 795 l 297 728 l 363 795 l 297 861 l 0 563 l 0 629 l 264 894 l 232 926 l 232 993 l 297 926 l 363 993 l 297 1059 l 0 761 l 0 827 l 264 1092 l 232 1126 l 232 1191 l 297 1126 l 330 1157 l 396 1157 l 331 1092 l 397 1027 l 463 1092 l 232 1324 l 232 1389 m 960 1389 l 1027 1389 l 1157 1257 l 1157 1191 l 960 1389 m 132 1157 l 198 1157 l 0 960 l 0 1027 l 132 1157 m 496 1059 l 430 993 l 496 926 l 562 993 l 496 1059 m 694 1059 l 628 993 l 694 926 l 761 993 l 694 1059 m 892 1059 l 827 993 l 892 926 l 959 993 l 892 1059 m 397 960 l 331 894 l 397 827 l 463 894 l 397 960 m 595 960 l 529 894 l 595 827 l 662 894 l 595 960 m 793 960 l 727 894 l 793 827 l 860 894 l 793 960 m 991 960 l 926 894 l 991 827 l 1058 894 l 991 960 m 496 861 l 430 795 l 496 728 l 562 795 l 496 861 m 694 861 l 628 795 l 694 728 l 761 795 l 694 861 m 892 861 l 827 795 l 892 728 l 959 795 l 892 861 m 397 762 l 331 696 l 397 629 l 463 696 l 397 762 m 595 762 l 529 696 l 595 629 l 662 696 l 595 762 m 793 762 l 727 696 l 793 629 l 860 696 l 793 762 m 991 762 l 926 696 l 991 629 l 1058 696 l 991 762 m 496 662 l 430 597 l 496 530 l 562 597 l 496 662 m 892 662 l 827 597 l 892 530 l 959 597 l 892 662 m 694 662 l 628 597 l 694 530 l 761 597 l 694 662 m 397 563 l 331 498 l 397 431 l 463 498 l 397 563 m 595 563 l 529 498 l 595 431 l 662 498 l 595 563 m 793 563 l 727 498 l 793 431 l 860 498 l 793 563 m 991 563 l 926 498 l 991 431 l 1058 498 l 991 563 m 496 464 l 430 397 l 496 332 l 562 397 l 496 464 m 694 464 l 628 397 l 694 332 l 761 397 l 694 464 m 892 464 l 827 397 l 892 332 l 959 397 l 892 464 m 1389 431 l 1389 365 l 1256 232 l 1190 232 l 1389 431 m 397 365 l 331 298 l 397 232 l 463 298 l 397 365 m 595 365 l 529 298 l 595 232 l 662 298 l 595 365 m 793 365 l 727 298 l 793 232 l 860 298 l 793 365 m 991 365 l 926 298 l 991 232 l 1058 298 l 991 365 z "},"┵":{"ha":694,"x_min":0,"x_max":0,"o":""},"┶":{"ha":694,"x_min":0,"x_max":0,"o":""},"┷":{"ha":1389,"x_min":0,"x_max":1389,"o":"m 232 1389 l 464 1157 l 597 1157 l 365 1389 l 431 1389 l 662 1157 l 795 1157 l 563 1389 l 629 1389 l 861 1157 l 993 1157 l 761 1389 l 827 1389 l 1059 1157 l 1389 1157 l 1389 232 l 0 232 l 0 1157 l 232 1157 l 232 1191 l 266 1157 l 397 1157 l 232 1324 l 232 1389 m 960 1389 l 1027 1389 l 1157 1257 l 1157 1191 l 960 1389 z "},"┸":{"ha":1389,"x_min":0,"x_max":1389,"o":"m 232 1389 l 1157 1389 l 1157 1157 l 1190 1157 l 1157 1126 l 1157 993 l 1322 1157 l 1388 1157 l 1157 926 l 1157 795 l 1389 1025 l 1389 960 l 1157 728 l 1157 597 l 1389 827 l 1389 761 l 1157 530 l 1157 397 l 1389 629 l 1389 563 l 1157 331 l 1157 232 l 263 232 l 232 232 l 198 232 l 232 266 l 232 397 l 65 232 l 0 232 l 232 464 l 232 597 l 0 365 l 0 431 l 232 662 l 232 795 l 0 563 l 0 629 l 232 861 l 232 993 l 0 761 l 0 827 l 232 1059 l 232 1389 m 132 1157 l 198 1157 l 0 960 l 0 1027 l 132 1157 m 1389 431 l 1389 365 l 1256 232 l 1190 232 l 1389 431 z "},"┹":{"ha":694,"x_min":0,"x_max":0,"o":""},"┺":{"ha":694,"x_min":0,"x_max":0,"o":""},"┻":{"ha":1389,"x_min":0,"x_max":1389,"o":"m 0 232 l 0 1157 l 232 1157 l 232 1389 l 1157 1389 l 1157 1157 l 1389 1157 l 1389 232 l 0 232 z "},"┼":{"ha":1389,"x_min":0,"x_max":1389,"o":"m 132 1157 l 198 1157 l 0 960 l 0 1027 l 132 1157 m 330 1157 l 396 1157 l 0 761 l 0 827 l 330 1157 m 528 1157 l 594 1157 l 0 563 l 0 629 l 528 1157 m 727 1157 l 792 1157 l 0 365 l 0 431 l 727 1157 m 925 1157 l 991 1157 l 65 232 l 0 232 l 925 1157 m 1123 1157 l 1190 1157 l 263 232 l 198 232 l 1123 1157 m 1322 1157 l 1388 1157 l 463 232 l 396 232 l 1322 1157 m 1389 1025 l 1389 960 l 661 232 l 594 232 l 1389 1025 m 1389 827 l 1389 761 l 859 232 l 792 232 l 1389 827 m 1389 629 l 1389 563 l 1058 232 l 991 232 l 1389 629 m 1389 431 l 1389 365 l 1256 232 l 1190 232 l 1389 431 m 1157 1257 l 1157 1191 l 960 1389 l 1027 1389 l 1157 1257 m 1157 1059 l 1157 993 l 761 1389 l 827 1389 l 1157 1059 m 1157 861 l 1157 795 l 563 1389 l 629 1389 l 1157 861 m 1157 662 l 1157 597 l 365 1389 l 431 1389 l 1157 662 m 1157 464 l 1157 397 l 232 1324 l 232 1389 l 1157 464 m 1157 266 l 1157 199 l 232 1126 l 232 1191 l 1157 266 m 1157 66 l 1157 1 l 232 926 l 232 993 l 1157 66 m 1025 0 l 960 0 l 232 728 l 232 795 l 1025 0 m 827 0 l 761 0 l 232 530 l 232 597 l 827 0 m 629 0 l 563 0 l 232 331 l 232 397 l 629 0 m 431 0 l 365 0 l 232 133 l 232 199 l 431 0 z "},"┽":{"ha":694,"x_min":0,"x_max":0,"o":""},"┾":{"ha":694,"x_min":0,"x_max":0,"o":""},"┿":{"ha":1389,"x_min":0,"x_max":1389,"o":"m 232 1389 l 464 1157 l 597 1157 l 365 1389 l 431 1389 l 662 1157 l 795 1157 l 563 1389 l 629 1389 l 861 1157 l 993 1157 l 761 1389 l 827 1389 l 1059 1157 l 1389 1157 l 1389 232 l 1157 232 l 1157 199 l 1126 232 l 993 232 l 1157 66 l 1157 1 l 926 232 l 795 232 l 1025 0 l 960 0 l 728 232 l 597 232 l 827 0 l 761 0 l 530 232 l 397 232 l 629 0 l 563 0 l 331 232 l 0 232 l 0 1157 l 232 1157 l 232 1191 l 266 1157 l 397 1157 l 232 1324 l 232 1389 m 960 1389 l 1027 1389 l 1157 1257 l 1157 1191 l 960 1389 m 232 199 l 431 0 l 365 0 l 232 133 l 232 199 z "},"╀":{"ha":694,"x_min":0,"x_max":0,"o":""},"╁":{"ha":694,"x_min":0,"x_max":0,"o":""},"╂":{"ha":1389,"x_min":0,"x_max":1389,"o":"m 232 1389 l 1157 1389 l 1157 1157 l 1190 1157 l 1157 1126 l 1157 993 l 1322 1157 l 1388 1157 l 1157 926 l 1157 795 l 1389 1025 l 1389 960 l 1157 728 l 1157 597 l 1389 827 l 1389 761 l 1157 530 l 1157 397 l 1389 629 l 1389 563 l 1157 331 l 1157 0 l 232 0 l 232 232 l 198 232 l 232 266 l 232 397 l 65 232 l 0 232 l 232 464 l 232 597 l 0 365 l 0 431 l 232 662 l 232 795 l 0 563 l 0 629 l 232 861 l 232 993 l 0 761 l 0 827 l 232 1059 l 232 1389 m 132 1157 l 198 1157 l 0 960 l 0 1027 l 132 1157 m 1389 431 l 1389 365 l 1256 232 l 1190 232 l 1389 431 z "},"╃":{"ha":694,"x_min":0,"x_max":0,"o":""},"╄":{"ha":694,"x_min":0,"x_max":0,"o":""},"╅":{"ha":694,"x_min":0,"x_max":0,"o":""},"╆":{"ha":694,"x_min":0,"x_max":0,"o":""},"╇":{"ha":694,"x_min":0,"x_max":0,"o":""},"╈":{"ha":694,"x_min":0,"x_max":0,"o":""},"╉":{"ha":694,"x_min":0,"x_max":0,"o":""},"╊":{"ha":694,"x_min":0,"x_max":0,"o":""},"╋":{"ha":1389,"x_min":0,"x_max":1389,"o":"m 232 1389 l 1157 1389 l 1157 1157 l 1389 1157 l 1389 232 l 1157 232 l 1157 0 l 232 0 l 232 232 l 0 232 l 0 1157 l 232 1157 l 232 1389 z "},"╌":{"ha":694,"x_min":0,"x_max":0,"o":""},"╍":{"ha":694,"x_min":0,"x_max":0,"o":""},"╎":{"ha":694,"x_min":0,"x_max":0,"o":""},"╏":{"ha":694,"x_min":0,"x_max":0,"o":""},"═":{"ha":694,"x_min":0,"x_max":0,"o":""},"║":{"ha":694,"x_min":0,"x_max":0,"o":""},"╒":{"ha":694,"x_min":0,"x_max":0,"o":""},"╓":{"ha":694,"x_min":0,"x_max":0,"o":""},"╔":{"ha":694,"x_min":0,"x_max":0,"o":""},"╕":{"ha":694,"x_min":0,"x_max":0,"o":""},"╖":{"ha":694,"x_min":0,"x_max":0,"o":""},"╗":{"ha":694,"x_min":0,"x_max":0,"o":""},"╘":{"ha":694,"x_min":0,"x_max":0,"o":""},"╙":{"ha":694,"x_min":0,"x_max":0,"o":""},"╚":{"ha":694,"x_min":0,"x_max":0,"o":""},"╛":{"ha":694,"x_min":0,"x_max":0,"o":""},"╜":{"ha":694,"x_min":0,"x_max":0,"o":""},"╝":{"ha":694,"x_min":0,"x_max":0,"o":""},"╞":{"ha":694,"x_min":0,"x_max":0,"o":""},"╟":{"ha":694,"x_min":0,"x_max":0,"o":""},"╠":{"ha":694,"x_min":0,"x_max":0,"o":""},"╡":{"ha":694,"x_min":0,"x_max":0,"o":""},"╢":{"ha":694,"x_min":0,"x_max":0,"o":""},"╣":{"ha":694,"x_min":0,"x_max":0,"o":""},"╤":{"ha":694,"x_min":0,"x_max":0,"o":""},"╥":{"ha":694,"x_min":0,"x_max":0,"o":""},"╦":{"ha":694,"x_min":0,"x_max":0,"o":""},"╧":{"ha":694,"x_min":0,"x_max":0,"o":""},"╨":{"ha":694,"x_min":0,"x_max":0,"o":""},"╩":{"ha":694,"x_min":0,"x_max":0,"o":""},"╪":{"ha":694,"x_min":0,"x_max":0,"o":""},"╫":{"ha":694,"x_min":0,"x_max":0,"o":""},"╬":{"ha":694,"x_min":0,"x_max":0,"o":""},"╭":{"ha":694,"x_min":0,"x_max":0,"o":""},"╮":{"ha":694,"x_min":0,"x_max":0,"o":""},"╯":{"ha":694,"x_min":0,"x_max":0,"o":""},"╰":{"ha":694,"x_min":0,"x_max":0,"o":""},"╱":{"ha":694,"x_min":0,"x_max":0,"o":""},"╲":{"ha":694,"x_min":0,"x_max":0,"o":""},"╳":{"ha":694,"x_min":0,"x_max":0,"o":""},"╴":{"ha":694,"x_min":0,"x_max":0,"o":""},"╵":{"ha":694,"x_min":0,"x_max":0,"o":""},"╶":{"ha":694,"x_min":0,"x_max":0,"o":""},"╷":{"ha":694,"x_min":0,"x_max":0,"o":""},"╸":{"ha":694,"x_min":0,"x_max":0,"o":""},"╹":{"ha":694,"x_min":0,"x_max":0,"o":""},"╺":{"ha":694,"x_min":0,"x_max":0,"o":""},"╻":{"ha":694,"x_min":0,"x_max":0,"o":""},"╼":{"ha":694,"x_min":0,"x_max":0,"o":""},"╽":{"ha":694,"x_min":0,"x_max":0,"o":""},"╾":{"ha":694,"x_min":0,"x_max":0,"o":""},"╿":{"ha":694,"x_min":0,"x_max":0,"o":""},"▀":{"ha":694,"x_min":0,"x_max":0,"o":""},"▁":{"ha":694,"x_min":0,"x_max":0,"o":""},"▂":{"ha":694,"x_min":0,"x_max":0,"o":""},"▃":{"ha":694,"x_min":0,"x_max":0,"o":""},"▄":{"ha":694,"x_min":0,"x_max":0,"o":""},"▅":{"ha":694,"x_min":0,"x_max":0,"o":""},"▆":{"ha":694,"x_min":0,"x_max":0,"o":""},"▇":{"ha":694,"x_min":0,"x_max":0,"o":""},"█":{"ha":694,"x_min":0,"x_max":0,"o":""},"▉":{"ha":694,"x_min":0,"x_max":0,"o":""},"▊":{"ha":694,"x_min":0,"x_max":0,"o":""},"▋":{"ha":694,"x_min":0,"x_max":0,"o":""},"▌":{"ha":694,"x_min":0,"x_max":0,"o":""},"▍":{"ha":694,"x_min":0,"x_max":0,"o":""},"▎":{"ha":694,"x_min":0,"x_max":0,"o":""},"▏":{"ha":694,"x_min":0,"x_max":0,"o":""},"▐":{"ha":694,"x_min":0,"x_max":0,"o":""},"░":{"ha":694,"x_min":0,"x_max":0,"o":""},"▒":{"ha":694,"x_min":0,"x_max":0,"o":""},"▓":{"ha":694,"x_min":0,"x_max":0,"o":""},"▔":{"ha":694,"x_min":0,"x_max":0,"o":""},"▕":{"ha":694,"x_min":0,"x_max":0,"o":""},"■":{"ha":1389,"x_min":0,"x_max":0,"o":""},"□":{"ha":1389,"x_min":0,"x_max":0,"o":""},"▢":{"ha":694,"x_min":0,"x_max":0,"o":""},"▣":{"ha":694,"x_min":0,"x_max":0,"o":""},"▤":{"ha":694,"x_min":0,"x_max":0,"o":""},"▥":{"ha":694,"x_min":0,"x_max":0,"o":""},"▦":{"ha":694,"x_min":0,"x_max":0,"o":""},"▧":{"ha":694,"x_min":0,"x_max":0,"o":""},"▨":{"ha":694,"x_min":0,"x_max":0,"o":""},"▩":{"ha":694,"x_min":0,"x_max":0,"o":""},"▪":{"ha":694,"x_min":0,"x_max":0,"o":""},"▫":{"ha":694,"x_min":0,"x_max":0,"o":""},"▬":{"ha":694,"x_min":0,"x_max":0,"o":""},"▭":{"ha":694,"x_min":0,"x_max":0,"o":""},"▮":{"ha":694,"x_min":0,"x_max":0,"o":""},"▯":{"ha":694,"x_min":0,"x_max":0,"o":""},"▰":{"ha":694,"x_min":0,"x_max":0,"o":""},"▱":{"ha":694,"x_min":0,"x_max":0,"o":""},"▲":{"ha":1389,"x_min":23,"x_max":1367,"o":"m 471 1366 l 918 1366 l 1367 471 l 1367 22 l 23 22 l 23 471 l 471 1366 z "},"△":{"ha":1389,"x_min":23,"x_max":1367,"o":"m 471 1366 l 918 1366 l 1367 471 l 1367 22 l 23 22 l 23 471 l 471 1366 m 674 985 l 395 425 l 415 392 l 974 392 l 994 425 l 715 985 l 674 985 m 694 925 l 939 437 l 450 437 l 694 925 z "},"▴":{"ha":694,"x_min":0,"x_max":0,"o":""},"▵":{"ha":694,"x_min":0,"x_max":0,"o":""},"▶":{"ha":694,"x_min":0,"x_max":0,"o":""},"▷":{"ha":694,"x_min":0,"x_max":0,"o":""},"▸":{"ha":694,"x_min":0,"x_max":0,"o":""},"▹":{"ha":694,"x_min":0,"x_max":0,"o":""},"►":{"ha":694,"x_min":0,"x_max":0,"o":""},"▻":{"ha":694,"x_min":0,"x_max":0,"o":""},"▼":{"ha":1389,"x_min":23,"x_max":1367,"o":"m 471 22 l 23 918 l 23 1366 l 1367 1366 l 1367 918 l 918 22 l 471 22 z "},"▽":{"ha":1389,"x_min":23,"x_max":1367,"o":"m 471 22 l 23 918 l 23 1366 l 1367 1366 l 1367 918 l 918 22 l 471 22 m 674 404 l 715 404 l 994 964 l 974 997 l 415 997 l 395 964 l 674 404 m 694 464 l 450 952 l 939 952 l 694 464 z "},"▾":{"ha":694,"x_min":0,"x_max":0,"o":""},"▿":{"ha":694,"x_min":0,"x_max":0,"o":""},"◀":{"ha":694,"x_min":0,"x_max":0,"o":""},"◁":{"ha":694,"x_min":0,"x_max":0,"o":""},"◂":{"ha":694,"x_min":0,"x_max":0,"o":""},"◃":{"ha":694,"x_min":0,"x_max":0,"o":""},"◄":{"ha":694,"x_min":0,"x_max":0,"o":""},"◅":{"ha":694,"x_min":0,"x_max":0,"o":""},"◆":{"ha":1389,"x_min":0,"x_max":0,"o":""},"◇":{"ha":1389,"x_min":0,"x_max":0,"o":""},"◈":{"ha":694,"x_min":0,"x_max":0,"o":""},"◉":{"ha":694,"x_min":0,"x_max":0,"o":""},"◊":{"ha":694,"x_min":0,"x_max":0,"o":""},"○":{"ha":1389,"x_min":23,"x_max":1367,"o":"m 357 1366 l 1032 1366 l 1367 1032 l 1367 357 l 1032 22 l 357 22 l 23 357 l 23 1032 l 357 1366 m 694 1062 l 678 1046 l 327 694 l 694 327 l 1062 694 l 694 1062 m 694 998 l 998 694 l 694 391 l 391 694 l 694 998 z "},"◌":{"ha":694,"x_min":0,"x_max":0,"o":""},"◍":{"ha":694,"x_min":0,"x_max":0,"o":""},"◎":{"ha":1389,"x_min":0,"x_max":0,"o":""},"●":{"ha":1389,"x_min":23,"x_max":1367,"o":"m 357 1366 l 1032 1366 l 1367 1032 l 1367 357 l 1032 23 l 357 23 l 23 357 l 23 1032 l 357 1366 z "},"◐":{"ha":694,"x_min":0,"x_max":0,"o":""},"◑":{"ha":694,"x_min":0,"x_max":0,"o":""},"◒":{"ha":694,"x_min":0,"x_max":0,"o":""},"◓":{"ha":694,"x_min":0,"x_max":0,"o":""},"◔":{"ha":694,"x_min":0,"x_max":0,"o":""},"◕":{"ha":694,"x_min":0,"x_max":0,"o":""},"◖":{"ha":694,"x_min":0,"x_max":0,"o":""},"◗":{"ha":694,"x_min":0,"x_max":0,"o":""},"◘":{"ha":694,"x_min":0,"x_max":0,"o":""},"◙":{"ha":694,"x_min":0,"x_max":0,"o":""},"◚":{"ha":694,"x_min":0,"x_max":0,"o":""},"◛":{"ha":694,"x_min":0,"x_max":0,"o":""},"◜":{"ha":694,"x_min":0,"x_max":0,"o":""},"◝":{"ha":694,"x_min":0,"x_max":0,"o":""},"◞":{"ha":694,"x_min":0,"x_max":0,"o":""},"◟":{"ha":694,"x_min":0,"x_max":0,"o":""},"◠":{"ha":694,"x_min":0,"x_max":0,"o":""},"◡":{"ha":694,"x_min":0,"x_max":0,"o":""},"◢":{"ha":694,"x_min":0,"x_max":0,"o":""},"◣":{"ha":694,"x_min":0,"x_max":0,"o":""},"◤":{"ha":694,"x_min":0,"x_max":0,"o":""},"◥":{"ha":694,"x_min":0,"x_max":0,"o":""},"◦":{"ha":694,"x_min":0,"x_max":0,"o":""},"◧":{"ha":694,"x_min":0,"x_max":0,"o":""},"◨":{"ha":694,"x_min":0,"x_max":0,"o":""},"◩":{"ha":694,"x_min":0,"x_max":0,"o":""},"◪":{"ha":694,"x_min":0,"x_max":0,"o":""},"◫":{"ha":694,"x_min":0,"x_max":0,"o":""},"◬":{"ha":694,"x_min":0,"x_max":0,"o":""},"◭":{"ha":694,"x_min":0,"x_max":0,"o":""},"◮":{"ha":694,"x_min":0,"x_max":0,"o":""},"◯":{"ha":1389,"x_min":0,"x_max":0,"o":""},"☀":{"ha":1389,"x_min":0,"x_max":0,"o":""},"☁":{"ha":1389,"x_min":0,"x_max":0,"o":""},"☂":{"ha":1389,"x_min":0,"x_max":0,"o":""},"☃":{"ha":1389,"x_min":0,"x_max":0,"o":""},"☄":{"ha":1389,"x_min":0,"x_max":0,"o":""},"★":{"ha":1389,"x_min":23,"x_max":1367,"o":"m 509 1366 l 880 1366 l 1023 1105 l 1367 1027 l 1367 644 l 1225 481 l 1268 22 l 922 22 l 694 121 l 467 22 l 121 22 l 164 481 l 23 644 l 23 1027 l 366 1105 l 509 1366 z "},"☆":{"ha":1389,"x_min":23,"x_max":1367,"o":"m 509 1366 l 880 1366 l 1023 1105 l 1367 1027 l 1367 644 l 1225 481 l 1268 22 l 922 22 l 694 121 l 467 22 l 121 22 l 164 481 l 23 644 l 23 1027 l 366 1105 l 509 1366 m 674 1055 l 556 833 l 328 779 l 317 742 l 472 570 l 450 346 l 481 323 l 694 416 l 907 323 l 939 346 l 917 570 l 1072 742 l 1061 779 l 833 833 l 715 1055 l 674 1055 m 694 997 l 798 803 l 812 791 l 1013 745 l 878 593 l 872 576 l 890 380 l 704 463 l 685 463 l 499 380 l 517 576 l 511 593 l 376 745 l 576 791 l 590 803 l 694 997 z "},"☇":{"ha":1389,"x_min":0,"x_max":0,"o":""},"☈":{"ha":1389,"x_min":0,"x_max":0,"o":""},"☉":{"ha":1389,"x_min":0,"x_max":0,"o":""},"☊":{"ha":1389,"x_min":0,"x_max":0,"o":""},"☋":{"ha":1389,"x_min":0,"x_max":0,"o":""},"☌":{"ha":1389,"x_min":0,"x_max":0,"o":""},"☍":{"ha":1389,"x_min":0,"x_max":0,"o":""},"☎":{"ha":1389,"x_min":0,"x_max":0,"o":""},"☏":{"ha":1389,"x_min":0,"x_max":0,"o":""},"☐":{"ha":1389,"x_min":0,"x_max":0,"o":""},"☑":{"ha":1389,"x_min":0,"x_max":0,"o":""},"☒":{"ha":1389,"x_min":0,"x_max":0,"o":""},"☓":{"ha":1389,"x_min":0,"x_max":0,"o":""},"☖":{"ha":1389,"x_min":0,"x_max":0,"o":""},"☗":{"ha":1389,"x_min":0,"x_max":0,"o":""},"☚":{"ha":1389,"x_min":0,"x_max":0,"o":""},"☛":{"ha":1389,"x_min":0,"x_max":0,"o":""},"☜":{"ha":1389,"x_min":0,"x_max":0,"o":""},"☝":{"ha":1389,"x_min":0,"x_max":0,"o":""},"☞":{"ha":1389,"x_min":0,"x_max":0,"o":""},"☟":{"ha":1389,"x_min":0,"x_max":0,"o":""},"☠":{"ha":1389,"x_min":0,"x_max":0,"o":""},"☡":{"ha":1389,"x_min":0,"x_max":0,"o":""},"☢":{"ha":1389,"x_min":0,"x_max":0,"o":""},"☣":{"ha":1389,"x_min":0,"x_max":0,"o":""},"☤":{"ha":1389,"x_min":0,"x_max":0,"o":""},"☥":{"ha":1389,"x_min":0,"x_max":0,"o":""},"☦":{"ha":1389,"x_min":0,"x_max":0,"o":""},"☧":{"ha":1389,"x_min":0,"x_max":0,"o":""},"☨":{"ha":1389,"x_min":0,"x_max":0,"o":""},"☩":{"ha":1389,"x_min":0,"x_max":0,"o":""},"☪":{"ha":1389,"x_min":0,"x_max":0,"o":""},"☫":{"ha":1389,"x_min":0,"x_max":0,"o":""},"☬":{"ha":1389,"x_min":0,"x_max":0,"o":""},"☭":{"ha":1389,"x_min":0,"x_max":0,"o":""},"☮":{"ha":1389,"x_min":0,"x_max":0,"o":""},"☯":{"ha":1389,"x_min":0,"x_max":0,"o":""},"☰":{"ha":1389,"x_min":0,"x_max":0,"o":""},"☱":{"ha":1389,"x_min":0,"x_max":0,"o":""},"☲":{"ha":1389,"x_min":0,"x_max":0,"o":""},"☳":{"ha":1389,"x_min":0,"x_max":0,"o":""},"☴":{"ha":1389,"x_min":0,"x_max":0,"o":""},"☵":{"ha":1389,"x_min":0,"x_max":0,"o":""},"☶":{"ha":1389,"x_min":0,"x_max":0,"o":""},"☷":{"ha":1389,"x_min":0,"x_max":0,"o":""},"☸":{"ha":1389,"x_min":0,"x_max":0,"o":""},"☹":{"ha":694,"x_min":0,"x_max":0,"o":""},"☺":{"ha":694,"x_min":0,"x_max":0,"o":""},"☻":{"ha":694,"x_min":0,"x_max":0,"o":""},"☼":{"ha":694,"x_min":0,"x_max":0,"o":""},"☽":{"ha":1389,"x_min":0,"x_max":0,"o":""},"☾":{"ha":1389,"x_min":0,"x_max":0,"o":""},"☿":{"ha":1389,"x_min":0,"x_max":0,"o":""},"♀":{"ha":1389,"x_min":0,"x_max":0,"o":""},"♁":{"ha":1389,"x_min":0,"x_max":0,"o":""},"♂":{"ha":1389,"x_min":0,"x_max":0,"o":""},"♃":{"ha":1389,"x_min":0,"x_max":0,"o":""},"♄":{"ha":1389,"x_min":0,"x_max":0,"o":""},"♅":{"ha":1389,"x_min":0,"x_max":0,"o":""},"♆":{"ha":1389,"x_min":0,"x_max":0,"o":""},"♇":{"ha":1389,"x_min":0,"x_max":0,"o":""},"♈":{"ha":1389,"x_min":0,"x_max":0,"o":""},"♉":{"ha":1389,"x_min":0,"x_max":0,"o":""},"♊":{"ha":1389,"x_min":0,"x_max":0,"o":""},"♋":{"ha":1389,"x_min":0,"x_max":0,"o":""},"♌":{"ha":1389,"x_min":0,"x_max":0,"o":""},"♍":{"ha":1389,"x_min":0,"x_max":0,"o":""},"♎":{"ha":1389,"x_min":0,"x_max":0,"o":""},"♏":{"ha":1389,"x_min":0,"x_max":0,"o":""},"♐":{"ha":1389,"x_min":0,"x_max":0,"o":""},"♑":{"ha":1389,"x_min":0,"x_max":0,"o":""},"♒":{"ha":1389,"x_min":0,"x_max":0,"o":""},"♓":{"ha":1389,"x_min":0,"x_max":0,"o":""},"♔":{"ha":1389,"x_min":0,"x_max":0,"o":""},"♕":{"ha":1389,"x_min":0,"x_max":0,"o":""},"♖":{"ha":1389,"x_min":0,"x_max":0,"o":""},"♗":{"ha":1389,"x_min":0,"x_max":0,"o":""},"♘":{"ha":1389,"x_min":0,"x_max":0,"o":""},"♙":{"ha":1389,"x_min":0,"x_max":0,"o":""},"♚":{"ha":1389,"x_min":0,"x_max":0,"o":""},"♛":{"ha":1389,"x_min":0,"x_max":0,"o":""},"♜":{"ha":1389,"x_min":0,"x_max":0,"o":""},"♝":{"ha":1389,"x_min":0,"x_max":0,"o":""},"♞":{"ha":1389,"x_min":0,"x_max":0,"o":""},"♟":{"ha":1389,"x_min":0,"x_max":0,"o":""},"♠":{"ha":694,"x_min":0,"x_max":0,"o":""},"♡":{"ha":694,"x_min":0,"x_max":0,"o":""},"♢":{"ha":694,"x_min":0,"x_max":0,"o":""},"♣":{"ha":694,"x_min":0,"x_max":0,"o":""},"♤":{"ha":694,"x_min":0,"x_max":0,"o":""},"♥":{"ha":694,"x_min":0,"x_max":0,"o":""},"♦":{"ha":694,"x_min":0,"x_max":0,"o":""},"♧":{"ha":694,"x_min":0,"x_max":0,"o":""},"♨":{"ha":1389,"x_min":0,"x_max":0,"o":""},"♩":{"ha":694,"x_min":0,"x_max":0,"o":""},"♪":{"ha":1389,"x_min":0,"x_max":0,"o":""},"♫":{"ha":694,"x_min":0,"x_max":0,"o":""},"♬":{"ha":694,"x_min":0,"x_max":0,"o":""},"♭":{"ha":1389,"x_min":0,"x_max":0,"o":""},"♮":{"ha":694,"x_min":0,"x_max":0,"o":""},"♯":{"ha":1389,"x_min":0,"x_max":0,"o":""},"✁":{"ha":1389,"x_min":0,"x_max":0,"o":""},"✂":{"ha":1389,"x_min":0,"x_max":0,"o":""},"✃":{"ha":1389,"x_min":0,"x_max":0,"o":""},"✄":{"ha":1389,"x_min":0,"x_max":0,"o":""},"✆":{"ha":1389,"x_min":0,"x_max":0,"o":""},"✇":{"ha":1389,"x_min":0,"x_max":0,"o":""},"✈":{"ha":1389,"x_min":0,"x_max":0,"o":""},"✉":{"ha":1389,"x_min":0,"x_max":0,"o":""},"✌":{"ha":694,"x_min":0,"x_max":0,"o":""},"✍":{"ha":1389,"x_min":0,"x_max":0,"o":""},"✎":{"ha":1389,"x_min":0,"x_max":0,"o":""},"✏":{"ha":1389,"x_min":0,"x_max":0,"o":""},"✐":{"ha":1389,"x_min":0,"x_max":0,"o":""},"✑":{"ha":1389,"x_min":0,"x_max":0,"o":""},"✒":{"ha":1389,"x_min":0,"x_max":0,"o":""},"✓":{"ha":1389,"x_min":0,"x_max":0,"o":""},"✔":{"ha":1389,"x_min":0,"x_max":0,"o":""},"✕":{"ha":1389,"x_min":0,"x_max":0,"o":""},"✖":{"ha":1389,"x_min":0,"x_max":0,"o":""},"✗":{"ha":1389,"x_min":0,"x_max":0,"o":""},"✘":{"ha":1389,"x_min":0,"x_max":0,"o":""},"✙":{"ha":1389,"x_min":0,"x_max":0,"o":""},"✚":{"ha":1389,"x_min":0,"x_max":0,"o":""},"✛":{"ha":1389,"x_min":0,"x_max":0,"o":""},"✜":{"ha":1389,"x_min":0,"x_max":0,"o":""},"✝":{"ha":1389,"x_min":0,"x_max":0,"o":""},"✞":{"ha":1389,"x_min":0,"x_max":0,"o":""},"✟":{"ha":1389,"x_min":0,"x_max":0,"o":""},"✠":{"ha":1389,"x_min":0,"x_max":0,"o":""},"✡":{"ha":1389,"x_min":0,"x_max":0,"o":""},"✢":{"ha":1389,"x_min":0,"x_max":0,"o":""},"✣":{"ha":1389,"x_min":0,"x_max":0,"o":""},"✤":{"ha":1389,"x_min":0,"x_max":0,"o":""},"✥":{"ha":1389,"x_min":0,"x_max":0,"o":""},"✦":{"ha":1389,"x_min":0,"x_max":0,"o":""},"✧":{"ha":1389,"x_min":0,"x_max":0,"o":""},"✩":{"ha":1389,"x_min":0,"x_max":0,"o":""},"✪":{"ha":1389,"x_min":0,"x_max":0,"o":""},"✫":{"ha":1389,"x_min":0,"x_max":0,"o":""},"✬":{"ha":1389,"x_min":0,"x_max":0,"o":""},"✭":{"ha":1389,"x_min":0,"x_max":0,"o":""},"✮":{"ha":1389,"x_min":0,"x_max":0,"o":""},"✯":{"ha":1389,"x_min":0,"x_max":0,"o":""},"✰":{"ha":1389,"x_min":0,"x_max":0,"o":""},"✱":{"ha":1389,"x_min":0,"x_max":0,"o":""},"✲":{"ha":1389,"x_min":0,"x_max":0,"o":""},"✳":{"ha":1389,"x_min":0,"x_max":0,"o":""},"✴":{"ha":1389,"x_min":0,"x_max":0,"o":""},"✵":{"ha":1389,"x_min":0,"x_max":0,"o":""},"✶":{"ha":1389,"x_min":0,"x_max":0,"o":""},"✷":{"ha":1389,"x_min":0,"x_max":0,"o":""},"✸":{"ha":1389,"x_min":0,"x_max":0,"o":""},"✹":{"ha":1389,"x_min":0,"x_max":0,"o":""},"✺":{"ha":1389,"x_min":0,"x_max":0,"o":""},"✻":{"ha":1389,"x_min":0,"x_max":0,"o":""},"✼":{"ha":1389,"x_min":0,"x_max":0,"o":""},"✽":{"ha":1389,"x_min":0,"x_max":0,"o":""},"✾":{"ha":1389,"x_min":0,"x_max":0,"o":""},"✿":{"ha":1389,"x_min":0,"x_max":0,"o":""},"❀":{"ha":1389,"x_min":0,"x_max":0,"o":""},"❁":{"ha":1389,"x_min":0,"x_max":0,"o":""},"❂":{"ha":1389,"x_min":0,"x_max":0,"o":""},"❃":{"ha":1389,"x_min":0,"x_max":0,"o":""},"❄":{"ha":1389,"x_min":0,"x_max":0,"o":""},"❅":{"ha":1389,"x_min":0,"x_max":0,"o":""},"❆":{"ha":1389,"x_min":0,"x_max":0,"o":""},"❇":{"ha":1389,"x_min":0,"x_max":0,"o":""},"❈":{"ha":1389,"x_min":0,"x_max":0,"o":""},"❉":{"ha":1389,"x_min":0,"x_max":0,"o":""},"❊":{"ha":1389,"x_min":0,"x_max":0,"o":""},"❋":{"ha":1389,"x_min":0,"x_max":0,"o":""},"❍":{"ha":1389,"x_min":0,"x_max":0,"o":""},"❏":{"ha":1389,"x_min":0,"x_max":0,"o":""},"❐":{"ha":1389,"x_min":0,"x_max":0,"o":""},"❑":{"ha":1389,"x_min":0,"x_max":0,"o":""},"❒":{"ha":1389,"x_min":0,"x_max":0,"o":""},"❖":{"ha":1389,"x_min":0,"x_max":0,"o":""},"❘":{"ha":1389,"x_min":0,"x_max":0,"o":""},"❙":{"ha":1389,"x_min":0,"x_max":0,"o":""},"❚":{"ha":1389,"x_min":0,"x_max":0,"o":""},"❛":{"ha":1389,"x_min":0,"x_max":0,"o":""},"❜":{"ha":1389,"x_min":0,"x_max":0,"o":""},"❝":{"ha":1389,"x_min":0,"x_max":0,"o":""},"❞":{"ha":1389,"x_min":0,"x_max":0,"o":""},"❡":{"ha":1389,"x_min":0,"x_max":0,"o":""},"❢":{"ha":1389,"x_min":0,"x_max":0,"o":""},"❣":{"ha":1389,"x_min":0,"x_max":0,"o":""},"❤":{"ha":1389,"x_min":0,"x_max":0,"o":""},"❥":{"ha":1389,"x_min":0,"x_max":0,"o":""},"❦":{"ha":1389,"x_min":0,"x_max":0,"o":""},"❧":{"ha":1389,"x_min":0,"x_max":0,"o":""},"❶":{"ha":1389,"x_min":0,"x_max":0,"o":""},"❷":{"ha":1389,"x_min":0,"x_max":0,"o":""},"❸":{"ha":1389,"x_min":0,"x_max":0,"o":""},"❹":{"ha":1389,"x_min":0,"x_max":0,"o":""},"❺":{"ha":1389,"x_min":0,"x_max":0,"o":""},"❻":{"ha":1389,"x_min":0,"x_max":0,"o":""},"❼":{"ha":1389,"x_min":0,"x_max":0,"o":""},"❽":{"ha":1389,"x_min":0,"x_max":0,"o":""},"❾":{"ha":1389,"x_min":0,"x_max":0,"o":""},"❿":{"ha":1389,"x_min":0,"x_max":0,"o":""},"➀":{"ha":1389,"x_min":0,"x_max":0,"o":""},"➁":{"ha":1389,"x_min":0,"x_max":0,"o":""},"➂":{"ha":1389,"x_min":0,"x_max":0,"o":""},"➃":{"ha":1389,"x_min":0,"x_max":0,"o":""},"➄":{"ha":1389,"x_min":0,"x_max":0,"o":""},"➅":{"ha":1389,"x_min":0,"x_max":0,"o":""},"➆":{"ha":1389,"x_min":0,"x_max":0,"o":""},"➇":{"ha":1389,"x_min":0,"x_max":0,"o":""},"➈":{"ha":1389,"x_min":0,"x_max":0,"o":""},"➉":{"ha":1389,"x_min":0,"x_max":0,"o":""},"➊":{"ha":1389,"x_min":0,"x_max":0,"o":""},"➋":{"ha":1389,"x_min":0,"x_max":0,"o":""},"➌":{"ha":1389,"x_min":0,"x_max":0,"o":""},"➍":{"ha":1389,"x_min":0,"x_max":0,"o":""},"➎":{"ha":1389,"x_min":0,"x_max":0,"o":""},"➏":{"ha":1389,"x_min":0,"x_max":0,"o":""},"➐":{"ha":1389,"x_min":0,"x_max":0,"o":""},"➑":{"ha":1389,"x_min":0,"x_max":0,"o":""},"➒":{"ha":1389,"x_min":0,"x_max":0,"o":""},"➓":{"ha":1389,"x_min":0,"x_max":0,"o":""},"➔":{"ha":1389,"x_min":0,"x_max":0,"o":""},"➘":{"ha":1389,"x_min":0,"x_max":0,"o":""},"➙":{"ha":1389,"x_min":0,"x_max":0,"o":""},"➚":{"ha":1389,"x_min":0,"x_max":0,"o":""},"➛":{"ha":1389,"x_min":0,"x_max":0,"o":""},"➜":{"ha":1389,"x_min":0,"x_max":0,"o":""},"➝":{"ha":1389,"x_min":0,"x_max":0,"o":""},"➞":{"ha":1389,"x_min":0,"x_max":0,"o":""},"➟":{"ha":1389,"x_min":0,"x_max":0,"o":""},"➠":{"ha":1389,"x_min":0,"x_max":0,"o":""},"➡":{"ha":1389,"x_min":0,"x_max":0,"o":""},"➢":{"ha":1389,"x_min":0,"x_max":0,"o":""},"➣":{"ha":1389,"x_min":0,"x_max":0,"o":""},"➤":{"ha":1389,"x_min":0,"x_max":0,"o":""},"➥":{"ha":1389,"x_min":0,"x_max":0,"o":""},"➦":{"ha":1389,"x_min":0,"x_max":0,"o":""},"➧":{"ha":1389,"x_min":0,"x_max":0,"o":""},"➨":{"ha":1389,"x_min":0,"x_max":0,"o":""},"➩":{"ha":1389,"x_min":0,"x_max":0,"o":""},"➪":{"ha":1389,"x_min":0,"x_max":0,"o":""},"➫":{"ha":1389,"x_min":0,"x_max":0,"o":""},"➬":{"ha":1389,"x_min":0,"x_max":0,"o":""},"➭":{"ha":1389,"x_min":0,"x_max":0,"o":""},"➮":{"ha":1389,"x_min":0,"x_max":0,"o":""},"➯":{"ha":1389,"x_min":0,"x_max":0,"o":""},"➱":{"ha":1389,"x_min":0,"x_max":0,"o":""},"➲":{"ha":1389,"x_min":0,"x_max":0,"o":""},"➳":{"ha":1389,"x_min":0,"x_max":0,"o":""},"➴":{"ha":1389,"x_min":0,"x_max":0,"o":""},"➵":{"ha":1389,"x_min":0,"x_max":0,"o":""},"➶":{"ha":1389,"x_min":0,"x_max":0,"o":""},"➷":{"ha":1389,"x_min":0,"x_max":0,"o":""},"➸":{"ha":1389,"x_min":0,"x_max":0,"o":""},"➹":{"ha":1389,"x_min":0,"x_max":0,"o":""},"➺":{"ha":1389,"x_min":0,"x_max":0,"o":""},"➻":{"ha":1389,"x_min":0,"x_max":0,"o":""},"➼":{"ha":1389,"x_min":0,"x_max":0,"o":""},"➽":{"ha":1389,"x_min":0,"x_max":0,"o":""},"➾":{"ha":1389,"x_min":0,"x_max":0,"o":""},"⤴":{"ha":694,"x_min":0,"x_max":0,"o":""},"⤵":{"ha":694,"x_min":0,"x_max":0,"o":""},"⦅":{"ha":694,"x_min":0,"x_max":0,"o":""},"⦆":{"ha":694,"x_min":0,"x_max":0,"o":""},"⦿":{"ha":1389,"x_min":0,"x_max":0,"o":""},"⧺":{"ha":694,"x_min":0,"x_max":0,"o":""},"⧻":{"ha":694,"x_min":0,"x_max":0,"o":""},"　":{"ha":1389,"x_min":0,"x_max":0,"o":""},"、":{"ha":1389,"x_min":23,"x_max":694,"o":"m 24 694 l 359 694 l 694 471 l 694 23 l 359 23 l 23 247 l 24 694 z "},"。":{"ha":1389,"x_min":23,"x_max":694,"o":"m 134 694 l 694 694 l 694 247 l 582 23 l 23 23 l 23 471 l 134 694 m 408 507 l 269 231 l 309 210 l 448 487 l 408 507 z "},"〃":{"ha":1389,"x_min":0,"x_max":0,"o":""},"〄":{"ha":1389,"x_min":0,"x_max":0,"o":""},"々":{"ha":1389,"x_min":0,"x_max":0,"o":""},"〆":{"ha":1389,"x_min":0,"x_max":0,"o":""},"〇":{"ha":1389,"x_min":0,"x_max":0,"o":""},"〈":{"ha":1389,"x_min":0,"x_max":0,"o":""},"〉":{"ha":1389,"x_min":0,"x_max":0,"o":""},"《":{"ha":1389,"x_min":0,"x_max":0,"o":""},"》":{"ha":1389,"x_min":0,"x_max":0,"o":""},"「":{"ha":1389,"x_min":694,"x_max":1366,"o":"m 694 1366 l 1366 1366 l 1366 1031 l 1142 1031 l 1142 471 l 694 471 l 694 1366 z "},"」":{"ha":1389,"x_min":23,"x_max":694,"o":"m 694 22 l 23 22 l 23 358 l 247 358 l 247 918 l 694 918 l 694 22 z "},"『":{"ha":1389,"x_min":0,"x_max":0,"o":""},"』":{"ha":1389,"x_min":0,"x_max":0,"o":""},"【":{"ha":1389,"x_min":0,"x_max":0,"o":""},"】":{"ha":1389,"x_min":0,"x_max":0,"o":""},"〒":{"ha":1389,"x_min":0,"x_max":0,"o":""},"〓":{"ha":1389,"x_min":0,"x_max":0,"o":""},"〔":{"ha":1389,"x_min":0,"x_max":0,"o":""},"〕":{"ha":1389,"x_min":0,"x_max":0,"o":""},"〖":{"ha":1389,"x_min":0,"x_max":0,"o":""},"〗":{"ha":1389,"x_min":0,"x_max":0,"o":""},"〘":{"ha":1389,"x_min":0,"x_max":0,"o":""},"〙":{"ha":1389,"x_min":0,"x_max":0,"o":""},"〚":{"ha":1389,"x_min":0,"x_max":0,"o":""},"〛":{"ha":1389,"x_min":0,"x_max":0,"o":""},"〜":{"ha":1389,"x_min":0,"x_max":0,"o":""},"〝":{"ha":1389,"x_min":0,"x_max":0,"o":""},"〞":{"ha":1389,"x_min":0,"x_max":0,"o":""},"〟":{"ha":1389,"x_min":0,"x_max":0,"o":""},"〠":{"ha":1389,"x_min":0,"x_max":0,"o":""},"〰":{"ha":1389,"x_min":0,"x_max":0,"o":""},"〱":{"ha":1389,"x_min":0,"x_max":0,"o":""},"〲":{"ha":1389,"x_min":0,"x_max":0,"o":""},"〳":{"ha":1389,"x_min":0,"x_max":0,"o":""},"〴":{"ha":1389,"x_min":0,"x_max":0,"o":""},"〵":{"ha":1389,"x_min":0,"x_max":0,"o":""},"〶":{"ha":1389,"x_min":0,"x_max":0,"o":""},"〷":{"ha":1389,"x_min":0,"x_max":0,"o":""},"〻":{"ha":1389,"x_min":0,"x_max":0,"o":""},"〼":{"ha":1389,"x_min":0,"x_max":0,"o":""},"〽":{"ha":1389,"x_min":0,"x_max":0,"o":""},"ぁ":{"ha":1389,"x_min":23,"x_max":1367,"o":"m 275 1097 l 755 1097 l 700 1005 l 1367 1005 l 1367 764 l 700 764 l 700 675 l 745 675 l 745 719 l 1367 719 l 1367 22 l 859 22 l 1055 189 l 1055 471 l 1010 471 l 1010 210 l 789 22 l 23 22 l 23 589 l 288 764 l 23 764 l 23 1005 l 275 1005 l 275 1097 m 300 465 l 260 444 l 378 235 l 418 256 l 300 465 m 659 465 l 620 444 l 738 235 l 777 256 l 659 465 z "},"あ":{"ha":1389,"x_min":22,"x_max":1366,"o":"m 275 1366 l 754 1366 l 700 1251 l 1366 1251 l 1366 943 l 700 943 l 700 838 l 745 838 l 745 898 l 1366 898 l 1366 23 l 856 23 l 1054 233 l 1054 582 l 1009 582 l 1009 251 l 793 23 l 22 23 l 22 734 l 275 943 l 22 943 l 22 1251 l 275 1251 l 275 1366 m 300 571 l 259 552 l 377 290 l 418 308 l 300 571 m 659 571 l 618 552 l 736 290 l 777 308 l 659 571 z "},"ぃ":{"ha":1389,"x_min":23,"x_max":1366,"o":"m 23 1013 l 519 1013 l 518 749 l 426 661 l 457 628 l 856 1013 l 1366 1013 l 1366 30 l 598 30 l 532 98 l 871 431 l 871 212 l 916 212 l 916 538 l 399 30 l 23 30 l 23 1013 z "},"い":{"ha":1389,"x_min":23,"x_max":1367,"o":"m 23 1263 l 519 1263 l 518 925 l 425 812 l 460 784 l 856 1263 l 1367 1263 l 1367 30 l 594 30 l 528 114 l 871 534 l 871 256 l 916 256 l 916 661 l 403 30 l 23 30 l 23 1263 z "},"ぅ":{"ha":1389,"x_min":23,"x_max":1367,"o":"m 294 1097 l 941 1097 l 1109 822 l 294 822 l 294 1097 m 23 914 l 250 914 l 250 777 l 1190 777 l 1107 914 l 1367 914 l 1367 340 l 1081 22 l 23 22 l 23 104 l 183 340 l 811 340 l 811 385 l 23 385 l 23 914 z "},"う":{"ha":1389,"x_min":23,"x_max":1367,"o":"m 294 1366 l 941 1366 l 1112 1016 l 294 1016 l 294 1366 m 23 1142 l 250 1142 l 250 971 l 1184 971 l 1101 1142 l 1367 1142 l 1367 416 l 1084 23 l 23 23 l 23 126 l 184 426 l 811 426 l 811 471 l 23 471 l 23 1142 z "},"ぇ":{"ha":1389,"x_min":23,"x_max":1367,"o":"m 26 1097 l 1012 1097 l 1012 854 l 250 854 l 26 1097 m 1057 963 l 1367 720 l 1367 22 l 556 22 l 635 110 l 602 140 l 495 22 l 23 22 l 23 137 l 250 384 l 23 384 l 23 810 l 1012 810 l 1012 544 l 880 396 l 1012 397 l 1012 243 l 1057 243 l 1057 963 z "},"え":{"ha":1389,"x_min":23,"x_max":1367,"o":"m 23 1366 l 1010 1366 l 1010 1055 l 251 1055 l 23 1366 m 1055 1203 l 1367 897 l 1367 22 l 553 22 l 636 137 l 600 163 l 499 22 l 23 22 l 23 168 l 243 467 l 23 467 l 23 1010 l 1010 1010 l 1010 669 l 886 494 l 1010 495 l 1010 297 l 1055 297 l 1055 1203 z "},"ぉ":{"ha":1389,"x_min":23,"x_max":1367,"o":"m 391 1097 l 761 1097 l 707 1005 l 1028 1005 l 1028 715 l 711 715 l 711 670 l 1073 670 l 1073 671 q 1101 654 1084 663 q 1227 575 1161 617 q 1367 488 1294 534 l 1367 22 l 755 22 l 755 377 l 1019 377 l 1019 210 l 1063 210 l 1063 422 l 711 422 l 711 22 l 23 22 l 23 694 l 365 694 l 365 739 l 23 739 l 23 1005 l 391 1005 l 391 1097 m 1073 1097 l 1367 1097 l 1367 541 q 1252 613 1306 578 q 1126 692 1188 655 q 1073 724 1099 712 l 1073 1097 m 354 422 l 239 244 l 277 218 l 392 397 l 354 422 z "},"お":{"ha":1389,"x_min":23,"x_max":1367,"o":"m 391 1366 l 762 1366 l 711 1256 l 1028 1256 l 1028 882 l 709 882 l 709 837 l 1072 837 l 1367 608 l 1367 22 l 754 22 l 754 471 l 1017 471 l 1017 258 l 1062 258 l 1062 515 l 709 515 l 709 22 l 23 22 l 23 867 l 365 867 l 365 911 l 23 911 l 23 1256 l 391 1256 l 391 1366 m 1073 1366 l 1367 1366 l 1367 665 l 1073 894 l 1073 1366 m 353 515 l 237 293 l 277 273 l 393 495 l 353 515 z "},"か":{"ha":1389,"x_min":23,"x_max":1366,"o":"m 142 1366 l 570 1366 l 502 1238 l 947 1238 l 947 342 l 774 22 l 382 22 l 562 353 l 562 674 l 517 674 l 517 363 l 331 22 l 23 22 l 23 110 l 142 331 l 142 674 l 23 674 l 23 1238 l 142 1238 l 142 1366 m 991 1366 l 1366 1366 l 1366 345 l 1192 22 l 825 22 l 991 331 l 991 1366 z "},"が":{"ha":1389,"x_min":23,"x_max":1367,"o":"m 142 1366 l 570 1366 l 502 1238 l 894 1238 l 894 1097 l 947 1097 l 947 62 l 865 23 l 382 23 l 562 353 l 562 674 l 517 674 l 517 363 l 331 23 l 23 23 l 23 110 l 142 331 l 142 674 l 23 674 l 23 1238 l 142 1238 l 142 1366 m 939 1366 l 1164 1366 l 1104 1142 l 939 1142 l 939 1366 m 1210 1366 l 1367 1366 l 1367 1142 l 1150 1142 l 1210 1366 m 991 1097 l 1367 1097 l 1367 345 l 1192 23 l 967 23 l 991 35 l 991 1097 z "},"き":{"ha":1389,"x_min":23,"x_max":1367,"o":"m 397 1366 l 891 1366 l 891 1284 l 1367 1286 l 1367 989 l 1069 989 l 1095 944 l 1367 944 l 1367 652 l 1261 652 l 1367 461 l 1367 339 l 370 339 l 370 294 l 1367 294 l 1367 23 l 148 23 l 23 252 l 23 608 l 810 608 l 785 652 l 23 652 l 23 944 l 629 944 l 605 989 l 23 989 l 23 1286 l 441 1287 l 397 1366 z "},"ぎ":{"ha":1389,"x_min":23,"x_max":1367,"o":"m 397 1366 l 894 1366 l 894 1097 l 1367 1097 l 1367 989 l 1069 989 l 1095 944 l 1367 944 l 1367 652 l 1261 652 l 1367 461 l 1367 339 l 370 339 l 370 294 l 1367 294 l 1367 23 l 148 23 l 23 252 l 23 608 l 810 608 l 785 652 l 23 652 l 23 944 l 629 944 l 605 989 l 23 989 l 23 1286 l 441 1287 l 397 1366 m 939 1366 l 1164 1366 l 1104 1142 l 939 1142 l 939 1366 m 1210 1366 l 1367 1366 l 1367 1142 l 1150 1142 l 1210 1366 z "},"く":{"ha":1389,"x_min":23,"x_max":1367,"o":"m 867 1366 l 1367 1366 l 1367 872 l 837 623 l 552 623 l 552 578 l 837 578 l 1367 332 l 1367 22 l 646 22 l 646 104 l 23 393 l 23 826 l 867 1218 l 867 1366 z "},"ぐ":{"ha":1389,"x_min":23,"x_max":1367,"o":"m 867 1366 l 1367 1366 l 1367 1120 l 902 1120 l 901 807 l 1229 807 l 837 623 l 552 623 l 552 578 l 837 578 l 1367 332 l 1367 22 l 646 22 l 646 104 l 23 393 l 23 826 l 867 1218 l 867 1366 m 1367 1076 l 1367 852 l 1157 852 l 1217 1076 l 1367 1076 m 1171 1076 l 1111 852 l 945 852 l 947 1076 l 1171 1076 z "},"け":{"ha":1389,"x_min":23,"x_max":1367,"o":"m 23 1366 l 374 1366 l 373 425 l 534 564 l 505 598 l 419 524 l 419 768 l 803 768 l 803 403 l 358 22 l 23 22 l 23 1366 m 848 1366 l 1286 1366 l 1249 1265 l 1367 1265 l 1367 812 l 1259 812 l 1259 22 l 427 22 l 848 382 l 848 812 l 419 812 l 419 1284 l 422 1284 l 422 1261 l 848 1261 l 848 1366 z "},"げ":{"ha":1389,"x_min":23,"x_max":1367,"o":"m 23 1366 l 374 1366 l 373 425 l 534 564 l 505 598 l 418 524 l 419 768 l 803 768 l 803 403 l 358 23 l 23 23 l 23 1366 m 848 1366 l 1286 1366 l 1249 1265 l 1367 1265 l 1367 1198 l 902 1198 l 901 884 l 1366 884 l 1366 812 l 1259 812 l 1259 23 l 427 23 l 848 382 l 848 812 l 419 812 l 419 1284 l 422 1284 l 422 1261 l 848 1261 l 848 1366 m 1367 1153 l 1367 929 l 1157 929 l 1217 1153 l 1367 1153 m 1171 1153 l 1111 929 l 945 929 l 947 1153 l 1171 1153 z "},"こ":{"ha":1389,"x_min":23,"x_max":1367,"o":"m 136 1366 l 1256 1366 l 1256 787 l 1009 562 l 1012 557 l 845 557 l 848 560 l 544 890 l 823 890 l 823 935 l 136 935 l 136 1366 m 324 890 l 483 890 l 788 557 l 491 557 l 491 513 l 1367 513 l 1367 22 l 23 22 l 23 654 l 324 888 l 324 890 z "},"ご":{"ha":1389,"x_min":23,"x_max":1366,"o":"m 136 1366 l 901 1366 l 901 1097 l 1256 1097 l 1256 787 l 1009 562 l 1012 557 l 845 557 l 848 560 l 544 890 l 823 890 l 823 935 l 136 935 l 136 1366 m 945 1366 l 1171 1366 l 1111 1142 l 945 1142 l 945 1366 m 1217 1366 l 1366 1366 l 1366 1142 l 1157 1142 l 1217 1366 m 324 890 l 483 890 l 788 557 l 491 557 l 491 513 l 1366 513 l 1366 22 l 23 22 l 23 655 l 324 888 l 324 890 z "},"さ":{"ha":1389,"x_min":23,"x_max":1367,"o":"m 423 1366 l 962 1366 l 962 1218 l 1367 1218 l 1367 836 l 1185 834 l 1367 519 l 1367 419 l 521 419 l 521 374 l 1367 374 l 1367 23 l 149 23 l 23 270 l 23 792 l 720 792 l 697 837 l 23 837 l 23 1218 l 499 1218 l 423 1366 z "},"ざ":{"ha":1389,"x_min":23,"x_max":1367,"o":"m 423 1366 l 894 1366 l 894 1097 l 1367 1097 l 1367 836 l 1185 836 l 1367 519 l 1367 419 l 521 419 l 521 374 l 1367 374 l 1367 22 l 149 22 l 23 270 l 23 792 l 720 792 l 697 837 l 23 837 l 23 1218 l 499 1218 l 423 1366 m 939 1366 l 1164 1366 l 1104 1142 l 939 1142 l 939 1366 m 1210 1366 l 1367 1366 l 1367 1142 l 1150 1142 l 1210 1366 z "},"し":{"ha":1389,"x_min":23,"x_max":1367,"o":"m 23 1366 l 747 1366 l 750 891 l 623 764 l 750 636 l 538 423 l 570 392 l 796 618 l 793 1211 l 1367 838 l 1367 222 l 1061 23 l 23 23 l 23 689 l 155 557 l 186 589 l 23 753 l 186 916 l 155 947 l 23 815 l 23 1366 z "},"じ":{"ha":1389,"x_min":23,"x_max":1367,"o":"m 23 1366 l 747 1366 l 750 891 l 623 764 l 750 636 l 538 423 l 570 392 l 796 618 l 793 1211 l 894 1146 l 894 1097 l 967 1097 l 1367 838 l 1367 222 l 1061 23 l 23 23 l 23 689 l 155 557 l 186 589 l 23 753 l 186 916 l 155 947 l 23 815 l 23 1366 m 939 1366 l 1164 1366 l 1104 1142 l 939 1142 l 939 1366 m 1210 1366 l 1367 1366 l 1367 1142 l 1150 1142 l 1210 1366 z "},"す":{"ha":1389,"x_min":23,"x_max":1366,"o":"m 751 1366 l 1306 1366 l 1225 1218 l 1366 1218 l 1366 937 l 1225 937 l 1225 23 l 23 23 l 23 437 l 167 437 l 410 298 l 751 300 l 751 345 l 420 345 l 23 568 l 23 892 l 751 892 l 751 937 l 23 937 l 23 1218 l 751 1218 l 751 1366 m 400 736 l 377 697 l 670 529 l 692 567 l 400 736 z "},"ず":{"ha":1389,"x_min":23,"x_max":1367,"o":"m 751 1366 l 894 1366 l 894 1097 l 1367 1097 l 1367 937 l 1225 937 l 1225 22 l 23 22 l 23 437 l 167 437 l 410 298 l 751 300 l 751 345 l 420 345 l 23 568 l 23 892 l 751 892 l 751 937 l 23 937 l 23 1218 l 751 1218 l 751 1366 m 939 1366 l 1164 1366 l 1104 1142 l 939 1142 l 939 1366 m 1210 1366 l 1367 1366 l 1367 1142 l 1150 1142 l 1210 1366 m 400 736 l 377 697 l 670 529 l 692 567 l 400 736 z "},"せ":{"ha":1389,"x_min":23,"x_max":1366,"o":"m 107 1366 l 495 1366 l 495 1217 l 651 1217 l 610 1366 l 1032 1366 l 1032 1217 l 1366 1217 l 1366 774 l 1032 774 l 1032 388 l 540 388 l 540 730 l 755 730 l 755 774 l 495 774 l 495 343 l 1077 343 l 1077 730 l 1366 730 l 1366 23 l 289 23 l 140 152 l 140 770 l 23 770 l 23 1217 l 146 1217 l 107 1366 z "},"ぜ":{"ha":1389,"x_min":23,"x_max":1367,"o":"m 107 1366 l 495 1366 l 495 1217 l 651 1217 l 610 1366 l 894 1366 l 894 1097 l 1367 1097 l 1367 774 l 1032 774 l 1032 388 l 540 388 l 540 730 l 755 730 l 755 774 l 495 774 l 495 343 l 1077 343 l 1077 730 l 1367 730 l 1367 23 l 289 23 l 140 152 l 140 770 l 23 770 l 23 1217 l 146 1217 l 107 1366 m 939 1366 l 1164 1366 l 1104 1142 l 939 1142 l 939 1366 m 1210 1366 l 1367 1366 l 1367 1142 l 1150 1142 l 1210 1366 z "},"そ":{"ha":1389,"x_min":23,"x_max":1367,"o":"m 23 1366 l 552 1366 l 696 1223 l 838 1366 l 1367 1366 l 1367 1096 l 1200 929 l 1367 926 l 1367 506 l 840 506 l 871 537 l 840 570 l 643 373 l 675 342 l 795 461 l 1367 461 l 1367 232 l 1153 22 l 138 22 l 138 374 l 269 505 l 23 506 l 23 926 l 518 926 l 472 879 l 503 848 l 655 1000 l 624 1032 l 563 971 l 157 971 l 23 1105 l 23 1366 z "},"ぞ":{"ha":1389,"x_min":23,"x_max":1366,"o":"m 23 1366 l 552 1366 l 696 1223 l 838 1366 l 894 1366 l 894 1097 l 1366 1097 l 1366 1096 l 1200 929 l 1366 926 l 1366 506 l 840 506 l 871 537 l 840 570 l 643 373 l 675 342 l 795 461 l 1366 461 l 1366 232 l 1153 22 l 138 22 l 138 374 l 269 505 l 23 506 l 23 926 l 518 926 l 472 879 l 503 848 l 656 1000 l 624 1032 l 563 971 l 157 971 l 23 1105 l 23 1366 m 939 1366 l 1164 1366 l 1104 1142 l 939 1142 l 939 1366 m 1210 1366 l 1366 1366 l 1366 1142 l 1150 1142 l 1210 1366 z "},"た":{"ha":1389,"x_min":23,"x_max":1366,"o":"m 126 1366 l 627 1366 l 627 1255 l 1366 1255 l 1366 884 l 620 884 l 368 23 l 23 23 l 23 437 l 153 884 l 23 884 l 23 1255 l 168 1255 l 126 1366 m 654 840 l 1366 840 l 1366 328 l 924 328 l 996 571 l 575 571 l 654 840 m 562 525 l 936 525 l 864 283 l 1366 283 l 1366 23 l 415 23 l 562 525 z "},"だ":{"ha":1389,"x_min":23,"x_max":1367,"o":"m 126 1366 l 627 1366 l 627 1255 l 894 1255 l 894 1097 l 1367 1097 l 1367 884 l 620 884 l 368 22 l 23 22 l 23 437 l 153 884 l 23 884 l 23 1255 l 168 1255 l 126 1366 m 939 1366 l 1164 1366 l 1104 1142 l 939 1142 l 939 1366 m 1210 1366 l 1367 1366 l 1367 1142 l 1150 1142 l 1210 1366 m 654 840 l 1367 840 l 1367 328 l 924 328 l 996 571 l 575 571 l 654 840 m 562 525 l 936 525 l 864 283 l 1367 283 l 1367 22 l 415 22 l 562 525 z "},"ち":{"ha":1389,"x_min":23,"x_max":1367,"o":"m 152 1366 l 617 1366 l 570 1255 l 1367 1255 l 1367 774 l 566 774 l 566 618 l 610 618 l 610 730 l 1367 730 l 1367 22 l 624 22 l 977 351 l 945 384 l 559 22 l 152 22 l 152 774 l 23 774 l 23 1255 l 152 1255 l 152 1366 z "},"ぢ":{"ha":1389,"x_min":23,"x_max":1367,"o":"m 152 1366 l 617 1366 l 570 1255 l 894 1253 l 894 1097 l 1367 1097 l 1367 774 l 566 774 l 566 618 l 610 618 l 610 730 l 1367 730 l 1367 22 l 624 22 l 977 351 l 945 384 l 559 22 l 152 22 l 152 774 l 23 774 l 23 1255 l 152 1255 l 152 1366 m 939 1366 l 1164 1366 l 1104 1142 l 939 1142 l 939 1366 m 1210 1366 l 1367 1366 l 1367 1142 l 1150 1142 l 1210 1366 z "},"っ":{"ha":1389,"x_min":23,"x_max":1367,"o":"m 23 1005 l 480 1005 l 372 917 l 400 882 l 551 1005 l 1145 1005 l 1367 783 l 1367 270 l 926 22 l 248 22 l 248 203 l 929 585 l 907 624 l 595 449 l 23 449 l 23 1005 z "},"つ":{"ha":1389,"x_min":23,"x_max":1367,"o":"m 23 1255 l 488 1255 l 369 1134 l 401 1101 l 551 1255 l 1142 1255 l 1367 972 l 1367 326 l 937 22 l 248 22 l 248 251 l 930 730 l 905 766 l 593 548 l 23 548 l 23 1255 z "},"づ":{"ha":1389,"x_min":23,"x_max":1367,"o":"m 939 1366 l 1164 1366 l 1104 1142 l 939 1142 l 939 1366 m 1210 1366 l 1367 1366 l 1367 1142 l 1150 1142 l 1210 1366 m 23 1255 l 488 1255 l 369 1134 l 401 1101 l 551 1255 l 894 1255 l 894 1097 l 1267 1097 l 1367 972 l 1367 326 l 937 22 l 248 22 l 248 251 l 930 730 l 905 766 l 593 548 l 23 548 l 23 1255 z "},"て":{"ha":1389,"x_min":23,"x_max":1367,"o":"m 23 1366 l 1367 1366 l 1367 791 l 1027 791 l 719 391 l 755 362 l 1050 746 l 1367 746 l 1367 437 l 1050 22 l 214 22 l 214 477 l 553 920 l 518 948 l 410 807 l 23 807 l 23 1366 z "},"で":{"ha":1389,"x_min":23,"x_max":1367,"o":"m 23 1366 l 894 1366 l 894 1097 l 1367 1097 l 1367 791 l 1027 791 l 719 391 l 755 362 l 1050 746 l 1367 746 l 1367 437 l 1050 22 l 214 22 l 214 477 l 553 920 l 518 948 l 410 807 l 23 807 l 23 1366 m 939 1366 l 1164 1366 l 1104 1142 l 939 1142 l 939 1366 m 1210 1366 l 1367 1366 l 1367 1142 l 1150 1142 l 1210 1366 z "},"と":{"ha":1389,"x_min":23,"x_max":1366,"o":"m 410 1366 l 928 1366 l 926 1244 l 1244 1366 l 1366 1366 l 1366 933 l 928 761 l 928 403 l 513 401 l 513 601 l 357 541 l 373 499 l 467 536 l 467 357 l 972 358 l 972 731 l 1366 884 l 1366 22 l 23 22 l 23 892 l 505 1089 l 410 1366 z "},"ど":{"ha":1389,"x_min":23,"x_max":1367,"o":"m 410 1366 l 894 1366 l 894 1097 l 1367 1097 l 1367 933 l 928 761 l 928 403 l 513 401 l 513 601 l 357 541 l 373 499 l 467 536 l 467 357 l 972 358 l 972 731 l 1367 884 l 1367 23 l 23 23 l 23 892 l 505 1089 l 410 1366 m 939 1366 l 1164 1366 l 1104 1142 l 939 1142 l 939 1366 m 1210 1366 l 1367 1366 l 1367 1142 l 1150 1142 l 1210 1366 z "},"な":{"ha":1389,"x_min":23,"x_max":1367,"o":"m 178 1366 l 709 1366 l 477 1165 l 681 1166 l 681 825 l 515 825 l 515 655 l 23 221 l 23 693 l 178 825 l 23 825 l 23 1166 l 178 1166 l 178 1366 m 777 1366 l 1048 1366 l 1366 1086 l 1366 648 l 726 1211 l 598 1210 l 777 1366 m 726 1152 l 1367 589 l 1367 274 l 1082 24 l 1082 469 l 1038 469 l 1038 22 l 205 22 l 205 321 l 556 631 l 560 631 l 560 635 l 726 780 l 726 1152 m 783 437 l 526 212 l 556 178 l 812 403 l 783 437 z "},"に":{"ha":1389,"x_min":23,"x_max":1367,"o":"m 23 1366 l 437 1366 l 437 22 l 23 22 l 23 1366 m 646 1366 l 1367 1366 l 1367 975 l 1142 656 l 1028 656 l 1028 612 l 1367 612 l 1367 22 l 481 22 l 481 464 l 719 793 l 846 793 l 846 838 l 481 838 l 481 1138 l 646 1366 z "},"ぬ":{"ha":1389,"x_min":23,"x_max":1367,"o":"m 64 1366 l 529 1366 l 529 1252 l 766 1252 l 766 1366 l 1233 1366 l 1128 1252 l 1264 1252 l 1264 614 l 1367 614 l 1367 429 l 1221 209 l 1257 184 l 1367 349 l 1367 22 l 656 22 l 656 614 l 911 614 l 911 755 l 867 755 l 867 659 l 612 659 l 612 214 l 484 22 l 23 22 l 23 1076 l 140 1246 l 64 1366 m 618 958 l 521 810 l 557 785 l 655 932 l 618 958 m 357 563 l 259 415 l 297 391 l 393 538 l 357 563 m 971 404 l 873 256 l 911 232 l 1009 378 l 971 404 z "},"ね":{"ha":1389,"x_min":23,"x_max":1367,"o":"m 152 1366 l 601 1366 l 601 1211 l 806 1211 l 665 996 l 703 970 l 936 1329 l 968 1366 l 1264 1366 l 1264 614 l 1367 614 l 1367 429 l 1221 209 l 1257 184 l 1367 349 l 1367 22 l 656 22 l 656 614 l 911 614 l 911 755 l 867 755 l 867 659 l 612 659 l 612 22 l 263 22 l 264 285 l 92 22 l 23 22 l 23 513 l 195 779 l 159 803 l 23 595 l 23 1211 l 228 1211 l 152 1366 m 971 404 l 873 256 l 911 232 l 1009 378 l 971 404 z "},"の":{"ha":1389,"x_min":23,"x_max":1366,"o":"m 407 1366 l 1366 1366 l 1366 408 l 983 23 l 983 983 l 406 983 l 406 327 l 667 590 l 636 621 l 450 435 l 450 939 l 939 939 l 939 22 l 23 22 l 23 981 l 407 1366 z "},"は":{"ha":1389,"x_min":23,"x_max":1367,"o":"m 23 1366 l 328 1366 l 328 23 l 23 23 l 23 1366 m 675 1366 l 1019 1366 l 1019 1236 l 1367 1236 l 1367 878 l 1019 878 l 1019 833 l 1367 833 l 1367 23 l 836 23 l 1099 452 l 1061 476 l 783 23 l 373 23 l 373 827 l 675 827 l 675 872 l 373 872 l 373 1236 l 675 1236 l 675 1366 m 678 476 l 562 285 l 600 260 l 716 452 l 678 476 z "},"ば":{"ha":1389,"x_min":23,"x_max":1367,"o":"m 23 1366 l 328 1366 l 328 23 l 23 23 l 23 1366 m 675 1366 l 894 1366 l 894 1097 l 1367 1097 l 1367 878 l 1019 878 l 1019 833 l 1367 833 l 1367 23 l 836 23 l 1099 452 l 1061 476 l 783 23 l 373 23 l 373 827 l 675 827 l 675 872 l 373 872 l 373 1236 l 675 1236 l 675 1366 m 939 1366 l 1164 1366 l 1104 1142 l 939 1142 l 939 1366 m 1210 1366 l 1367 1366 l 1367 1142 l 1150 1142 l 1210 1366 m 678 476 l 562 285 l 600 260 l 716 452 l 678 476 z "},"ぱ":{"ha":1389,"x_min":23,"x_max":1367,"o":"m 23 1366 l 328 1366 l 328 22 l 23 22 l 23 1366 m 675 1366 l 985 1366 l 985 986 l 1367 986 l 1367 878 l 1019 878 l 1019 833 l 1367 833 l 1367 22 l 836 22 l 1099 452 l 1061 476 l 783 22 l 373 22 l 373 827 l 675 827 l 675 872 l 373 872 l 373 1236 l 675 1236 l 675 1366 m 1029 1366 l 1367 1366 l 1367 1031 l 1029 1031 l 1029 1366 m 1229 1301 l 1126 1120 l 1164 1099 l 1268 1278 l 1229 1301 m 678 476 l 562 285 l 600 260 l 716 452 l 678 476 z "},"ひ":{"ha":1389,"x_min":23,"x_max":1366,"o":"m 23 1366 l 671 1366 l 671 640 l 454 422 l 487 391 l 718 621 l 718 1232 l 1366 1232 l 1366 23 l 1051 23 l 1051 690 l 1006 690 l 1006 216 l 812 23 l 23 23 l 23 602 l 354 933 l 321 964 l 203 846 l 23 846 l 23 1366 z "},"び":{"ha":1389,"x_min":23,"x_max":1367,"o":"m 23 1366 l 671 1366 l 671 640 l 454 422 l 487 391 l 718 621 l 718 1232 l 894 1232 l 894 1097 l 1367 1097 l 1367 22 l 1051 22 l 1051 690 l 1006 690 l 1006 216 l 812 22 l 23 22 l 23 602 l 354 933 l 321 964 l 203 846 l 23 846 l 23 1366 m 939 1366 l 1164 1366 l 1104 1142 l 939 1142 l 939 1366 m 1210 1366 l 1367 1366 l 1367 1142 l 1150 1142 l 1210 1366 z "},"ぴ":{"ha":1389,"x_min":23,"x_max":1367,"o":"m 23 1366 l 671 1366 l 671 640 l 454 422 l 487 391 l 718 621 l 718 1232 l 985 1232 l 985 986 l 1367 986 l 1367 22 l 1051 22 l 1051 690 l 1006 690 l 1006 216 l 812 22 l 23 22 l 23 602 l 354 933 l 321 964 l 203 846 l 23 846 l 23 1366 m 1029 1366 l 1367 1366 l 1367 1031 l 1029 1031 l 1029 1366 m 1229 1301 l 1126 1120 l 1164 1099 l 1268 1278 l 1229 1301 z "},"ふ":{"ha":1389,"x_min":23,"x_max":1366,"o":"m 174 1366 l 1213 1366 l 1176 1009 l 872 666 l 1066 538 l 1066 22 l 323 22 l 323 525 l 688 302 l 711 340 l 342 566 l 758 1081 l 724 1109 l 651 1020 l 212 1020 l 174 1366 m 205 975 l 616 975 l 278 559 l 278 22 l 23 22 l 23 792 l 205 975 m 1198 967 l 1366 844 l 1366 22 l 1111 22 l 1111 563 l 940 675 l 1198 967 z "},"ぶ":{"ha":1389,"x_min":23,"x_max":1367,"o":"m 174 1366 l 894 1366 l 894 1097 l 1185 1097 l 1176 1009 l 872 666 l 1066 538 l 1066 22 l 323 22 l 323 525 l 688 302 l 711 340 l 342 566 l 758 1081 l 724 1109 l 651 1020 l 212 1020 l 174 1366 m 939 1366 l 1164 1366 l 1104 1142 l 939 1142 l 939 1366 m 1210 1366 l 1367 1366 l 1367 1142 l 1150 1142 l 1210 1366 m 205 975 l 616 975 l 278 559 l 278 22 l 23 22 l 23 792 l 205 975 m 1198 967 l 1367 844 l 1367 22 l 1111 22 l 1111 563 l 940 675 l 1198 967 z "},"ぷ":{"ha":1389,"x_min":23,"x_max":1367,"o":"m 174 1366 l 985 1366 l 985 986 l 1156 986 l 872 666 l 1066 538 l 1066 23 l 323 23 l 323 525 l 688 302 l 711 340 l 342 566 l 758 1081 l 724 1109 l 651 1020 l 212 1020 l 174 1366 m 1029 1366 l 1367 1366 l 1367 1031 l 1029 1031 l 1029 1366 m 1229 1301 l 1126 1120 l 1164 1099 l 1268 1278 l 1229 1301 m 205 975 l 616 975 l 278 559 l 278 23 l 23 23 l 23 792 l 205 975 m 1198 967 l 1367 844 l 1367 23 l 1111 23 l 1111 563 l 940 675 l 1198 967 z "},"へ":{"ha":1389,"x_min":23,"x_max":1367,"o":"m 395 1366 l 639 1366 l 1290 564 l 1367 564 l 1367 22 l 793 22 l 463 430 l 463 696 l 418 696 l 418 159 l 23 159 l 23 1088 l 168 1088 l 395 1366 z "},"べ":{"ha":1389,"x_min":23,"x_max":1367,"o":"m 395 1366 l 639 1366 l 732 1251 l 732 1097 l 857 1097 l 1290 564 l 1367 564 l 1367 22 l 793 22 l 463 430 l 463 696 l 418 696 l 418 159 l 23 159 l 23 1088 l 168 1088 l 395 1366 m 777 1366 l 1002 1366 l 943 1142 l 777 1142 l 777 1366 m 1048 1366 l 1206 1366 l 1206 1142 l 989 1142 l 1048 1366 z "},"ぺ":{"ha":1389,"x_min":23,"x_max":1367,"o":"m 395 1366 l 639 1366 l 765 1210 l 765 986 l 947 986 l 1290 564 l 1367 564 l 1367 22 l 793 22 l 463 430 l 463 696 l 418 696 l 418 159 l 23 159 l 23 1088 l 168 1088 l 395 1366 m 810 1366 l 1147 1366 l 1147 1031 l 810 1031 l 810 1366 m 1010 1301 l 907 1120 l 945 1099 l 1050 1278 l 1010 1301 z "},"ほ":{"ha":1389,"x_min":23,"x_max":1367,"o":"m 23 1366 l 330 1366 l 330 22 l 23 22 l 23 1366 m 374 1366 l 1367 1366 l 1367 1090 l 1053 1090 l 1053 1046 l 1367 1046 l 1367 758 l 1053 758 l 1053 713 l 1367 713 l 1367 22 l 829 22 l 1173 384 l 1141 414 l 768 22 l 374 22 l 374 713 l 700 713 l 700 758 l 374 758 l 374 1046 l 700 1046 l 700 1090 l 374 1090 l 374 1366 m 730 439 l 574 275 l 606 244 l 762 408 l 730 439 z "},"ぼ":{"ha":1389,"x_min":23,"x_max":1367,"o":"m 23 1366 l 330 1366 l 330 23 l 23 23 l 23 1366 m 374 1366 l 1367 1366 l 1367 1222 l 895 1222 l 894 909 l 1366 909 l 1366 758 l 1053 758 l 1053 713 l 1366 713 l 1366 23 l 829 23 l 1173 384 l 1141 414 l 768 23 l 374 23 l 374 713 l 700 713 l 700 758 l 374 758 l 374 1046 l 700 1046 l 700 1090 l 374 1090 l 374 1366 m 1366 1177 l 1366 954 l 1150 954 l 1210 1177 l 1366 1177 m 1164 1177 l 1104 954 l 939 954 l 940 1177 l 1164 1177 m 730 439 l 574 275 l 606 244 l 762 408 l 730 439 z "},"ぽ":{"ha":1389,"x_min":23,"x_max":1367,"o":"m 23 1366 l 330 1366 l 330 22 l 23 22 l 23 1366 m 374 1366 l 985 1366 l 985 986 l 1367 986 l 1367 758 l 1053 758 l 1053 713 l 1367 713 l 1367 22 l 829 22 l 1173 384 l 1141 414 l 768 22 l 374 22 l 374 713 l 700 713 l 700 758 l 374 758 l 374 1046 l 700 1046 l 700 1090 l 374 1090 l 374 1366 m 1029 1366 l 1367 1366 l 1367 1031 l 1029 1031 l 1029 1366 m 1229 1301 l 1126 1120 l 1164 1099 l 1268 1278 l 1229 1301 m 730 439 l 574 275 l 606 244 l 762 408 l 730 439 z "},"ま":{"ha":1389,"x_min":23,"x_max":1367,"o":"m 652 1366 l 1078 1366 l 1025 1268 l 1367 1268 l 1367 1004 l 1025 1004 l 1025 959 l 1367 959 l 1367 700 l 1025 700 l 1025 655 l 1367 655 l 1367 23 l 732 23 l 1050 339 l 1019 370 l 670 23 l 23 23 l 23 473 l 205 655 l 652 655 l 652 700 l 23 700 l 23 959 l 652 959 l 652 1004 l 23 1004 l 23 1259 l 652 1259 l 652 1366 m 541 446 l 345 250 l 376 218 l 574 415 l 541 446 z "},"み":{"ha":1389,"x_min":23,"x_max":1367,"o":"m 23 1366 l 875 1366 l 875 935 l 920 935 l 920 1366 l 1256 1366 l 1256 905 l 1367 905 l 1367 515 l 1256 515 l 1256 23 l 643 23 l 920 274 l 920 515 l 875 515 l 875 294 l 576 23 l 23 23 l 23 681 l 269 905 l 522 905 l 522 949 l 23 949 l 23 1366 m 483 549 l 241 330 l 271 297 l 513 515 l 483 549 z "},"む":{"ha":1389,"x_min":23,"x_max":1366,"o":"m 340 1366 l 787 1366 l 704 1245 l 964 1245 l 964 901 l 705 899 l 705 309 l 1078 309 l 1078 472 l 1034 472 l 1034 354 l 750 354 l 750 854 l 975 856 l 1366 509 l 1366 22 l 23 22 l 23 857 l 340 857 l 340 902 l 23 902 l 23 1245 l 340 1245 l 340 1366 m 1009 1366 l 1160 1366 l 1366 1160 l 1366 570 l 1009 886 l 1009 1366 m 359 572 l 213 427 l 245 396 l 391 541 l 359 572 z "},"め":{"ha":1389,"x_min":23,"x_max":1367,"o":"m 151 1366 l 515 1366 l 515 1261 l 755 1261 l 755 1366 l 1150 1366 l 1093 1244 l 1367 1244 l 1367 305 l 1168 23 l 594 23 l 1025 639 l 987 665 l 538 23 l 23 23 l 23 1062 l 199 1261 l 151 1366 m 637 905 l 505 715 l 543 689 l 674 879 l 637 905 m 358 503 l 227 313 l 263 288 l 395 477 l 358 503 z "},"も":{"ha":1389,"x_min":23,"x_max":1367,"o":"m 141 1366 l 593 1366 l 593 1227 l 983 1227 l 983 845 l 591 845 l 591 800 l 983 800 l 983 431 l 591 431 l 591 387 l 1028 387 l 1028 1025 l 1367 823 l 1367 23 l 184 23 l 184 431 l 23 431 l 23 800 l 184 800 l 184 845 l 23 845 l 23 1227 l 221 1227 l 141 1366 m 1028 1050 l 1032 1047 l 1028 1042 l 1028 1050 z "},"ゃ":{"ha":1389,"x_min":23,"x_max":1367,"o":"m 23 1097 l 525 1097 l 525 868 l 571 868 l 571 1097 l 989 1097 l 987 963 l 1303 1048 q 1367 902 1329 977 l 1367 178 l 853 178 l 720 483 l 1029 568 l 1019 612 l 658 513 l 872 22 l 420 22 l 252 403 l 23 339 l 23 703 l 110 727 l 23 935 l 23 1097 z "},"や":{"ha":1389,"x_min":23,"x_max":1367,"o":"m 23 1366 l 525 1366 l 525 1080 l 570 1080 l 570 1366 l 989 1366 l 987 1203 l 1302 1310 q 1367 1120 1332 1218 l 1367 212 l 853 212 l 716 602 l 1031 709 l 1016 751 l 659 629 l 872 23 l 419 23 l 254 492 l 23 412 l 23 876 l 107 907 l 23 1161 l 23 1366 z "},"ゅ":{"ha":1389,"x_min":23,"x_max":1366,"o":"m 496 1097 l 849 1097 l 849 1005 l 1190 1005 l 1366 783 l 1366 336 l 1179 115 l 814 115 l 890 203 l 856 232 l 677 22 l 401 22 l 401 263 l 357 263 l 357 111 l 23 111 l 23 1005 l 357 1005 l 357 810 l 258 693 l 292 663 l 496 905 l 496 1097 m 990 707 l 774 453 l 810 425 l 1024 678 l 990 707 z "},"ゆ":{"ha":1389,"x_min":23,"x_max":1367,"o":"m 495 1366 l 848 1366 l 848 1255 l 1187 1255 l 1367 971 l 1367 415 l 1176 133 l 807 133 l 890 254 l 853 279 l 678 23 l 401 23 l 401 323 l 357 323 l 357 132 l 50 127 l 23 127 l 23 1255 l 357 1255 l 357 1004 l 255 854 l 293 830 l 495 1128 l 495 1366 m 987 872 l 773 555 l 810 530 l 1025 846 l 987 872 z "},"ょ":{"ha":1389,"x_min":23,"x_max":1367,"o":"m 484 1097 l 1004 1097 l 880 945 l 1367 945 l 1367 673 l 922 673 l 922 628 l 1367 628 l 1367 444 l 925 239 l 925 22 l 23 22 l 23 694 l 484 694 l 484 1097 m 579 450 l 336 239 l 366 205 l 608 416 l 579 450 z "},"よ":{"ha":1389,"x_min":23,"x_max":1366,"o":"m 484 1366 l 1006 1366 l 887 1181 l 1366 1181 l 1366 829 l 922 829 l 922 784 l 1366 784 l 1366 543 l 925 288 l 925 22 l 23 22 l 23 867 l 484 867 l 484 1366 m 576 551 l 335 286 l 368 256 l 610 521 l 576 551 z "},"ら":{"ha":1389,"x_min":23,"x_max":1367,"o":"m 121 1366 l 867 1366 l 1367 1023 l 1367 883 l 822 883 l 444 1145 l 444 582 l 488 582 l 488 838 l 1367 838 l 1367 23 l 434 23 l 903 345 l 878 382 l 355 23 l 23 23 l 23 1152 l 431 1153 l 121 1366 z "},"り":{"ha":1389,"x_min":23,"x_max":1367,"o":"m 245 1366 l 643 1366 l 643 1294 l 534 1184 l 566 1153 l 688 1275 l 780 1366 l 1367 1366 l 1367 250 l 1139 22 l 250 22 l 23 250 l 23 471 l 827 471 l 827 864 l 574 610 l 574 515 l 23 515 l 23 937 l 245 1366 z "},"る":{"ha":1389,"x_min":23,"x_max":1367,"o":"m 23 1366 l 1367 1366 l 1367 1188 l 1019 840 l 1051 808 l 1145 903 l 1367 903 l 1367 22 l 391 22 l 391 568 l 1016 568 l 1016 382 l 1061 382 l 1061 613 l 346 613 l 346 22 l 23 22 l 23 524 l 469 968 l 23 968 l 23 1366 m 776 399 l 578 199 l 609 168 l 807 368 l 776 399 z "},"れ":{"ha":1389,"x_min":23,"x_max":1367,"o":"m 168 1366 l 696 1366 l 696 1249 l 814 1366 l 1230 1366 l 1230 350 l 1367 486 l 1367 22 l 722 22 l 722 553 l 844 674 l 811 705 l 677 571 l 677 22 l 263 22 l 263 161 l 123 22 l 23 22 l 23 475 l 263 715 l 232 747 l 23 537 l 23 1203 l 263 1203 l 168 1366 z "},"ろ":{"ha":1389,"x_min":23,"x_max":1366,"o":"m 23 1366 l 1366 1366 l 1366 1221 l 1141 996 l 1138 996 l 1138 993 l 1065 918 l 1096 887 l 1160 951 l 1366 951 l 1366 22 l 23 22 l 23 382 l 909 382 l 909 427 l 23 427 l 23 814 l 387 814 l 519 948 l 23 948 l 23 1366 z "},"ゎ":{"ha":1389,"x_min":23,"x_max":1367,"o":"m 117 1097 l 655 1097 l 655 917 l 876 1097 l 1367 1097 l 1367 224 l 1123 22 l 700 22 l 700 304 l 1048 591 l 1020 625 l 655 326 l 655 22 l 285 22 l 285 251 l 23 37 l 23 393 l 282 608 l 254 642 l 23 452 l 23 952 l 294 952 l 117 1097 z "},"わ":{"ha":1389,"x_min":23,"x_max":1367,"o":"m 113 1366 l 654 1366 l 654 1143 l 869 1366 l 1367 1366 l 1367 270 l 1127 22 l 699 22 l 699 377 l 1048 738 l 1016 769 l 654 395 l 654 22 l 283 22 l 283 302 l 23 33 l 23 488 l 283 758 l 251 789 l 23 553 l 23 1190 l 283 1190 l 113 1366 z "},"ゐ":{"ha":1389,"x_min":23,"x_max":1367,"o":"m 23 1366 l 1168 1366 l 982 1019 l 1367 1019 l 1367 23 l 503 23 l 503 216 l 749 665 l 1084 665 l 1084 450 l 1128 450 l 1128 709 l 723 709 l 346 23 l 23 23 l 23 1019 l 640 1019 l 640 1063 l 23 1063 l 23 1366 m 397 704 l 275 481 l 315 461 l 437 682 l 397 704 m 890 431 l 769 210 l 808 189 l 929 411 l 890 431 z "},"ゑ":{"ha":1389,"x_min":23,"x_max":1366,"o":"m 23 1366 l 1366 1366 l 1366 1183 l 1062 974 l 1086 937 l 1241 1042 l 1366 1042 l 1366 400 l 264 400 l 264 789 l 891 789 l 891 618 l 936 618 l 936 834 l 220 834 l 220 391 l 23 256 l 23 814 l 481 1128 l 457 1165 l 327 1077 l 23 1077 l 23 1366 m 663 701 l 419 534 l 445 496 l 689 665 l 663 701 m 245 355 l 567 355 l 694 269 l 822 355 l 1143 355 l 1366 202 l 1366 23 l 1150 23 l 1004 122 l 859 23 l 530 23 l 385 122 l 239 23 l 23 23 l 23 202 l 245 355 z "},"を":{"ha":1389,"x_min":23,"x_max":1367,"o":"m 156 1366 l 620 1366 l 557 1257 l 1367 1257 l 1367 978 l 557 978 l 557 933 l 1190 933 l 1190 792 l 1366 831 l 1366 547 l 1190 509 l 1190 340 l 719 340 l 719 408 l 368 331 l 377 286 l 674 353 l 675 296 l 1367 296 l 1367 22 l 23 22 l 23 543 l 716 693 l 707 736 l 23 589 l 23 753 l 156 978 l 23 978 l 23 1257 l 156 1257 l 156 1366 z "},"ん":{"ha":1389,"x_min":23,"x_max":1366,"o":"m 23 1366 l 530 1366 l 438 1245 l 438 939 l 483 939 l 483 1092 l 738 1240 l 985 1240 l 985 389 l 1029 389 l 1029 922 l 1366 1116 l 1366 23 l 483 23 l 483 430 l 745 582 l 722 621 l 438 456 l 438 23 l 23 23 l 23 1366 z "},"ゔ":{"ha":1389,"x_min":23,"x_max":1366,"o":"m 294 1366 l 894 1366 l 894 1097 l 1073 1097 l 1112 1016 l 294 1016 l 294 1366 m 939 1366 l 1164 1366 l 1104 1142 l 939 1142 l 939 1366 m 1210 1366 l 1366 1366 l 1366 1142 l 1150 1142 l 1210 1366 m 23 1142 l 250 1142 l 250 971 l 1184 971 l 1123 1097 l 1366 1097 l 1366 416 l 1084 22 l 23 22 l 23 126 l 184 426 l 811 426 l 811 471 l 23 471 l 23 1142 z "},"ゕ":{"ha":1389,"x_min":23,"x_max":1367,"o":"m 142 1097 l 570 1097 l 498 990 l 948 990 l 948 281 l 773 23 l 384 23 l 562 285 l 562 544 l 517 544 l 517 298 l 330 23 l 23 23 l 23 91 l 142 267 l 142 548 l 23 549 l 23 990 l 142 990 l 142 1097 m 993 1097 l 1367 1097 l 1367 281 l 1192 22 l 827 22 l 993 267 l 993 1097 z "},"ゖ":{"ha":1389,"x_min":23,"x_max":1367,"o":"m 23 1097 l 374 1097 l 373 342 l 533 452 l 507 488 l 419 427 l 419 614 l 803 614 l 803 331 l 351 22 l 23 22 l 23 1097 m 848 1097 l 1284 1097 l 1246 1013 l 1367 1013 l 1367 659 l 1259 659 l 1259 22 l 431 22 l 848 308 l 848 659 l 419 659 l 419 1032 l 422 1032 l 422 1009 l 848 1009 l 848 1097 z "},"゙":{"ha":1389,"x_min":0,"x_max":0,"o":""},"゚":{"ha":1389,"x_min":0,"x_max":0,"o":""},"゛":{"ha":1389,"x_min":23,"x_max":450,"o":"m 23 1366 l 247 1366 l 187 1142 l 23 1142 l 23 1366 m 293 1366 l 450 1366 l 450 1142 l 233 1142 l 293 1366 z "},"゜":{"ha":1389,"x_min":23,"x_max":362,"o":"m 23 1366 l 362 1366 l 362 1031 l 23 1031 l 23 1366 m 224 1301 l 121 1120 l 160 1099 l 263 1278 l 224 1301 z "},"ゝ":{"ha":1389,"x_min":0,"x_max":0,"o":""},"ゞ":{"ha":1389,"x_min":0,"x_max":0,"o":""},"ゟ":{"ha":1389,"x_min":0,"x_max":0,"o":""},"゠":{"ha":1389,"x_min":0,"x_max":0,"o":""},"ァ":{"ha":1389,"x_min":23,"x_max":1367,"o":"m 23 1097 l 1367 1097 l 1367 552 l 890 171 l 890 22 l 23 22 l 23 406 l 370 406 l 370 659 l 844 659 l 735 572 l 762 537 l 971 704 l 23 704 l 23 1097 z "},"ア":{"ha":1389,"x_min":23,"x_max":1367,"o":"m 23 1366 l 1367 1366 l 1367 680 l 890 203 l 890 23 l 23 23 l 23 507 l 370 507 l 370 823 l 853 823 l 732 703 l 765 671 l 962 868 l 23 868 l 23 1366 z "},"ィ":{"ha":1389,"x_min":23,"x_max":1367,"o":"m 1059 1097 l 1367 1097 l 1367 746 l 1038 480 l 1038 22 l 465 22 l 465 297 l 23 297 l 23 789 l 1059 1097 z "},"イ":{"ha":1389,"x_min":23,"x_max":1367,"o":"m 1044 1366 l 1367 1366 l 1367 925 l 1035 589 l 1035 23 l 464 23 l 464 358 l 23 358 l 23 986 l 1044 1366 z "},"ゥ":{"ha":1389,"x_min":23,"x_max":1367,"o":"m 464 1097 l 1044 1097 l 948 966 l 1367 966 l 1367 262 l 1066 22 l 23 22 l 23 252 l 846 429 l 846 571 l 545 571 l 545 410 l 23 298 l 23 966 l 464 966 l 464 1097 z "},"ウ":{"ha":1389,"x_min":23,"x_max":1367,"o":"m 463 1366 l 1044 1366 l 952 1207 l 1367 1207 l 1367 316 l 1073 23 l 23 23 l 23 313 l 845 533 l 845 701 l 544 701 l 544 499 l 23 359 l 23 1207 l 463 1207 l 463 1366 z "},"ェ":{"ha":1389,"x_min":23,"x_max":1367,"o":"m 23 966 l 1367 966 l 1367 674 l 963 674 l 963 476 l 1008 476 l 1008 551 l 1367 551 l 1367 22 l 23 22 l 23 551 l 381 551 l 381 476 l 426 476 l 426 674 l 23 674 l 23 966 z "},"エ":{"ha":1389,"x_min":23,"x_max":1367,"o":"m 23 1207 l 1367 1207 l 1367 831 l 963 831 l 963 590 l 1008 590 l 1008 689 l 1367 689 l 1367 22 l 23 22 l 23 689 l 381 689 l 381 590 l 426 590 l 426 831 l 23 831 l 23 1207 z "},"ォ":{"ha":1389,"x_min":23,"x_max":1367,"o":"m 703 1097 l 1276 1097 l 1180 966 l 1367 966 l 1367 585 l 1185 585 l 1185 22 l 362 22 l 682 278 l 654 313 l 290 22 l 23 22 l 23 330 l 340 585 l 23 585 l 23 966 l 703 966 l 703 1097 z "},"オ":{"ha":1389,"x_min":23,"x_max":1367,"o":"m 703 1366 l 1276 1366 l 1184 1207 l 1367 1207 l 1367 719 l 1184 719 l 1184 22 l 358 22 l 684 349 l 651 380 l 294 22 l 23 22 l 23 411 l 331 719 l 23 719 l 23 1207 l 703 1207 l 703 1366 z "},"カ":{"ha":1389,"x_min":23,"x_max":1367,"o":"m 439 1366 l 1032 1366 l 977 1207 l 1367 1207 l 1367 22 l 614 22 l 838 667 l 796 682 l 567 22 l 23 22 l 23 159 q 197 665 109 415 l 208 694 l 23 694 l 23 1206 l 384 1206 l 439 1366 z "},"ガ":{"ha":1389,"x_min":23,"x_max":1367,"o":"m 441 1366 l 894 1366 l 894 1097 l 1367 1097 l 1367 22 l 614 22 l 838 667 l 796 682 l 567 22 l 23 22 l 23 159 l 208 694 l 23 694 l 23 1206 l 384 1206 l 441 1366 m 939 1366 l 1164 1366 l 1104 1142 l 939 1142 l 939 1366 m 1210 1366 l 1367 1366 l 1367 1142 l 1150 1142 l 1210 1366 z "},"キ":{"ha":1389,"x_min":23,"x_max":1367,"o":"m 297 1366 l 891 1366 l 921 1204 l 1367 1204 l 1367 777 l 1028 777 l 1028 732 l 1367 732 l 1367 228 l 1099 228 l 1138 22 l 545 22 l 507 228 l 23 228 l 23 732 l 387 732 l 387 777 l 23 777 l 23 1204 l 327 1204 l 297 1366 z "},"ギ":{"ha":1389,"x_min":23,"x_max":1367,"o":"m 297 1366 l 894 1366 l 894 1097 l 1367 1097 l 1367 777 l 1028 777 l 1028 732 l 1367 732 l 1367 228 l 1097 228 l 1138 23 l 545 23 l 507 228 l 23 228 l 23 732 l 387 732 l 387 777 l 23 777 l 23 1204 l 327 1204 l 297 1366 m 939 1366 l 1164 1366 l 1104 1142 l 939 1142 l 939 1366 m 1210 1366 l 1367 1366 l 1367 1142 l 1150 1142 l 1210 1366 z "},"ク":{"ha":1389,"x_min":23,"x_max":1366,"o":"m 411 1366 l 960 1366 l 868 1206 l 1366 1206 l 1366 571 l 1050 22 l 361 22 l 758 712 l 720 735 l 515 381 l 23 381 l 23 694 l 411 1366 z "},"グ":{"ha":1389,"x_min":23,"x_max":1367,"o":"m 411 1366 l 894 1366 l 894 1097 l 1367 1097 l 1367 571 l 1050 22 l 361 22 l 758 712 l 720 735 l 515 381 l 23 381 l 23 694 l 411 1366 m 939 1366 l 1164 1366 l 1104 1142 l 939 1142 l 939 1366 m 1210 1366 l 1367 1366 l 1367 1142 l 1150 1142 l 1210 1366 z "},"ケ":{"ha":1389,"x_min":23,"x_max":1367,"o":"m 419 1366 l 955 1366 l 863 1206 l 1367 1206 l 1367 609 l 1157 609 l 1157 368 l 958 23 l 330 23 l 647 572 l 608 595 l 481 374 l 23 374 l 23 937 l 171 937 l 419 1366 z "},"ゲ":{"ha":1389,"x_min":23,"x_max":1367,"o":"m 419 1366 l 894 1366 l 894 1097 l 1367 1097 l 1367 609 l 1157 609 l 1157 368 l 958 22 l 330 22 l 647 572 l 608 595 l 481 374 l 23 374 l 23 937 l 171 937 l 419 1366 m 939 1366 l 1164 1366 l 1104 1142 l 939 1142 l 939 1366 m 1210 1366 l 1367 1366 l 1367 1142 l 1150 1142 l 1210 1366 z "},"コ":{"ha":1389,"x_min":23,"x_max":1367,"o":"m 23 1204 l 1367 1204 l 1367 22 l 23 22 l 23 644 l 807 644 l 807 834 l 23 834 l 23 1204 z "},"ゴ":{"ha":1389,"x_min":23,"x_max":1367,"o":"m 939 1366 l 1164 1366 l 1104 1142 l 939 1142 l 939 1366 m 1210 1366 l 1367 1366 l 1367 1142 l 1150 1142 l 1210 1366 m 23 1204 l 894 1204 l 894 1097 l 1367 1097 l 1367 22 l 23 22 l 23 644 l 807 644 l 807 834 l 23 834 l 23 1204 z "},"サ":{"ha":1389,"x_min":23,"x_max":1367,"o":"m 155 1366 l 671 1366 l 671 1204 l 718 1204 l 718 1366 l 1237 1366 l 1237 1204 l 1367 1204 l 1367 838 l 1238 838 l 1238 264 l 994 23 l 23 23 l 23 377 l 718 377 l 718 821 l 671 821 l 671 422 l 155 422 l 155 838 l 23 838 l 23 1204 l 155 1204 l 155 1366 z "},"ザ":{"ha":1389,"x_min":23,"x_max":1367,"o":"m 155 1366 l 671 1366 l 671 1204 l 718 1204 l 718 1366 l 894 1366 l 894 1097 l 1367 1097 l 1367 838 l 1237 838 l 1237 264 l 994 22 l 23 22 l 23 377 l 718 377 l 718 821 l 671 821 l 671 422 l 155 422 l 155 838 l 23 838 l 23 1204 l 155 1204 l 155 1366 m 939 1366 l 1164 1366 l 1104 1142 l 939 1142 l 939 1366 m 1210 1366 l 1367 1366 l 1367 1142 l 1150 1142 l 1210 1366 z "},"シ":{"ha":1389,"x_min":23,"x_max":1366,"o":"m 149 1366 l 769 1366 l 769 972 l 149 972 l 149 1366 m 814 1206 l 1366 1206 l 1366 281 l 1108 22 l 23 22 l 23 496 l 814 496 l 814 1206 m 149 928 l 769 928 l 769 541 l 149 541 l 149 928 z "},"ジ":{"ha":1389,"x_min":23,"x_max":1367,"o":"m 149 1366 l 769 1366 l 769 972 l 149 972 l 149 1366 m 939 1366 l 1164 1366 l 1104 1142 l 939 1142 l 939 1366 m 1210 1366 l 1367 1366 l 1367 1142 l 1150 1142 l 1210 1366 m 814 1206 l 894 1206 l 894 1097 l 1367 1097 l 1367 281 l 1108 23 l 23 23 l 23 496 l 814 496 l 814 1206 m 149 928 l 769 928 l 769 541 l 149 541 l 149 928 z "},"ス":{"ha":1389,"x_min":23,"x_max":1367,"o":"m 23 1366 l 1367 1366 l 1367 1080 l 1143 694 l 1367 309 l 1367 23 l 930 23 l 842 175 l 755 23 l 23 23 l 23 602 l 457 602 l 585 825 l 23 825 l 23 1366 z "},"ズ":{"ha":1389,"x_min":23,"x_max":1367,"o":"m 23 1366 l 894 1366 l 894 1097 l 1367 1097 l 1367 1080 l 1143 694 l 1367 309 l 1367 23 l 930 23 l 842 175 l 755 23 l 23 23 l 23 602 l 457 602 l 585 825 l 23 825 l 23 1366 m 939 1366 l 1164 1366 l 1104 1142 l 939 1142 l 939 1366 m 1210 1366 l 1367 1366 l 1367 1142 l 1150 1142 l 1210 1366 z "},"セ":{"ha":1389,"x_min":23,"x_max":1367,"o":"m 152 1366 l 667 1366 l 667 1207 l 1367 1207 l 1367 747 l 1146 365 l 604 365 l 806 715 l 697 715 l 697 670 l 728 670 l 526 320 l 1172 320 l 1306 553 l 1367 553 l 1367 22 l 163 22 l 163 719 l 23 719 l 23 1207 l 152 1207 l 152 1366 z "},"ゼ":{"ha":1389,"x_min":23,"x_max":1367,"o":"m 152 1366 l 667 1366 l 667 1207 l 894 1207 l 894 1097 l 1367 1097 l 1367 747 l 1146 365 l 604 365 l 806 715 l 697 715 l 697 670 l 728 670 l 526 320 l 1172 320 l 1306 553 l 1367 553 l 1367 22 l 163 22 l 163 719 l 23 719 l 23 1207 l 152 1207 l 152 1366 m 939 1366 l 1164 1366 l 1104 1142 l 939 1142 l 939 1366 m 1210 1366 l 1367 1366 l 1367 1142 l 1150 1142 l 1210 1366 z "},"ソ":{"ha":1389,"x_min":23,"x_max":1367,"o":"m 23 1366 l 460 1366 l 724 1038 l 444 475 l 231 475 l 23 735 l 23 1366 m 937 1366 l 1367 1366 l 1367 636 l 1012 22 l 270 22 l 937 1366 z "},"ゾ":{"ha":1389,"x_min":23,"x_max":1367,"o":"m 23 1366 l 460 1366 l 724 1038 l 444 475 l 231 475 l 23 735 l 23 1366 m 937 1366 l 1366 1366 l 1366 636 l 1237 412 l 895 411 l 894 99 l 1055 99 l 1012 22 l 270 22 l 937 1366 m 1367 368 l 1367 144 l 1150 144 l 1210 366 l 1367 368 m 1164 366 l 1104 144 l 939 144 l 940 366 l 1164 366 z "},"タ":{"ha":1389,"x_min":23,"x_max":1367,"o":"m 414 1366 l 977 1366 l 884 1207 l 1367 1207 l 1367 624 l 1019 23 l 452 23 l 631 331 l 445 437 l 659 808 l 844 701 l 916 825 l 876 848 l 827 762 l 643 869 l 384 420 l 568 313 l 494 183 l 23 183 l 23 689 l 414 1366 z "},"ダ":{"ha":1389,"x_min":23,"x_max":1367,"o":"m 414 1366 l 894 1366 l 894 1097 l 1367 1097 l 1367 624 l 1019 22 l 452 22 l 631 331 l 445 437 l 659 808 l 844 701 l 916 825 l 876 848 l 827 762 l 643 869 l 384 420 l 568 313 l 494 183 l 23 183 l 23 689 l 414 1366 m 939 1366 l 1164 1366 l 1104 1142 l 939 1142 l 939 1366 m 1210 1366 l 1367 1366 l 1367 1142 l 1150 1142 l 1210 1366 z "},"チ":{"ha":1389,"x_min":23,"x_max":1367,"o":"m 914 1366 l 1367 1366 l 1367 871 l 960 871 l 960 826 l 1367 826 l 1367 378 l 979 378 l 979 22 l 23 22 l 23 351 l 429 351 l 429 396 l 23 396 l 23 826 l 429 826 l 429 871 l 23 871 l 23 1040 l 914 1366 z "},"ヂ":{"ha":1389,"x_min":23,"x_max":1367,"o":"m 939 1366 l 1164 1366 l 1104 1142 l 939 1142 l 939 1366 m 1210 1366 l 1367 1366 l 1367 1142 l 1150 1142 l 1210 1366 m 894 1359 l 894 1097 l 1367 1097 l 1367 871 l 960 871 l 960 826 l 1367 826 l 1367 396 l 960 396 l 960 23 l 23 23 l 23 351 l 429 351 l 429 396 l 23 396 l 23 826 l 429 826 l 429 871 l 23 871 l 23 1040 l 894 1359 z "},"ッ":{"ha":1389,"x_min":23,"x_max":1367,"o":"m 23 1097 l 449 1097 l 449 496 l 23 496 l 23 1097 m 494 1097 l 898 1097 l 898 496 l 494 496 l 494 1097 m 943 1097 l 1367 1097 l 1367 473 l 1040 22 l 269 22 l 269 452 l 943 452 l 943 1097 z "},"ツ":{"ha":1389,"x_min":23,"x_max":1367,"o":"m 23 1366 l 448 1366 l 448 609 l 23 609 l 23 1366 m 492 1366 l 897 1366 l 897 609 l 492 609 l 492 1366 m 941 1366 l 1367 1366 l 1367 585 l 1042 22 l 269 22 l 269 564 l 941 564 l 941 1366 z "},"ヅ":{"ha":1389,"x_min":23,"x_max":1367,"o":"m 23 1366 l 448 1366 l 448 609 l 23 609 l 23 1366 m 492 1366 l 897 1366 l 897 609 l 492 609 l 492 1366 m 941 1366 l 1367 1366 l 1367 585 l 1267 412 l 895 411 l 894 99 l 1086 99 l 1042 23 l 269 23 l 269 564 l 941 564 l 941 1366 m 1366 368 l 1366 144 l 1150 144 l 1210 366 l 1366 368 m 1164 366 l 1104 144 l 939 144 l 940 366 l 1164 366 z "},"テ":{"ha":1389,"x_min":23,"x_max":1367,"o":"m 138 1366 l 1251 1366 l 1251 941 l 138 941 l 138 1366 m 23 897 l 1367 897 l 1367 361 l 967 361 l 967 22 l 23 22 l 23 316 l 465 316 l 465 361 l 23 361 l 23 897 z "},"デ":{"ha":1389,"x_min":23,"x_max":1367,"o":"m 138 1366 l 894 1366 l 894 1097 l 1251 1097 l 1251 941 l 138 941 l 138 1366 m 939 1366 l 1164 1366 l 1104 1142 l 939 1142 l 939 1366 m 1210 1366 l 1367 1366 l 1367 1142 l 1150 1142 l 1210 1366 m 23 897 l 1367 897 l 1367 361 l 967 361 l 967 22 l 23 22 l 23 316 l 465 316 l 465 361 l 23 361 l 23 897 z "},"ト":{"ha":1389,"x_min":23,"x_max":1367,"o":"m 23 1366 l 629 1366 l 629 974 l 1367 776 l 1367 366 l 629 366 l 629 22 l 23 22 l 23 1366 z "},"ド":{"ha":1389,"x_min":23,"x_max":1367,"o":"m 23 1366 l 629 1366 l 629 974 l 1367 776 l 1367 366 l 629 366 l 629 22 l 23 22 l 23 1366 m 939 1366 l 1164 1366 l 1104 1142 l 939 1142 l 939 1366 m 1210 1366 l 1367 1366 l 1367 1142 l 1150 1142 l 1210 1366 z "},"ナ":{"ha":1389,"x_min":23,"x_max":1367,"o":"m 600 1366 l 1199 1366 l 1107 1207 l 1367 1207 l 1367 719 l 1119 719 l 1119 279 l 673 22 l 23 22 l 23 674 l 583 674 l 583 719 l 23 719 l 23 1207 l 600 1207 l 600 1366 z "},"ニ":{"ha":1389,"x_min":23,"x_max":1367,"o":"m 151 1366 l 1238 1366 l 1238 825 l 151 825 l 151 1366 m 23 780 l 1367 780 l 1367 23 l 23 23 l 23 780 z "},"ヌ":{"ha":1389,"x_min":23,"x_max":1367,"o":"m 23 1366 l 1367 1366 l 1367 1021 l 1084 532 l 1367 368 l 1367 22 l 1001 22 l 842 114 l 789 22 l 23 22 l 23 449 l 172 449 l 327 361 l 349 399 l 175 499 l 416 917 l 605 807 l 628 846 l 400 978 l 317 834 l 23 834 l 23 1366 z "},"ネ":{"ha":1389,"x_min":23,"x_max":1367,"o":"m 434 1366 l 1043 1366 l 951 1207 l 1367 1207 l 1367 708 l 1120 567 l 1367 425 l 1367 22 l 1331 22 l 932 165 l 932 22 l 457 22 l 457 165 l 58 22 l 23 22 l 23 418 l 642 776 l 618 815 l 415 697 l 23 697 l 23 1207 l 434 1207 l 434 1366 z "},"ノ":{"ha":1389,"x_min":23,"x_max":1366,"o":"m 819 1366 l 1366 1366 l 1366 825 l 564 23 l 23 23 l 23 793 l 245 793 l 819 1366 z "},"ハ":{"ha":1389,"x_min":23,"x_max":1367,"o":"m 151 1366 l 720 1366 l 720 298 l 444 22 l 23 22 l 23 555 l 151 684 l 151 1366 m 765 1366 l 1104 1366 l 1367 1104 l 1367 22 l 1042 22 l 765 298 l 765 1366 z "},"バ":{"ha":1389,"x_min":23,"x_max":1367,"o":"m 151 1366 l 720 1366 l 720 298 l 444 22 l 23 22 l 23 555 l 151 684 l 151 1366 m 765 1366 l 894 1366 l 894 1097 l 1367 1097 l 1367 22 l 1042 22 l 765 298 l 765 1366 m 939 1366 l 1164 1366 l 1104 1142 l 939 1142 l 939 1366 m 1210 1366 l 1367 1366 l 1367 1142 l 1150 1142 l 1210 1366 z "},"パ":{"ha":1389,"x_min":23,"x_max":1367,"o":"m 151 1366 l 720 1366 l 720 298 l 444 22 l 23 22 l 23 555 l 151 684 l 151 1366 m 765 1366 l 985 1366 l 985 986 l 1367 986 l 1367 22 l 1042 22 l 765 298 l 765 1366 m 1029 1366 l 1367 1366 l 1367 1031 l 1029 1031 l 1029 1366 m 1229 1301 l 1126 1120 l 1164 1099 l 1268 1278 l 1229 1301 z "},"ヒ":{"ha":1389,"x_min":23,"x_max":1367,"o":"m 23 1366 l 598 1366 l 598 1187 l 910 1366 l 1251 1366 l 1251 675 l 598 675 l 598 631 l 1367 631 l 1367 22 l 23 22 l 23 1366 z "},"ビ":{"ha":1389,"x_min":23,"x_max":1367,"o":"m 23 1366 l 598 1366 l 598 1187 l 894 1358 l 894 1097 l 1251 1097 l 1251 675 l 598 675 l 598 631 l 1367 631 l 1367 23 l 23 23 l 23 1366 m 939 1366 l 1164 1366 l 1104 1142 l 939 1142 l 939 1366 m 1210 1366 l 1367 1366 l 1367 1142 l 1150 1142 l 1210 1366 z "},"ピ":{"ha":1389,"x_min":23,"x_max":1367,"o":"m 23 1366 l 598 1366 l 598 1187 l 910 1366 l 985 1366 l 985 986 l 1251 986 l 1251 675 l 598 675 l 598 631 l 1367 631 l 1367 22 l 23 22 l 23 1366 m 1029 1366 l 1367 1366 l 1367 1031 l 1029 1031 l 1029 1366 m 1229 1301 l 1126 1120 l 1164 1099 l 1268 1278 l 1229 1301 z "},"フ":{"ha":1389,"x_min":23,"x_max":1367,"o":"m 23 1366 l 1367 1366 l 1367 719 l 964 23 l 221 23 l 549 591 l 23 591 l 23 1366 z "},"ブ":{"ha":1389,"x_min":23,"x_max":1367,"o":"m 23 1366 l 894 1366 l 894 1097 l 1367 1097 l 1367 719 l 964 22 l 221 22 l 549 591 l 23 591 l 23 1366 m 939 1366 l 1164 1366 l 1104 1142 l 939 1142 l 939 1366 m 1210 1366 l 1367 1366 l 1367 1142 l 1150 1142 l 1210 1366 z "},"プ":{"ha":1389,"x_min":23,"x_max":1367,"o":"m 23 1366 l 985 1366 l 985 986 l 1367 986 l 1367 719 l 964 22 l 221 22 l 549 591 l 23 591 l 23 1366 m 1029 1366 l 1367 1366 l 1367 1031 l 1029 1031 l 1029 1366 m 1229 1301 l 1126 1120 l 1164 1099 l 1268 1278 l 1229 1301 z "},"ヘ":{"ha":1389,"x_min":23,"x_max":1367,"o":"m 241 1366 l 680 1366 l 1367 970 l 1367 22 l 1165 22 l 400 464 l 178 241 l 23 241 l 23 1147 l 241 1366 z "},"ベ":{"ha":1389,"x_min":23,"x_max":1367,"o":"m 241 1366 l 680 1366 l 894 1242 l 894 1097 l 1146 1097 l 1367 970 l 1367 22 l 1165 22 l 400 464 l 178 241 l 23 241 l 23 1147 l 241 1366 m 939 1366 l 1164 1366 l 1104 1142 l 939 1142 l 939 1366 m 1210 1366 l 1367 1366 l 1367 1142 l 1150 1142 l 1210 1366 z "},"ペ":{"ha":1389,"x_min":23,"x_max":1367,"o":"m 241 1366 l 680 1366 l 985 1191 l 985 986 l 1339 986 l 1367 970 l 1367 22 l 1165 22 l 400 464 l 178 241 l 23 241 l 23 1147 l 241 1366 m 1029 1366 l 1367 1366 l 1367 1031 l 1029 1031 l 1029 1366 m 1229 1301 l 1126 1120 l 1164 1099 l 1268 1278 l 1229 1301 z "},"ホ":{"ha":1389,"x_min":23,"x_max":1367,"o":"m 469 1366 l 985 1366 l 892 1207 l 1367 1207 l 1367 719 l 918 719 l 918 22 l 374 22 l 471 187 l 471 719 l 23 719 l 23 1207 l 469 1207 l 469 1366 m 132 674 l 425 674 l 425 199 l 323 22 l 23 22 l 23 450 l 146 666 l 132 674 m 963 674 l 1257 674 l 1242 666 l 1367 450 l 1367 22 l 963 22 l 963 674 z "},"ボ":{"ha":1389,"x_min":23,"x_max":1367,"o":"m 469 1366 l 894 1366 l 894 1097 l 1367 1097 l 1367 719 l 918 719 l 918 22 l 374 22 l 469 187 l 469 719 l 23 719 l 23 1207 l 469 1207 l 469 1366 m 939 1366 l 1164 1366 l 1104 1142 l 939 1142 l 939 1366 m 1210 1366 l 1367 1366 l 1367 1142 l 1150 1142 l 1210 1366 m 132 674 l 425 674 l 425 199 l 323 22 l 23 22 l 23 450 l 146 666 l 132 674 m 963 674 l 1257 674 l 1242 666 l 1367 450 l 1367 22 l 963 22 l 963 674 z "},"ポ":{"ha":1389,"x_min":23,"x_max":1367,"o":"m 469 1366 l 985 1366 l 892 1207 l 985 1207 l 985 986 l 1367 986 l 1367 719 l 918 719 l 918 22 l 374 22 l 469 187 l 469 719 l 23 719 l 23 1207 l 469 1207 l 469 1366 m 1029 1366 l 1367 1366 l 1367 1031 l 1029 1031 l 1029 1366 m 1229 1301 l 1126 1120 l 1164 1099 l 1268 1278 l 1229 1301 m 132 674 l 425 674 l 425 199 l 323 22 l 23 22 l 23 450 l 146 666 l 132 674 m 963 674 l 1257 674 l 1242 666 l 1367 450 l 1367 22 l 963 22 l 963 674 z "},"マ":{"ha":1389,"x_min":23,"x_max":1367,"o":"m 23 1366 l 1367 1366 l 1367 692 l 1207 415 l 1367 323 l 1194 22 l 259 22 l 259 232 l 575 780 l 865 613 l 887 651 l 559 841 l 345 469 l 23 469 l 23 1366 z "},"ミ":{"ha":1389,"x_min":23,"x_max":1366,"o":"m 23 1366 l 1114 1366 l 1366 1253 l 1366 853 l 920 1054 l 23 1054 l 23 1366 m 23 1009 l 910 1009 l 1366 804 l 1366 351 l 807 602 l 23 602 l 23 1009 m 23 557 l 798 557 l 1366 301 l 1366 23 l 23 23 l 23 557 z "},"ム":{"ha":1389,"x_min":23,"x_max":1366,"o":"m 283 1366 l 1010 1366 l 476 441 l 821 441 l 821 486 l 553 486 l 852 1004 l 1131 1004 l 1366 595 l 1366 23 l 23 23 l 23 913 l 283 1366 z "},"メ":{"ha":1389,"x_min":23,"x_max":1367,"o":"m 502 1366 l 1367 1366 l 1367 935 l 1218 732 l 1367 684 l 1367 99 l 867 256 l 694 23 l 23 23 l 23 91 l 245 453 l 23 525 l 23 1109 l 503 959 l 502 1366 m 1366 98 l 1366 80 l 1362 81 l 1366 98 z "},"モ":{"ha":1389,"x_min":23,"x_max":1367,"o":"m 23 1366 l 1367 1366 l 1367 1066 l 789 1066 l 789 1021 l 1367 1021 l 1367 614 l 789 614 l 789 570 l 1367 570 l 1367 23 l 233 23 l 233 608 l 23 608 l 23 1021 l 233 1021 l 233 1066 l 23 1066 l 23 1366 z "},"ャ":{"ha":1389,"x_min":23,"x_max":1367,"o":"m 23 1097 l 669 1097 l 699 1002 l 1051 1097 l 1367 1097 l 1367 294 l 997 194 l 735 396 l 918 618 l 693 556 l 704 513 l 795 537 l 671 388 l 978 152 l 981 142 l 982 144 l 1021 22 l 374 22 l 241 433 l 23 373 l 23 817 l 109 840 l 23 1097 z "},"ヤ":{"ha":1389,"x_min":23,"x_max":1367,"o":"m 23 1366 l 669 1366 l 697 1252 l 1035 1366 l 1367 1366 l 1367 358 l 998 232 l 732 488 l 911 758 l 692 684 l 705 642 l 802 674 l 674 481 l 978 189 l 978 186 l 1021 23 l 374 23 l 243 530 l 23 454 l 23 1020 l 107 1048 l 23 1366 z "},"ュ":{"ha":1389,"x_min":23,"x_max":1366,"o":"m 142 1097 l 1245 1097 l 1119 452 l 1366 452 l 1366 22 l 23 22 l 23 452 l 655 452 l 655 496 l 142 496 l 142 1097 z "},"ユ":{"ha":1389,"x_min":23,"x_max":1367,"o":"m 142 1366 l 1245 1366 l 1120 564 l 1367 564 l 1367 22 l 23 22 l 23 564 l 655 564 l 655 609 l 142 609 l 142 1366 z "},"ョ":{"ha":1389,"x_min":23,"x_max":1367,"o":"m 23 1097 l 1367 1097 l 1367 585 l 1238 22 l 149 22 l 149 278 l 920 278 l 920 323 l 149 323 l 149 625 l 920 625 l 920 670 l 23 670 l 23 1097 z "},"ヨ":{"ha":1389,"x_min":23,"x_max":1367,"o":"m 23 1366 l 1367 1366 l 1367 735 l 1237 22 l 149 22 l 149 347 l 918 347 l 918 392 l 149 392 l 149 781 l 918 781 l 918 826 l 23 826 l 23 1366 z "},"ラ":{"ha":1389,"x_min":23,"x_max":1367,"o":"m 23 1366 l 1367 1366 l 1367 842 l 23 842 l 23 1366 m 23 798 l 1367 798 l 1367 327 l 1191 22 l 749 22 l 827 316 l 23 316 l 23 798 z "},"リ":{"ha":1389,"x_min":23,"x_max":1367,"o":"m 718 1366 l 1367 1366 l 1367 511 l 1002 22 l 450 22 l 718 486 l 718 1366 m 23 1253 l 671 1253 l 671 498 l 604 377 l 129 377 l 23 774 l 23 1253 z "},"ル":{"ha":1389,"x_min":23,"x_max":1367,"o":"m 633 1366 l 1166 1366 l 1166 637 l 1367 753 l 1367 277 l 926 22 l 633 22 l 633 1366 m 195 1236 l 589 1236 l 589 22 l 23 22 l 23 332 l 195 1236 z "},"レ":{"ha":1389,"x_min":23,"x_max":1367,"o":"m 23 1366 l 773 1366 l 773 720 l 1367 880 l 1367 327 l 697 22 l 23 22 l 23 1366 z "},"ロ":{"ha":1389,"x_min":23,"x_max":1367,"o":"m 23 1366 l 454 1366 l 454 1229 l 967 1366 l 1367 1366 l 1367 511 l 1236 23 l 23 23 l 23 1366 m 880 643 l 442 389 l 465 351 l 903 604 l 880 643 z "},"ヮ":{"ha":1389,"x_min":23,"x_max":1366,"o":"m 23 1097 l 1366 1097 l 1366 297 l 1023 22 l 484 22 l 810 378 l 810 568 l 553 568 l 553 387 l 23 387 l 23 1097 z "},"ワ":{"ha":1389,"x_min":23,"x_max":1367,"o":"m 23 1366 l 1367 1366 l 1367 362 l 1027 22 l 483 22 l 810 471 l 810 699 l 552 699 l 552 471 l 23 471 l 23 1366 z "},"ヰ":{"ha":1389,"x_min":23,"x_max":1367,"o":"m 718 1366 l 1236 1366 l 1236 1207 l 1367 1207 l 1367 807 l 1255 807 l 1255 582 l 1367 582 l 1367 182 l 1236 182 l 1236 22 l 718 22 l 718 182 l 23 182 l 23 582 l 134 582 l 134 807 l 23 807 l 23 1207 l 718 1207 l 718 1366 m 700 804 l 572 578 l 700 578 l 700 804 z "},"ヱ":{"ha":1389,"x_min":23,"x_max":1367,"o":"m 23 1207 l 1367 1207 l 1367 821 l 1004 617 l 1004 948 l 385 948 l 385 836 l 23 836 l 23 1207 m 430 903 l 959 903 l 959 456 l 1004 456 l 1004 553 l 1367 553 l 1367 22 l 23 22 l 23 553 l 385 553 l 385 456 l 430 456 l 430 903 z "},"ヲ":{"ha":1389,"x_min":23,"x_max":1367,"o":"m 23 1366 l 1367 1366 l 1367 411 l 1069 22 l 666 22 l 779 321 l 23 321 l 23 735 l 804 735 l 804 780 l 23 780 l 23 1366 z "},"ン":{"ha":1389,"x_min":23,"x_max":1367,"o":"m 23 1366 l 788 1366 l 788 601 l 23 601 l 23 1366 m 833 1118 l 1367 1118 l 1367 377 l 1162 22 l 23 22 l 23 556 l 833 556 l 833 1118 z "},"ヴ":{"ha":1389,"x_min":23,"x_max":1367,"o":"m 463 1366 l 894 1366 l 894 1104 l 1367 1104 l 1367 316 l 1073 23 l 23 23 l 23 313 l 845 533 l 845 701 l 544 701 l 544 499 l 23 359 l 23 1207 l 463 1207 l 463 1366 m 939 1366 l 1162 1366 l 1104 1149 l 939 1149 l 939 1366 m 1208 1366 l 1367 1366 l 1367 1149 l 1150 1149 l 1208 1366 z "},"ヵ":{"ha":1389,"x_min":23,"x_max":1367,"o":"m 441 1097 l 1032 1097 l 974 966 l 1367 966 l 1367 22 l 616 22 l 838 536 l 796 553 l 567 22 l 23 22 l 23 130 l 210 564 l 23 564 l 23 966 l 382 966 l 441 1097 z "},"ヶ":{"ha":1389,"x_min":23,"x_max":1367,"o":"m 420 1097 l 954 1097 l 857 966 l 1367 966 l 1367 498 l 1157 498 l 1157 302 l 955 22 l 330 22 l 646 460 l 609 486 l 483 311 l 23 311 l 23 751 l 170 751 l 420 1097 z "},"ヷ":{"ha":1389,"x_min":23,"x_max":1367,"o":"m 23 1366 l 894 1366 l 894 1097 l 1367 1097 l 1367 362 l 1027 23 l 483 23 l 810 471 l 810 699 l 552 699 l 552 471 l 23 471 l 23 1366 m 939 1366 l 1164 1366 l 1104 1142 l 939 1142 l 939 1366 m 1210 1366 l 1367 1366 l 1367 1142 l 1150 1142 l 1210 1366 z "}}}
